<svg xmlns="http://www.w3.org/2000/svg" xmlns:xlink="http://www.w3.org/1999/xlink" version="1.1" class="marks" width="1181" height="430" viewBox="0 0 1181 430"><rect width="1181" height="430" fill="white"/><g fill="none" stroke-miterlimit="10" transform="translate(86,51)"><g class="mark-group role-frame root" role="graphics-object" aria-roledescription="group mark container"><g transform="translate(0,0)"><path class="background" aria-hidden="true" d="M0,0h0v0h0Z"/><g><g class="mark-group role-scope concat_0_group" role="graphics-object" aria-roledescription="group mark container"><g transform="translate(0,0)"><path class="background" aria-hidden="true" d="M0.5,0.5h500v300h-500Z" stroke="#ddd"/><g><g class="mark-group role-axis" role="graphics-symbol" aria-roledescription="axis" aria-label="Y-axis for a linear scale with values from 0 to 1,600"><g transform="translate(0.5,0.5)"><path class="background" aria-hidden="true" d="M0,0h0v0h0Z" pointer-events="none"/><g><g class="mark-rule role-axis-grid" pointer-events="none"><line transform="translate(0,300)" x2="500" y2="0" stroke="#ddd" stroke-width="1" opacity="1"/><line transform="translate(0,263)" x2="500" y2="0" stroke="#ddd" stroke-width="1" opacity="1"/><line transform="translate(0,225)" x2="500" y2="0" stroke="#ddd" stroke-width="1" opacity="1"/><line transform="translate(0,188)" x2="500" y2="0" stroke="#ddd" stroke-width="1" opacity="1"/><line transform="translate(0,150)" x2="500" y2="0" stroke="#ddd" stroke-width="1" opacity="1"/><line transform="translate(0,113)" x2="500" y2="0" stroke="#ddd" stroke-width="1" opacity="1"/><line transform="translate(0,75)" x2="500" y2="0" stroke="#ddd" stroke-width="1" opacity="1"/><line transform="translate(0,38)" x2="500" y2="0" stroke="#ddd" stroke-width="1" opacity="1"/><line transform="translate(0,0)" x2="500" y2="0" stroke="#ddd" stroke-width="1" opacity="1"/></g></g><path class="foreground" aria-hidden="true" d="" pointer-events="none" display="none"/></g></g><g class="mark-group role-axis" role="graphics-symbol" aria-roledescription="axis" aria-label="Y-axis titled 'Length of abstract in characters' for a linear scale with values from 0 to 1,600"><g transform="translate(0.5,0.5)"><path class="background" aria-hidden="true" d="M0,0h0v0h0Z" pointer-events="none"/><g><g class="mark-rule role-axis-tick" pointer-events="none"><line transform="translate(0,300)" x2="-5" y2="0" stroke="#888" stroke-width="1" opacity="1"/><line transform="translate(0,263)" x2="-5" y2="0" stroke="#888" stroke-width="1" opacity="1"/><line transform="translate(0,225)" x2="-5" y2="0" stroke="#888" stroke-width="1" opacity="1"/><line transform="translate(0,188)" x2="-5" y2="0" stroke="#888" stroke-width="1" opacity="1"/><line transform="translate(0,150)" x2="-5" y2="0" stroke="#888" stroke-width="1" opacity="1"/><line transform="translate(0,113)" x2="-5" y2="0" stroke="#888" stroke-width="1" opacity="1"/><line transform="translate(0,75)" x2="-5" y2="0" stroke="#888" stroke-width="1" opacity="1"/><line transform="translate(0,38)" x2="-5" y2="0" stroke="#888" stroke-width="1" opacity="1"/><line transform="translate(0,0)" x2="-5" y2="0" stroke="#888" stroke-width="1" opacity="1"/></g><g class="mark-text role-axis-label" pointer-events="none"><text text-anchor="end" transform="translate(-7,305)" font-family="sans-serif" font-size="18px" fill="#000" opacity="1">0</text><text text-anchor="end" transform="translate(-7,267.5)" font-family="sans-serif" font-size="18px" fill="#000" opacity="1">200</text><text text-anchor="end" transform="translate(-7,230)" font-family="sans-serif" font-size="18px" fill="#000" opacity="1">400</text><text text-anchor="end" transform="translate(-7,192.5)" font-family="sans-serif" font-size="18px" fill="#000" opacity="1">600</text><text text-anchor="end" transform="translate(-7,155)" font-family="sans-serif" font-size="18px" fill="#000" opacity="1">800</text><text text-anchor="end" transform="translate(-7,117.5)" font-family="sans-serif" font-size="18px" fill="#000" opacity="1">1,000</text><text text-anchor="end" transform="translate(-7,80)" font-family="sans-serif" font-size="18px" fill="#000" opacity="1">1,200</text><text text-anchor="end" transform="translate(-7,42.5)" font-family="sans-serif" font-size="18px" fill="#000" opacity="1">1,400</text><text text-anchor="end" transform="translate(-7,5)" font-family="sans-serif" font-size="18px" fill="#000" opacity="1">1,600</text></g><g class="mark-rule role-axis-domain" pointer-events="none"><line transform="translate(0,300)" x2="0" y2="-300" stroke="#888" stroke-width="1" opacity="1"/></g><g class="mark-text role-axis-title" pointer-events="none"><text text-anchor="middle" transform="translate(-56.0439453125,150) rotate(-90) translate(0,-5)" font-family="sans-serif" font-size="22px" font-weight="bold" fill="#000" opacity="1">Length of abstract in characters</text></g></g><path class="foreground" aria-hidden="true" d="" pointer-events="none" display="none"/></g></g><g class="mark-rect role-mark concat_0_marks" role="graphics-symbol" aria-roledescription="rect mark container"><path d="M380,11.196842783505057h10v288.8031572164949h-10Z" fill="#4c78a8"/><path d="M30,95.77318548387093h10v204.22681451612908h-10Z" fill="#4c78a8"/><path d="M360,17.60498595505635h10v282.39501404494365h-10Z" fill="#4c78a8"/><path d="M180,36.46875000000001h10v263.53125h-10Z" fill="#4c78a8"/><path d="M470,31.005787037037024h10v268.994212962963h-10Z" fill="#4c78a8"/><path d="M0,131.06801470588232h10v168.93198529411768h-10Z" fill="#4c78a8"/><path d="M420,41.95870535714279h10v258.0412946428572h-10Z" fill="#4c78a8"/><path d="M250,34.41557017543864h10v265.58442982456137h-10Z" fill="#4c78a8"/><path d="M270,5.840624999999944h10v294.15937500000007h-10Z" fill="#4c78a8"/><path d="M480,19.811733128834263h10v280.18826687116575h-10Z" fill="#4c78a8"/><path d="M320,20.02248475609757h10v279.9775152439024h-10Z" fill="#4c78a8"/><path d="M40,105.29023972602735h10v194.70976027397265h-10Z" fill="#4c78a8"/><path d="M170,54.815340909090715h10v245.1846590909093h-10Z" fill="#4c78a8"/><path d="M210,26.60607798165141h10v273.3939220183486h-10Z" fill="#4c78a8"/><path d="M300,7.2310163551402855h10v292.7689836448597h-10Z" fill="#4c78a8"/><path d="M490,26.352007772020603h10v273.6479922279794h-10Z" fill="#4c78a8"/><path d="M10,78.98982558139537h10v221.01017441860463h-10Z" fill="#4c78a8"/><path d="M350,4.476232394366164h10v295.52376760563385h-10Z" fill="#4c78a8"/><path d="M440,25.560000000000016h10v274.44h-10Z" fill="#4c78a8"/><path d="M20,138.796875h10v161.203125h-10Z" fill="#4c78a8"/><path d="M100,61.65648496240611h10v238.34351503759387h-10Z" fill="#4c78a8"/><path d="M240,18.756340579710205h10v281.2436594202898h-10Z" fill="#4c78a8"/><path d="M330,10.209677419354811h10v289.7903225806452h-10Z" fill="#4c78a8"/><path d="M400,16.762218045112732h10v283.2377819548873h-10Z" fill="#4c78a8"/><path d="M390,18.632543103448306h10v281.3674568965517h-10Z" fill="#4c78a8"/><path d="M80,90.02083333333329h10v209.9791666666667h-10Z" fill="#4c78a8"/><path d="M130,60.49570312500009h10v239.5042968749999h-10Z" fill="#4c78a8"/><path d="M190,41.82251908396948h10v258.1774809160305h-10Z" fill="#4c78a8"/><path d="M430,33.4518442622952h10v266.5481557377048h-10Z" fill="#4c78a8"/><path d="M340,10.754296875000058h10v289.2457031249999h-10Z" fill="#4c78a8"/><path d="M50,98.10085227272731h10v201.8991477272727h-10Z" fill="#4c78a8"/><path d="M140,39.4141791044776h10v260.5858208955224h-10Z" fill="#4c78a8"/><path d="M200,17.95959051724142h10v282.0404094827586h-10Z" fill="#4c78a8"/><path d="M290,3.708542713567997h10v296.291457286432h-10Z" fill="#4c78a8"/><path d="M230,22.678072625698377h10v277.3219273743016h-10Z" fill="#4c78a8"/><path d="M220,17.992093373493933h10v282.00790662650604h-10Z" fill="#4c78a8"/><path d="M160,37.976785714285654h10v262.02321428571435h-10Z" fill="#4c78a8"/><path d="M450,32.53665865384632h10v267.4633413461537h-10Z" fill="#4c78a8"/><path d="M280,7.614949748743838h10v292.3850502512562h-10Z" fill="#4c78a8"/><path d="M310,2.056451612903354h10v297.94354838709666h-10Z" fill="#4c78a8"/><path d="M260,22.514126712328807h10v277.4858732876712h-10Z" fill="#4c78a8"/><path d="M120,61.690642458100555h10v238.30935754189943h-10Z" fill="#4c78a8"/><path d="M460,25.601973684210478h10v274.39802631578954h-10Z" fill="#4c78a8"/><path d="M150,64.06773952095826h10v235.93226047904176h-10Z" fill="#4c78a8"/><path d="M410,29.137237762237767h10v270.86276223776224h-10Z" fill="#4c78a8"/><path d="M60,112.00065789473685h10v187.99934210526317h-10Z" fill="#4c78a8"/><path d="M90,63.34374999999994h10v236.65625000000006h-10Z" fill="#4c78a8"/><path d="M110,62.64979338842971h10v237.3502066115703h-10Z" fill="#4c78a8"/><path d="M70,81.25568181818188h10v218.74431818181813h-10Z" fill="#4c78a8"/><path d="M370,21.023298816568058h10v278.97670118343194h-10Z" fill="#4c78a8"/></g><g class="mark-group role-title"><g transform="translate(250,-43.48681640625)"><path class="background" aria-hidden="true" d="M0,0h0v0h0Z" pointer-events="none"/><g><g class="mark-text role-title-text" role="graphics-symbol" aria-roledescription="title" aria-label="Title text 'Average length of abstract'" pointer-events="none"><text text-anchor="middle" transform="translate(0,17)" font-family="sans-serif" font-size="22px" font-weight="bold" fill="#000" opacity="1">Average length of abstract</text></g></g><path class="foreground" aria-hidden="true" d="" pointer-events="none" display="none"/></g></g><g class="mark-group role-axis" role="graphics-symbol" aria-roledescription="axis" aria-label="X-axis titled 'year' for a discrete scale with 50 values: 1971, 1972, 1973, 1974, 1975, ending with 2020"><g transform="translate(0.5,300.5)"><path class="background" aria-hidden="true" d="M0,0h0v0h0Z" pointer-events="none"/><g><g class="mark-rule role-axis-tick" pointer-events="none"><line transform="translate(5,0)" x2="0" y2="5" stroke="#888" stroke-width="1" opacity="1"/><line transform="translate(15,0)" x2="0" y2="5" stroke="#888" stroke-width="1" opacity="1"/><line transform="translate(25,0)" x2="0" y2="5" stroke="#888" stroke-width="1" opacity="1"/><line transform="translate(35,0)" x2="0" y2="5" stroke="#888" stroke-width="1" opacity="1"/><line transform="translate(45,0)" x2="0" y2="5" stroke="#888" stroke-width="1" opacity="1"/><line transform="translate(55,0)" x2="0" y2="5" stroke="#888" stroke-width="1" opacity="1"/><line transform="translate(65,0)" x2="0" y2="5" stroke="#888" stroke-width="1" opacity="1"/><line transform="translate(75,0)" x2="0" y2="5" stroke="#888" stroke-width="1" opacity="1"/><line transform="translate(85,0)" x2="0" y2="5" stroke="#888" stroke-width="1" opacity="1"/><line transform="translate(95,0)" x2="0" y2="5" stroke="#888" stroke-width="1" opacity="1"/><line transform="translate(105,0)" x2="0" y2="5" stroke="#888" stroke-width="1" opacity="1"/><line transform="translate(115,0)" x2="0" y2="5" stroke="#888" stroke-width="1" opacity="1"/><line transform="translate(125,0)" x2="0" y2="5" stroke="#888" stroke-width="1" opacity="1"/><line transform="translate(135,0)" x2="0" y2="5" stroke="#888" stroke-width="1" opacity="1"/><line transform="translate(145,0)" x2="0" y2="5" stroke="#888" stroke-width="1" opacity="1"/><line transform="translate(155,0)" x2="0" y2="5" stroke="#888" stroke-width="1" opacity="1"/><line transform="translate(165,0)" x2="0" y2="5" stroke="#888" stroke-width="1" opacity="1"/><line transform="translate(175,0)" x2="0" y2="5" stroke="#888" stroke-width="1" opacity="1"/><line transform="translate(185,0)" x2="0" y2="5" stroke="#888" stroke-width="1" opacity="1"/><line transform="translate(195,0)" x2="0" y2="5" stroke="#888" stroke-width="1" opacity="1"/><line transform="translate(205,0)" x2="0" y2="5" stroke="#888" stroke-width="1" opacity="1"/><line transform="translate(215,0)" x2="0" y2="5" stroke="#888" stroke-width="1" opacity="1"/><line transform="translate(225,0)" x2="0" y2="5" stroke="#888" stroke-width="1" opacity="1"/><line transform="translate(235,0)" x2="0" y2="5" stroke="#888" stroke-width="1" opacity="1"/><line transform="translate(245,0)" x2="0" y2="5" stroke="#888" stroke-width="1" opacity="1"/><line transform="translate(255,0)" x2="0" y2="5" stroke="#888" stroke-width="1" opacity="1"/><line transform="translate(265,0)" x2="0" y2="5" stroke="#888" stroke-width="1" opacity="1"/><line transform="translate(275,0)" x2="0" y2="5" stroke="#888" stroke-width="1" opacity="1"/><line transform="translate(285,0)" x2="0" y2="5" stroke="#888" stroke-width="1" opacity="1"/><line transform="translate(295,0)" x2="0" y2="5" stroke="#888" stroke-width="1" opacity="1"/><line transform="translate(305,0)" x2="0" y2="5" stroke="#888" stroke-width="1" opacity="1"/><line transform="translate(315,0)" x2="0" y2="5" stroke="#888" stroke-width="1" opacity="1"/><line transform="translate(325,0)" x2="0" y2="5" stroke="#888" stroke-width="1" opacity="1"/><line transform="translate(335,0)" x2="0" y2="5" stroke="#888" stroke-width="1" opacity="1"/><line transform="translate(345,0)" x2="0" y2="5" stroke="#888" stroke-width="1" opacity="1"/><line transform="translate(355,0)" x2="0" y2="5" stroke="#888" stroke-width="1" opacity="1"/><line transform="translate(365,0)" x2="0" y2="5" stroke="#888" stroke-width="1" opacity="1"/><line transform="translate(375,0)" x2="0" y2="5" stroke="#888" stroke-width="1" opacity="1"/><line transform="translate(385,0)" x2="0" y2="5" stroke="#888" stroke-width="1" opacity="1"/><line transform="translate(395,0)" x2="0" y2="5" stroke="#888" stroke-width="1" opacity="1"/><line transform="translate(405,0)" x2="0" y2="5" stroke="#888" stroke-width="1" opacity="1"/><line transform="translate(415,0)" x2="0" y2="5" stroke="#888" stroke-width="1" opacity="1"/><line transform="translate(425,0)" x2="0" y2="5" stroke="#888" stroke-width="1" opacity="1"/><line transform="translate(435,0)" x2="0" y2="5" stroke="#888" stroke-width="1" opacity="1"/><line transform="translate(445,0)" x2="0" y2="5" stroke="#888" stroke-width="1" opacity="1"/><line transform="translate(455,0)" x2="0" y2="5" stroke="#888" stroke-width="1" opacity="1"/><line transform="translate(465,0)" x2="0" y2="5" stroke="#888" stroke-width="1" opacity="1"/><line transform="translate(475,0)" x2="0" y2="5" stroke="#888" stroke-width="1" opacity="1"/><line transform="translate(485,0)" x2="0" y2="5" stroke="#888" stroke-width="1" opacity="1"/><line transform="translate(495,0)" x2="0" y2="5" stroke="#888" stroke-width="1" opacity="1"/></g><g class="mark-text role-axis-label" pointer-events="none"><text text-anchor="end" transform="translate(4.5,7) rotate(270) translate(0,5)" font-family="sans-serif" font-size="18px" fill="#000" opacity="1">1971</text><text text-anchor="end" transform="translate(14.5,7) rotate(270) translate(0,5)" font-family="sans-serif" font-size="18px" fill="#000" opacity="0">1972</text><text text-anchor="end" transform="translate(24.5,7) rotate(270) translate(0,5)" font-family="sans-serif" font-size="18px" fill="#000" opacity="1">1973</text><text text-anchor="end" transform="translate(34.5,7) rotate(270) translate(0,5)" font-family="sans-serif" font-size="18px" fill="#000" opacity="0">1974</text><text text-anchor="end" transform="translate(44.5,7) rotate(270) translate(0,5)" font-family="sans-serif" font-size="18px" fill="#000" opacity="1">1975</text><text text-anchor="end" transform="translate(54.5,7) rotate(270) translate(0,5)" font-family="sans-serif" font-size="18px" fill="#000" opacity="0">1976</text><text text-anchor="end" transform="translate(64.5,7) rotate(270) translate(0,5)" font-family="sans-serif" font-size="18px" fill="#000" opacity="1">1977</text><text text-anchor="end" transform="translate(74.5,7) rotate(270) translate(0,5)" font-family="sans-serif" font-size="18px" fill="#000" opacity="0">1978</text><text text-anchor="end" transform="translate(84.5,7) rotate(270) translate(0,5)" font-family="sans-serif" font-size="18px" fill="#000" opacity="1">1979</text><text text-anchor="end" transform="translate(94.5,7) rotate(270) translate(0,5)" font-family="sans-serif" font-size="18px" fill="#000" opacity="0">1980</text><text text-anchor="end" transform="translate(104.5,7) rotate(270) translate(0,5)" font-family="sans-serif" font-size="18px" fill="#000" opacity="1">1981</text><text text-anchor="end" transform="translate(114.5,7) rotate(270) translate(0,5)" font-family="sans-serif" font-size="18px" fill="#000" opacity="0">1982</text><text text-anchor="end" transform="translate(124.5,7) rotate(270) translate(0,5)" font-family="sans-serif" font-size="18px" fill="#000" opacity="1">1983</text><text text-anchor="end" transform="translate(134.5,7) rotate(270) translate(0,5)" font-family="sans-serif" font-size="18px" fill="#000" opacity="0">1984</text><text text-anchor="end" transform="translate(144.5,7) rotate(270) translate(0,5)" font-family="sans-serif" font-size="18px" fill="#000" opacity="1">1985</text><text text-anchor="end" transform="translate(154.5,7) rotate(270) translate(0,5)" font-family="sans-serif" font-size="18px" fill="#000" opacity="0">1986</text><text text-anchor="end" transform="translate(164.5,7) rotate(270) translate(0,5)" font-family="sans-serif" font-size="18px" fill="#000" opacity="1">1987</text><text text-anchor="end" transform="translate(174.5,7) rotate(270) translate(0,5)" font-family="sans-serif" font-size="18px" fill="#000" opacity="0">1988</text><text text-anchor="end" transform="translate(184.5,7) rotate(270) translate(0,5)" font-family="sans-serif" font-size="18px" fill="#000" opacity="1">1989</text><text text-anchor="end" transform="translate(194.5,7) rotate(270) translate(0,5)" font-family="sans-serif" font-size="18px" fill="#000" opacity="0">1990</text><text text-anchor="end" transform="translate(204.5,7) rotate(270) translate(0,5)" font-family="sans-serif" font-size="18px" fill="#000" opacity="1">1991</text><text text-anchor="end" transform="translate(214.5,7) rotate(270) translate(0,5)" font-family="sans-serif" font-size="18px" fill="#000" opacity="0">1992</text><text text-anchor="end" transform="translate(224.5,7) rotate(270) translate(0,5)" font-family="sans-serif" font-size="18px" fill="#000" opacity="1">1993</text><text text-anchor="end" transform="translate(234.5,7) rotate(270) translate(0,5)" font-family="sans-serif" font-size="18px" fill="#000" opacity="0">1994</text><text text-anchor="end" transform="translate(244.5,7) rotate(270) translate(0,5)" font-family="sans-serif" font-size="18px" fill="#000" opacity="1">1995</text><text text-anchor="end" transform="translate(254.5,7) rotate(270) translate(0,5)" font-family="sans-serif" font-size="18px" fill="#000" opacity="0">1996</text><text text-anchor="end" transform="translate(264.5,7) rotate(270) translate(0,5)" font-family="sans-serif" font-size="18px" fill="#000" opacity="1">1997</text><text text-anchor="end" transform="translate(274.5,7) rotate(270) translate(0,5)" font-family="sans-serif" font-size="18px" fill="#000" opacity="0">1998</text><text text-anchor="end" transform="translate(284.5,7) rotate(270) translate(0,5)" font-family="sans-serif" font-size="18px" fill="#000" opacity="1">1999</text><text text-anchor="end" transform="translate(294.5,7) rotate(270) translate(0,5)" font-family="sans-serif" font-size="18px" fill="#000" opacity="0">2000</text><text text-anchor="end" transform="translate(304.5,7) rotate(270) translate(0,5)" font-family="sans-serif" font-size="18px" fill="#000" opacity="1">2001</text><text text-anchor="end" transform="translate(314.5,7) rotate(270) translate(0,5)" font-family="sans-serif" font-size="18px" fill="#000" opacity="0">2002</text><text text-anchor="end" transform="translate(324.5,7) rotate(270) translate(0,5)" font-family="sans-serif" font-size="18px" fill="#000" opacity="1">2003</text><text text-anchor="end" transform="translate(334.5,7) rotate(270) translate(0,5)" font-family="sans-serif" font-size="18px" fill="#000" opacity="0">2004</text><text text-anchor="end" transform="translate(344.5,7) rotate(270) translate(0,5)" font-family="sans-serif" font-size="18px" fill="#000" opacity="1">2005</text><text text-anchor="end" transform="translate(354.5,7) rotate(270) translate(0,5)" font-family="sans-serif" font-size="18px" fill="#000" opacity="0">2006</text><text text-anchor="end" transform="translate(364.5,7) rotate(270) translate(0,5)" font-family="sans-serif" font-size="18px" fill="#000" opacity="1">2007</text><text text-anchor="end" transform="translate(374.5,7) rotate(270) translate(0,5)" font-family="sans-serif" font-size="18px" fill="#000" opacity="0">2008</text><text text-anchor="end" transform="translate(384.5,7) rotate(270) translate(0,5)" font-family="sans-serif" font-size="18px" fill="#000" opacity="1">2009</text><text text-anchor="end" transform="translate(394.5,7) rotate(270) translate(0,5)" font-family="sans-serif" font-size="18px" fill="#000" opacity="0">2010</text><text text-anchor="end" transform="translate(404.5,7) rotate(270) translate(0,5)" font-family="sans-serif" font-size="18px" fill="#000" opacity="1">2011</text><text text-anchor="end" transform="translate(414.5,7) rotate(270) translate(0,5)" font-family="sans-serif" font-size="18px" fill="#000" opacity="0">2012</text><text text-anchor="end" transform="translate(424.5,7) rotate(270) translate(0,5)" font-family="sans-serif" font-size="18px" fill="#000" opacity="1">2013</text><text text-anchor="end" transform="translate(434.5,7) rotate(270) translate(0,5)" font-family="sans-serif" font-size="18px" fill="#000" opacity="0">2014</text><text text-anchor="end" transform="translate(444.5,7) rotate(270) translate(0,5)" font-family="sans-serif" font-size="18px" fill="#000" opacity="1">2015</text><text text-anchor="end" transform="translate(454.5,7) rotate(270) translate(0,5)" font-family="sans-serif" font-size="18px" fill="#000" opacity="0">2016</text><text text-anchor="end" transform="translate(464.5,7) rotate(270) translate(0,5)" font-family="sans-serif" font-size="18px" fill="#000" opacity="1">2017</text><text text-anchor="end" transform="translate(474.5,7) rotate(270) translate(0,5)" font-family="sans-serif" font-size="18px" fill="#000" opacity="0">2018</text><text text-anchor="end" transform="translate(484.5,7) rotate(270) translate(0,5)" font-family="sans-serif" font-size="18px" fill="#000" opacity="1">2019</text><text text-anchor="end" transform="translate(494.5,7) rotate(270) translate(0,5)" font-family="sans-serif" font-size="18px" fill="#000" opacity="0">2020</text></g><g class="mark-rule role-axis-domain" pointer-events="none"><line transform="translate(0,0)" x2="500" y2="0" stroke="#888" stroke-width="1" opacity="1"/></g><g class="mark-text role-axis-title" pointer-events="none"><text text-anchor="middle" transform="translate(250,68.04296875)" font-family="sans-serif" font-size="22px" font-weight="bold" fill="#000" opacity="1">year</text></g></g><path class="foreground" aria-hidden="true" d="" pointer-events="none" display="none"/></g></g></g><path class="foreground" aria-hidden="true" d="" display="none"/></g></g><g class="mark-group role-scope concat_1_group" role="graphics-object" aria-roledescription="group mark container"><g transform="translate(587,0)"><path class="background" aria-hidden="true" d="M0.5,0.5h500v300h-500Z" stroke="#ddd"/><g><g class="mark-group role-axis" role="graphics-symbol" aria-roledescription="axis" aria-label="Y-axis for a linear scale with values from 0 to 800"><g transform="translate(0.5,0.5)"><path class="background" aria-hidden="true" d="M0,0h0v0h0Z" pointer-events="none"/><g><g class="mark-rule role-axis-grid" pointer-events="none"><line transform="translate(0,300)" x2="500" y2="0" stroke="#ddd" stroke-width="1" opacity="1"/><line transform="translate(0,263)" x2="500" y2="0" stroke="#ddd" stroke-width="1" opacity="1"/><line transform="translate(0,225)" x2="500" y2="0" stroke="#ddd" stroke-width="1" opacity="1"/><line transform="translate(0,188)" x2="500" y2="0" stroke="#ddd" stroke-width="1" opacity="1"/><line transform="translate(0,150)" x2="500" y2="0" stroke="#ddd" stroke-width="1" opacity="1"/><line transform="translate(0,113)" x2="500" y2="0" stroke="#ddd" stroke-width="1" opacity="1"/><line transform="translate(0,75)" x2="500" y2="0" stroke="#ddd" stroke-width="1" opacity="1"/><line transform="translate(0,38)" x2="500" y2="0" stroke="#ddd" stroke-width="1" opacity="1"/><line transform="translate(0,0)" x2="500" y2="0" stroke="#ddd" stroke-width="1" opacity="1"/></g></g><path class="foreground" aria-hidden="true" d="" pointer-events="none" display="none"/></g></g><g class="mark-group role-axis" role="graphics-symbol" aria-roledescription="axis" aria-label="X-axis titled 'year' for a discrete scale with 50 values: 1971, 1972, 1973, 1974, 1975, ending with 2020"><g transform="translate(0.5,300.5)"><path class="background" aria-hidden="true" d="M0,0h0v0h0Z" pointer-events="none"/><g><g class="mark-rule role-axis-tick" pointer-events="none"><line transform="translate(5,0)" x2="0" y2="5" stroke="#888" stroke-width="1" opacity="1"/><line transform="translate(15,0)" x2="0" y2="5" stroke="#888" stroke-width="1" opacity="1"/><line transform="translate(25,0)" x2="0" y2="5" stroke="#888" stroke-width="1" opacity="1"/><line transform="translate(35,0)" x2="0" y2="5" stroke="#888" stroke-width="1" opacity="1"/><line transform="translate(45,0)" x2="0" y2="5" stroke="#888" stroke-width="1" opacity="1"/><line transform="translate(55,0)" x2="0" y2="5" stroke="#888" stroke-width="1" opacity="1"/><line transform="translate(65,0)" x2="0" y2="5" stroke="#888" stroke-width="1" opacity="1"/><line transform="translate(75,0)" x2="0" y2="5" stroke="#888" stroke-width="1" opacity="1"/><line transform="translate(85,0)" x2="0" y2="5" stroke="#888" stroke-width="1" opacity="1"/><line transform="translate(95,0)" x2="0" y2="5" stroke="#888" stroke-width="1" opacity="1"/><line transform="translate(105,0)" x2="0" y2="5" stroke="#888" stroke-width="1" opacity="1"/><line transform="translate(115,0)" x2="0" y2="5" stroke="#888" stroke-width="1" opacity="1"/><line transform="translate(125,0)" x2="0" y2="5" stroke="#888" stroke-width="1" opacity="1"/><line transform="translate(135,0)" x2="0" y2="5" stroke="#888" stroke-width="1" opacity="1"/><line transform="translate(145,0)" x2="0" y2="5" stroke="#888" stroke-width="1" opacity="1"/><line transform="translate(155,0)" x2="0" y2="5" stroke="#888" stroke-width="1" opacity="1"/><line transform="translate(165,0)" x2="0" y2="5" stroke="#888" stroke-width="1" opacity="1"/><line transform="translate(175,0)" x2="0" y2="5" stroke="#888" stroke-width="1" opacity="1"/><line transform="translate(185,0)" x2="0" y2="5" stroke="#888" stroke-width="1" opacity="1"/><line transform="translate(195,0)" x2="0" y2="5" stroke="#888" stroke-width="1" opacity="1"/><line transform="translate(205,0)" x2="0" y2="5" stroke="#888" stroke-width="1" opacity="1"/><line transform="translate(215,0)" x2="0" y2="5" stroke="#888" stroke-width="1" opacity="1"/><line transform="translate(225,0)" x2="0" y2="5" stroke="#888" stroke-width="1" opacity="1"/><line transform="translate(235,0)" x2="0" y2="5" stroke="#888" stroke-width="1" opacity="1"/><line transform="translate(245,0)" x2="0" y2="5" stroke="#888" stroke-width="1" opacity="1"/><line transform="translate(255,0)" x2="0" y2="5" stroke="#888" stroke-width="1" opacity="1"/><line transform="translate(265,0)" x2="0" y2="5" stroke="#888" stroke-width="1" opacity="1"/><line transform="translate(275,0)" x2="0" y2="5" stroke="#888" stroke-width="1" opacity="1"/><line transform="translate(285,0)" x2="0" y2="5" stroke="#888" stroke-width="1" opacity="1"/><line transform="translate(295,0)" x2="0" y2="5" stroke="#888" stroke-width="1" opacity="1"/><line transform="translate(305,0)" x2="0" y2="5" stroke="#888" stroke-width="1" opacity="1"/><line transform="translate(315,0)" x2="0" y2="5" stroke="#888" stroke-width="1" opacity="1"/><line transform="translate(325,0)" x2="0" y2="5" stroke="#888" stroke-width="1" opacity="1"/><line transform="translate(335,0)" x2="0" y2="5" stroke="#888" stroke-width="1" opacity="1"/><line transform="translate(345,0)" x2="0" y2="5" stroke="#888" stroke-width="1" opacity="1"/><line transform="translate(355,0)" x2="0" y2="5" stroke="#888" stroke-width="1" opacity="1"/><line transform="translate(365,0)" x2="0" y2="5" stroke="#888" stroke-width="1" opacity="1"/><line transform="translate(375,0)" x2="0" y2="5" stroke="#888" stroke-width="1" opacity="1"/><line transform="translate(385,0)" x2="0" y2="5" stroke="#888" stroke-width="1" opacity="1"/><line transform="translate(395,0)" x2="0" y2="5" stroke="#888" stroke-width="1" opacity="1"/><line transform="translate(405,0)" x2="0" y2="5" stroke="#888" stroke-width="1" opacity="1"/><line transform="translate(415,0)" x2="0" y2="5" stroke="#888" stroke-width="1" opacity="1"/><line transform="translate(425,0)" x2="0" y2="5" stroke="#888" stroke-width="1" opacity="1"/><line transform="translate(435,0)" x2="0" y2="5" stroke="#888" stroke-width="1" opacity="1"/><line transform="translate(445,0)" x2="0" y2="5" stroke="#888" stroke-width="1" opacity="1"/><line transform="translate(455,0)" x2="0" y2="5" stroke="#888" stroke-width="1" opacity="1"/><line transform="translate(465,0)" x2="0" y2="5" stroke="#888" stroke-width="1" opacity="1"/><line transform="translate(475,0)" x2="0" y2="5" stroke="#888" stroke-width="1" opacity="1"/><line transform="translate(485,0)" x2="0" y2="5" stroke="#888" stroke-width="1" opacity="1"/><line transform="translate(495,0)" x2="0" y2="5" stroke="#888" stroke-width="1" opacity="1"/></g><g class="mark-text role-axis-label" pointer-events="none"><text text-anchor="end" transform="translate(4.5,7) rotate(270) translate(0,5)" font-family="sans-serif" font-size="18px" fill="#000" opacity="1">1971</text><text text-anchor="end" transform="translate(14.5,7) rotate(270) translate(0,5)" font-family="sans-serif" font-size="18px" fill="#000" opacity="0">1972</text><text text-anchor="end" transform="translate(24.5,7) rotate(270) translate(0,5)" font-family="sans-serif" font-size="18px" fill="#000" opacity="1">1973</text><text text-anchor="end" transform="translate(34.5,7) rotate(270) translate(0,5)" font-family="sans-serif" font-size="18px" fill="#000" opacity="0">1974</text><text text-anchor="end" transform="translate(44.5,7) rotate(270) translate(0,5)" font-family="sans-serif" font-size="18px" fill="#000" opacity="1">1975</text><text text-anchor="end" transform="translate(54.5,7) rotate(270) translate(0,5)" font-family="sans-serif" font-size="18px" fill="#000" opacity="0">1976</text><text text-anchor="end" transform="translate(64.5,7) rotate(270) translate(0,5)" font-family="sans-serif" font-size="18px" fill="#000" opacity="1">1977</text><text text-anchor="end" transform="translate(74.5,7) rotate(270) translate(0,5)" font-family="sans-serif" font-size="18px" fill="#000" opacity="0">1978</text><text text-anchor="end" transform="translate(84.5,7) rotate(270) translate(0,5)" font-family="sans-serif" font-size="18px" fill="#000" opacity="1">1979</text><text text-anchor="end" transform="translate(94.5,7) rotate(270) translate(0,5)" font-family="sans-serif" font-size="18px" fill="#000" opacity="0">1980</text><text text-anchor="end" transform="translate(104.5,7) rotate(270) translate(0,5)" font-family="sans-serif" font-size="18px" fill="#000" opacity="1">1981</text><text text-anchor="end" transform="translate(114.5,7) rotate(270) translate(0,5)" font-family="sans-serif" font-size="18px" fill="#000" opacity="0">1982</text><text text-anchor="end" transform="translate(124.5,7) rotate(270) translate(0,5)" font-family="sans-serif" font-size="18px" fill="#000" opacity="1">1983</text><text text-anchor="end" transform="translate(134.5,7) rotate(270) translate(0,5)" font-family="sans-serif" font-size="18px" fill="#000" opacity="0">1984</text><text text-anchor="end" transform="translate(144.5,7) rotate(270) translate(0,5)" font-family="sans-serif" font-size="18px" fill="#000" opacity="1">1985</text><text text-anchor="end" transform="translate(154.5,7) rotate(270) translate(0,5)" font-family="sans-serif" font-size="18px" fill="#000" opacity="0">1986</text><text text-anchor="end" transform="translate(164.5,7) rotate(270) translate(0,5)" font-family="sans-serif" font-size="18px" fill="#000" opacity="1">1987</text><text text-anchor="end" transform="translate(174.5,7) rotate(270) translate(0,5)" font-family="sans-serif" font-size="18px" fill="#000" opacity="0">1988</text><text text-anchor="end" transform="translate(184.5,7) rotate(270) translate(0,5)" font-family="sans-serif" font-size="18px" fill="#000" opacity="1">1989</text><text text-anchor="end" transform="translate(194.5,7) rotate(270) translate(0,5)" font-family="sans-serif" font-size="18px" fill="#000" opacity="0">1990</text><text text-anchor="end" transform="translate(204.5,7) rotate(270) translate(0,5)" font-family="sans-serif" font-size="18px" fill="#000" opacity="1">1991</text><text text-anchor="end" transform="translate(214.5,7) rotate(270) translate(0,5)" font-family="sans-serif" font-size="18px" fill="#000" opacity="0">1992</text><text text-anchor="end" transform="translate(224.5,7) rotate(270) translate(0,5)" font-family="sans-serif" font-size="18px" fill="#000" opacity="1">1993</text><text text-anchor="end" transform="translate(234.5,7) rotate(270) translate(0,5)" font-family="sans-serif" font-size="18px" fill="#000" opacity="0">1994</text><text text-anchor="end" transform="translate(244.5,7) rotate(270) translate(0,5)" font-family="sans-serif" font-size="18px" fill="#000" opacity="1">1995</text><text text-anchor="end" transform="translate(254.5,7) rotate(270) translate(0,5)" font-family="sans-serif" font-size="18px" fill="#000" opacity="0">1996</text><text text-anchor="end" transform="translate(264.5,7) rotate(270) translate(0,5)" font-family="sans-serif" font-size="18px" fill="#000" opacity="1">1997</text><text text-anchor="end" transform="translate(274.5,7) rotate(270) translate(0,5)" font-family="sans-serif" font-size="18px" fill="#000" opacity="0">1998</text><text text-anchor="end" transform="translate(284.5,7) rotate(270) translate(0,5)" font-family="sans-serif" font-size="18px" fill="#000" opacity="1">1999</text><text text-anchor="end" transform="translate(294.5,7) rotate(270) translate(0,5)" font-family="sans-serif" font-size="18px" fill="#000" opacity="0">2000</text><text text-anchor="end" transform="translate(304.5,7) rotate(270) translate(0,5)" font-family="sans-serif" font-size="18px" fill="#000" opacity="1">2001</text><text text-anchor="end" transform="translate(314.5,7) rotate(270) translate(0,5)" font-family="sans-serif" font-size="18px" fill="#000" opacity="0">2002</text><text text-anchor="end" transform="translate(324.5,7) rotate(270) translate(0,5)" font-family="sans-serif" font-size="18px" fill="#000" opacity="1">2003</text><text text-anchor="end" transform="translate(334.5,7) rotate(270) translate(0,5)" font-family="sans-serif" font-size="18px" fill="#000" opacity="0">2004</text><text text-anchor="end" transform="translate(344.5,7) rotate(270) translate(0,5)" font-family="sans-serif" font-size="18px" fill="#000" opacity="1">2005</text><text text-anchor="end" transform="translate(354.5,7) rotate(270) translate(0,5)" font-family="sans-serif" font-size="18px" fill="#000" opacity="0">2006</text><text text-anchor="end" transform="translate(364.5,7) rotate(270) translate(0,5)" font-family="sans-serif" font-size="18px" fill="#000" opacity="1">2007</text><text text-anchor="end" transform="translate(374.5,7) rotate(270) translate(0,5)" font-family="sans-serif" font-size="18px" fill="#000" opacity="0">2008</text><text text-anchor="end" transform="translate(384.5,7) rotate(270) translate(0,5)" font-family="sans-serif" font-size="18px" fill="#000" opacity="1">2009</text><text text-anchor="end" transform="translate(394.5,7) rotate(270) translate(0,5)" font-family="sans-serif" font-size="18px" fill="#000" opacity="0">2010</text><text text-anchor="end" transform="translate(404.5,7) rotate(270) translate(0,5)" font-family="sans-serif" font-size="18px" fill="#000" opacity="1">2011</text><text text-anchor="end" transform="translate(414.5,7) rotate(270) translate(0,5)" font-family="sans-serif" font-size="18px" fill="#000" opacity="0">2012</text><text text-anchor="end" transform="translate(424.5,7) rotate(270) translate(0,5)" font-family="sans-serif" font-size="18px" fill="#000" opacity="1">2013</text><text text-anchor="end" transform="translate(434.5,7) rotate(270) translate(0,5)" font-family="sans-serif" font-size="18px" fill="#000" opacity="0">2014</text><text text-anchor="end" transform="translate(444.5,7) rotate(270) translate(0,5)" font-family="sans-serif" font-size="18px" fill="#000" opacity="1">2015</text><text text-anchor="end" transform="translate(454.5,7) rotate(270) translate(0,5)" font-family="sans-serif" font-size="18px" fill="#000" opacity="0">2016</text><text text-anchor="end" transform="translate(464.5,7) rotate(270) translate(0,5)" font-family="sans-serif" font-size="18px" fill="#000" opacity="1">2017</text><text text-anchor="end" transform="translate(474.5,7) rotate(270) translate(0,5)" font-family="sans-serif" font-size="18px" fill="#000" opacity="0">2018</text><text text-anchor="end" transform="translate(484.5,7) rotate(270) translate(0,5)" font-family="sans-serif" font-size="18px" fill="#000" opacity="1">2019</text><text text-anchor="end" transform="translate(494.5,7) rotate(270) translate(0,5)" font-family="sans-serif" font-size="18px" fill="#000" opacity="0">2020</text></g><g class="mark-rule role-axis-domain" pointer-events="none"><line transform="translate(0,0)" x2="500" y2="0" stroke="#888" stroke-width="1" opacity="1"/></g><g class="mark-text role-axis-title" pointer-events="none"><text text-anchor="middle" transform="translate(250,68.04296875)" font-family="sans-serif" font-size="22px" font-weight="bold" fill="#000" opacity="1">year</text></g></g><path class="foreground" aria-hidden="true" d="" pointer-events="none" display="none"/></g></g><g class="mark-group role-axis" role="graphics-symbol" aria-roledescription="axis" aria-label="Y-axis titled 'Mean words in abstract' for a linear scale with values from 0 to 800"><g transform="translate(0.5,0.5)"><path class="background" aria-hidden="true" d="M0,0h0v0h0Z" pointer-events="none"/><g><g class="mark-rule role-axis-tick" pointer-events="none"><line transform="translate(0,300)" x2="-5" y2="0" stroke="#888" stroke-width="1" opacity="1"/><line transform="translate(0,263)" x2="-5" y2="0" stroke="#888" stroke-width="1" opacity="1"/><line transform="translate(0,225)" x2="-5" y2="0" stroke="#888" stroke-width="1" opacity="1"/><line transform="translate(0,188)" x2="-5" y2="0" stroke="#888" stroke-width="1" opacity="1"/><line transform="translate(0,150)" x2="-5" y2="0" stroke="#888" stroke-width="1" opacity="1"/><line transform="translate(0,113)" x2="-5" y2="0" stroke="#888" stroke-width="1" opacity="1"/><line transform="translate(0,75)" x2="-5" y2="0" stroke="#888" stroke-width="1" opacity="1"/><line transform="translate(0,38)" x2="-5" y2="0" stroke="#888" stroke-width="1" opacity="1"/><line transform="translate(0,0)" x2="-5" y2="0" stroke="#888" stroke-width="1" opacity="1"/></g><g class="mark-text role-axis-label" pointer-events="none"><text text-anchor="end" transform="translate(-7,305)" font-family="sans-serif" font-size="18px" fill="#000" opacity="1">0</text><text text-anchor="end" transform="translate(-7,267.5)" font-family="sans-serif" font-size="18px" fill="#000" opacity="1">100</text><text text-anchor="end" transform="translate(-7,230)" font-family="sans-serif" font-size="18px" fill="#000" opacity="1">200</text><text text-anchor="end" transform="translate(-7,192.5)" font-family="sans-serif" font-size="18px" fill="#000" opacity="1">300</text><text text-anchor="end" transform="translate(-7,155)" font-family="sans-serif" font-size="18px" fill="#000" opacity="1">400</text><text text-anchor="end" transform="translate(-7,117.5)" font-family="sans-serif" font-size="18px" fill="#000" opacity="1">500</text><text text-anchor="end" transform="translate(-7,80)" font-family="sans-serif" font-size="18px" fill="#000" opacity="1">600</text><text text-anchor="end" transform="translate(-7,42.5)" font-family="sans-serif" font-size="18px" fill="#000" opacity="1">700</text><text text-anchor="end" transform="translate(-7,5)" font-family="sans-serif" font-size="18px" fill="#000" opacity="1">800</text></g><g class="mark-rule role-axis-domain" pointer-events="none"><line transform="translate(0,300)" x2="0" y2="-300" stroke="#888" stroke-width="1" opacity="1"/></g><g class="mark-text role-axis-title" pointer-events="none"><text text-anchor="middle" transform="translate(-41.0322265625,150) rotate(-90) translate(0,-5)" font-family="sans-serif" font-size="22px" font-weight="bold" fill="#000" opacity="1">Mean words in abstract</text></g></g><path class="foreground" aria-hidden="true" d="" pointer-events="none" display="none"/></g></g><g class="mark-symbol role-mark concat_1_layer_0_layer_0_marks" role="graphics-symbol" aria-roledescription="symbol mark container"><path transform="translate(385,139.87500000000003)" d="M2.7386127875258306,0A2.7386127875258306,2.7386127875258306,0,1,1,-2.7386127875258306,0A2.7386127875258306,2.7386127875258306,0,1,1,2.7386127875258306,0" stroke="#4c78a8" stroke-width="2" opacity="0.7"/><path transform="translate(385,133.49999999999997)" d="M2.7386127875258306,0A2.7386127875258306,2.7386127875258306,0,1,1,-2.7386127875258306,0A2.7386127875258306,2.7386127875258306,0,1,1,2.7386127875258306,0" stroke="#4c78a8" stroke-width="2" opacity="0.7"/><path transform="translate(35,174.75)" d="M2.7386127875258306,0A2.7386127875258306,2.7386127875258306,0,1,1,-2.7386127875258306,0A2.7386127875258306,2.7386127875258306,0,1,1,2.7386127875258306,0" stroke="#4c78a8" stroke-width="2" opacity="0.7"/><path transform="translate(35,148.875)" d="M2.7386127875258306,0A2.7386127875258306,2.7386127875258306,0,1,1,-2.7386127875258306,0A2.7386127875258306,2.7386127875258306,0,1,1,2.7386127875258306,0" stroke="#4c78a8" stroke-width="2" opacity="0.7"/><path transform="translate(185,114)" d="M2.7386127875258306,0A2.7386127875258306,2.7386127875258306,0,1,1,-2.7386127875258306,0A2.7386127875258306,2.7386127875258306,0,1,1,2.7386127875258306,0" stroke="#4c78a8" stroke-width="2" opacity="0.7"/><path transform="translate(35,145.125)" d="M2.7386127875258306,0A2.7386127875258306,2.7386127875258306,0,1,1,-2.7386127875258306,0A2.7386127875258306,2.7386127875258306,0,1,1,2.7386127875258306,0" stroke="#4c78a8" stroke-width="2" opacity="0.7"/><path transform="translate(35,173.25)" d="M2.7386127875258306,0A2.7386127875258306,2.7386127875258306,0,1,1,-2.7386127875258306,0A2.7386127875258306,2.7386127875258306,0,1,1,2.7386127875258306,0" stroke="#4c78a8" stroke-width="2" opacity="0.7"/><path transform="translate(35,173.25)" d="M2.7386127875258306,0A2.7386127875258306,2.7386127875258306,0,1,1,-2.7386127875258306,0A2.7386127875258306,2.7386127875258306,0,1,1,2.7386127875258306,0" stroke="#4c78a8" stroke-width="2" opacity="0.7"/><path transform="translate(35,174.00000000000003)" d="M2.7386127875258306,0A2.7386127875258306,2.7386127875258306,0,1,1,-2.7386127875258306,0A2.7386127875258306,2.7386127875258306,0,1,1,2.7386127875258306,0" stroke="#4c78a8" stroke-width="2" opacity="0.7"/><path transform="translate(45,151.5)" d="M2.7386127875258306,0A2.7386127875258306,2.7386127875258306,0,1,1,-2.7386127875258306,0A2.7386127875258306,2.7386127875258306,0,1,1,2.7386127875258306,0" stroke="#4c78a8" stroke-width="2" opacity="0.7"/><path transform="translate(175,149.625)" d="M2.7386127875258306,0A2.7386127875258306,2.7386127875258306,0,1,1,-2.7386127875258306,0A2.7386127875258306,2.7386127875258306,0,1,1,2.7386127875258306,0" stroke="#4c78a8" stroke-width="2" opacity="0.7"/><path transform="translate(445,266.25)" d="M2.7386127875258306,0A2.7386127875258306,2.7386127875258306,0,1,1,-2.7386127875258306,0A2.7386127875258306,2.7386127875258306,0,1,1,2.7386127875258306,0" stroke="#4c78a8" stroke-width="2" opacity="0.7"/><path transform="translate(25,182.24999999999997)" d="M2.7386127875258306,0A2.7386127875258306,2.7386127875258306,0,1,1,-2.7386127875258306,0A2.7386127875258306,2.7386127875258306,0,1,1,2.7386127875258306,0" stroke="#4c78a8" stroke-width="2" opacity="0.7"/><path transform="translate(245,61.12499999999999)" d="M2.7386127875258306,0A2.7386127875258306,2.7386127875258306,0,1,1,-2.7386127875258306,0A2.7386127875258306,2.7386127875258306,0,1,1,2.7386127875258306,0" stroke="#4c78a8" stroke-width="2" opacity="0.7"/><path transform="translate(395,142.5)" d="M2.7386127875258306,0A2.7386127875258306,2.7386127875258306,0,1,1,-2.7386127875258306,0A2.7386127875258306,2.7386127875258306,0,1,1,2.7386127875258306,0" stroke="#4c78a8" stroke-width="2" opacity="0.7"/><path transform="translate(395,150)" d="M2.7386127875258306,0A2.7386127875258306,2.7386127875258306,0,1,1,-2.7386127875258306,0A2.7386127875258306,2.7386127875258306,0,1,1,2.7386127875258306,0" stroke="#4c78a8" stroke-width="2" opacity="0.7"/><path transform="translate(135,117.375)" d="M2.7386127875258306,0A2.7386127875258306,2.7386127875258306,0,1,1,-2.7386127875258306,0A2.7386127875258306,2.7386127875258306,0,1,1,2.7386127875258306,0" stroke="#4c78a8" stroke-width="2" opacity="0.7"/><path transform="translate(195,103.125)" d="M2.7386127875258306,0A2.7386127875258306,2.7386127875258306,0,1,1,-2.7386127875258306,0A2.7386127875258306,2.7386127875258306,0,1,1,2.7386127875258306,0" stroke="#4c78a8" stroke-width="2" opacity="0.7"/><path transform="translate(435,267.375)" d="M2.7386127875258306,0A2.7386127875258306,2.7386127875258306,0,1,1,-2.7386127875258306,0A2.7386127875258306,2.7386127875258306,0,1,1,2.7386127875258306,0" stroke="#4c78a8" stroke-width="2" opacity="0.7"/><path transform="translate(345,123.75)" d="M2.7386127875258306,0A2.7386127875258306,2.7386127875258306,0,1,1,-2.7386127875258306,0A2.7386127875258306,2.7386127875258306,0,1,1,2.7386127875258306,0" stroke="#4c78a8" stroke-width="2" opacity="0.7"/><path transform="translate(235,114.74999999999999)" d="M2.7386127875258306,0A2.7386127875258306,2.7386127875258306,0,1,1,-2.7386127875258306,0A2.7386127875258306,2.7386127875258306,0,1,1,2.7386127875258306,0" stroke="#4c78a8" stroke-width="2" opacity="0.7"/><path transform="translate(185,117.375)" d="M2.7386127875258306,0A2.7386127875258306,2.7386127875258306,0,1,1,-2.7386127875258306,0A2.7386127875258306,2.7386127875258306,0,1,1,2.7386127875258306,0" stroke="#4c78a8" stroke-width="2" opacity="0.7"/><path transform="translate(225,90.375)" d="M2.7386127875258306,0A2.7386127875258306,2.7386127875258306,0,1,1,-2.7386127875258306,0A2.7386127875258306,2.7386127875258306,0,1,1,2.7386127875258306,0" stroke="#4c78a8" stroke-width="2" opacity="0.7"/><path transform="translate(165,102.75000000000001)" d="M2.7386127875258306,0A2.7386127875258306,2.7386127875258306,0,1,1,-2.7386127875258306,0A2.7386127875258306,2.7386127875258306,0,1,1,2.7386127875258306,0" stroke="#4c78a8" stroke-width="2" opacity="0.7"/><path transform="translate(165,117)" d="M2.7386127875258306,0A2.7386127875258306,2.7386127875258306,0,1,1,-2.7386127875258306,0A2.7386127875258306,2.7386127875258306,0,1,1,2.7386127875258306,0" stroke="#4c78a8" stroke-width="2" opacity="0.7"/><path transform="translate(455,273.75)" d="M2.7386127875258306,0A2.7386127875258306,2.7386127875258306,0,1,1,-2.7386127875258306,0A2.7386127875258306,2.7386127875258306,0,1,1,2.7386127875258306,0" stroke="#4c78a8" stroke-width="2" opacity="0.7"/><path transform="translate(355,136.125)" d="M2.7386127875258306,0A2.7386127875258306,2.7386127875258306,0,1,1,-2.7386127875258306,0A2.7386127875258306,2.7386127875258306,0,1,1,2.7386127875258306,0" stroke="#4c78a8" stroke-width="2" opacity="0.7"/><path transform="translate(145,120.375)" d="M2.7386127875258306,0A2.7386127875258306,2.7386127875258306,0,1,1,-2.7386127875258306,0A2.7386127875258306,2.7386127875258306,0,1,1,2.7386127875258306,0" stroke="#4c78a8" stroke-width="2" opacity="0.7"/><path transform="translate(145,146.25)" d="M2.7386127875258306,0A2.7386127875258306,2.7386127875258306,0,1,1,-2.7386127875258306,0A2.7386127875258306,2.7386127875258306,0,1,1,2.7386127875258306,0" stroke="#4c78a8" stroke-width="2" opacity="0.7"/><path transform="translate(65,144)" d="M2.7386127875258306,0A2.7386127875258306,2.7386127875258306,0,1,1,-2.7386127875258306,0A2.7386127875258306,2.7386127875258306,0,1,1,2.7386127875258306,0" stroke="#4c78a8" stroke-width="2" opacity="0.7"/><path transform="translate(95,131.99999999999997)" d="M2.7386127875258306,0A2.7386127875258306,2.7386127875258306,0,1,1,-2.7386127875258306,0A2.7386127875258306,2.7386127875258306,0,1,1,2.7386127875258306,0" stroke="#4c78a8" stroke-width="2" opacity="0.7"/><path transform="translate(185,128.625)" d="M2.7386127875258306,0A2.7386127875258306,2.7386127875258306,0,1,1,-2.7386127875258306,0A2.7386127875258306,2.7386127875258306,0,1,1,2.7386127875258306,0" stroke="#4c78a8" stroke-width="2" opacity="0.7"/><path transform="translate(185,52.500000000000014)" d="M2.7386127875258306,0A2.7386127875258306,2.7386127875258306,0,1,1,-2.7386127875258306,0A2.7386127875258306,2.7386127875258306,0,1,1,2.7386127875258306,0" stroke="#4c78a8" stroke-width="2" opacity="0.7"/><path transform="translate(195,131.625)" d="M2.7386127875258306,0A2.7386127875258306,2.7386127875258306,0,1,1,-2.7386127875258306,0A2.7386127875258306,2.7386127875258306,0,1,1,2.7386127875258306,0" stroke="#4c78a8" stroke-width="2" opacity="0.7"/><path transform="translate(145,93.75)" d="M2.7386127875258306,0A2.7386127875258306,2.7386127875258306,0,1,1,-2.7386127875258306,0A2.7386127875258306,2.7386127875258306,0,1,1,2.7386127875258306,0" stroke="#4c78a8" stroke-width="2" opacity="0.7"/><path transform="translate(115,102.37500000000001)" d="M2.7386127875258306,0A2.7386127875258306,2.7386127875258306,0,1,1,-2.7386127875258306,0A2.7386127875258306,2.7386127875258306,0,1,1,2.7386127875258306,0" stroke="#4c78a8" stroke-width="2" opacity="0.7"/><path transform="translate(355,142.125)" d="M2.7386127875258306,0A2.7386127875258306,2.7386127875258306,0,1,1,-2.7386127875258306,0A2.7386127875258306,2.7386127875258306,0,1,1,2.7386127875258306,0" stroke="#4c78a8" stroke-width="2" opacity="0.7"/><path transform="translate(245,117.375)" d="M2.7386127875258306,0A2.7386127875258306,2.7386127875258306,0,1,1,-2.7386127875258306,0A2.7386127875258306,2.7386127875258306,0,1,1,2.7386127875258306,0" stroke="#4c78a8" stroke-width="2" opacity="0.7"/><path transform="translate(285,85.875)" d="M2.7386127875258306,0A2.7386127875258306,2.7386127875258306,0,1,1,-2.7386127875258306,0A2.7386127875258306,2.7386127875258306,0,1,1,2.7386127875258306,0" stroke="#4c78a8" stroke-width="2" opacity="0.7"/><path transform="translate(315,75)" d="M2.7386127875258306,0A2.7386127875258306,2.7386127875258306,0,1,1,-2.7386127875258306,0A2.7386127875258306,2.7386127875258306,0,1,1,2.7386127875258306,0" stroke="#4c78a8" stroke-width="2" opacity="0.7"/><path transform="translate(365,91.50000000000001)" d="M2.7386127875258306,0A2.7386127875258306,2.7386127875258306,0,1,1,-2.7386127875258306,0A2.7386127875258306,2.7386127875258306,0,1,1,2.7386127875258306,0" stroke="#4c78a8" stroke-width="2" opacity="0.7"/><path transform="translate(185,117.74999999999999)" d="M2.7386127875258306,0A2.7386127875258306,2.7386127875258306,0,1,1,-2.7386127875258306,0A2.7386127875258306,2.7386127875258306,0,1,1,2.7386127875258306,0" stroke="#4c78a8" stroke-width="2" opacity="0.7"/><path transform="translate(145,117.74999999999999)" d="M2.7386127875258306,0A2.7386127875258306,2.7386127875258306,0,1,1,-2.7386127875258306,0A2.7386127875258306,2.7386127875258306,0,1,1,2.7386127875258306,0" stroke="#4c78a8" stroke-width="2" opacity="0.7"/><path transform="translate(145,131.25)" d="M2.7386127875258306,0A2.7386127875258306,2.7386127875258306,0,1,1,-2.7386127875258306,0A2.7386127875258306,2.7386127875258306,0,1,1,2.7386127875258306,0" stroke="#4c78a8" stroke-width="2" opacity="0.7"/><path transform="translate(345,148.125)" d="M2.7386127875258306,0A2.7386127875258306,2.7386127875258306,0,1,1,-2.7386127875258306,0A2.7386127875258306,2.7386127875258306,0,1,1,2.7386127875258306,0" stroke="#4c78a8" stroke-width="2" opacity="0.7"/><path transform="translate(195,119.24999999999999)" d="M2.7386127875258306,0A2.7386127875258306,2.7386127875258306,0,1,1,-2.7386127875258306,0A2.7386127875258306,2.7386127875258306,0,1,1,2.7386127875258306,0" stroke="#4c78a8" stroke-width="2" opacity="0.7"/><path transform="translate(105,89.62499999999999)" d="M2.7386127875258306,0A2.7386127875258306,2.7386127875258306,0,1,1,-2.7386127875258306,0A2.7386127875258306,2.7386127875258306,0,1,1,2.7386127875258306,0" stroke="#4c78a8" stroke-width="2" opacity="0.7"/><path transform="translate(305,124.875)" d="M2.7386127875258306,0A2.7386127875258306,2.7386127875258306,0,1,1,-2.7386127875258306,0A2.7386127875258306,2.7386127875258306,0,1,1,2.7386127875258306,0" stroke="#4c78a8" stroke-width="2" opacity="0.7"/><path transform="translate(455,268.875)" d="M2.7386127875258306,0A2.7386127875258306,2.7386127875258306,0,1,1,-2.7386127875258306,0A2.7386127875258306,2.7386127875258306,0,1,1,2.7386127875258306,0" stroke="#4c78a8" stroke-width="2" opacity="0.7"/><path transform="translate(5,171.375)" d="M2.7386127875258306,0A2.7386127875258306,2.7386127875258306,0,1,1,-2.7386127875258306,0A2.7386127875258306,2.7386127875258306,0,1,1,2.7386127875258306,0" stroke="#4c78a8" stroke-width="2" opacity="0.7"/><path transform="translate(365,146.25)" d="M2.7386127875258306,0A2.7386127875258306,2.7386127875258306,0,1,1,-2.7386127875258306,0A2.7386127875258306,2.7386127875258306,0,1,1,2.7386127875258306,0" stroke="#4c78a8" stroke-width="2" opacity="0.7"/><path transform="translate(465,172.5)" d="M2.7386127875258306,0A2.7386127875258306,2.7386127875258306,0,1,1,-2.7386127875258306,0A2.7386127875258306,2.7386127875258306,0,1,1,2.7386127875258306,0" stroke="#4c78a8" stroke-width="2" opacity="0.7"/><path transform="translate(215,127.12499999999999)" d="M2.7386127875258306,0A2.7386127875258306,2.7386127875258306,0,1,1,-2.7386127875258306,0A2.7386127875258306,2.7386127875258306,0,1,1,2.7386127875258306,0" stroke="#4c78a8" stroke-width="2" opacity="0.7"/><path transform="translate(175,79.5)" d="M2.7386127875258306,0A2.7386127875258306,2.7386127875258306,0,1,1,-2.7386127875258306,0A2.7386127875258306,2.7386127875258306,0,1,1,2.7386127875258306,0" stroke="#4c78a8" stroke-width="2" opacity="0.7"/><path transform="translate(155,129.75)" d="M2.7386127875258306,0A2.7386127875258306,2.7386127875258306,0,1,1,-2.7386127875258306,0A2.7386127875258306,2.7386127875258306,0,1,1,2.7386127875258306,0" stroke="#4c78a8" stroke-width="2" opacity="0.7"/><path transform="translate(45,78.74999999999999)" d="M2.7386127875258306,0A2.7386127875258306,2.7386127875258306,0,1,1,-2.7386127875258306,0A2.7386127875258306,2.7386127875258306,0,1,1,2.7386127875258306,0" stroke="#4c78a8" stroke-width="2" opacity="0.7"/><path transform="translate(45,148.875)" d="M2.7386127875258306,0A2.7386127875258306,2.7386127875258306,0,1,1,-2.7386127875258306,0A2.7386127875258306,2.7386127875258306,0,1,1,2.7386127875258306,0" stroke="#4c78a8" stroke-width="2" opacity="0.7"/><path transform="translate(55,133.875)" d="M2.7386127875258306,0A2.7386127875258306,2.7386127875258306,0,1,1,-2.7386127875258306,0A2.7386127875258306,2.7386127875258306,0,1,1,2.7386127875258306,0" stroke="#4c78a8" stroke-width="2" opacity="0.7"/><path transform="translate(225,62.25000000000001)" d="M2.7386127875258306,0A2.7386127875258306,2.7386127875258306,0,1,1,-2.7386127875258306,0A2.7386127875258306,2.7386127875258306,0,1,1,2.7386127875258306,0" stroke="#4c78a8" stroke-width="2" opacity="0.7"/><path transform="translate(185,127.50000000000001)" d="M2.7386127875258306,0A2.7386127875258306,2.7386127875258306,0,1,1,-2.7386127875258306,0A2.7386127875258306,2.7386127875258306,0,1,1,2.7386127875258306,0" stroke="#4c78a8" stroke-width="2" opacity="0.7"/><path transform="translate(385,129.375)" d="M2.7386127875258306,0A2.7386127875258306,2.7386127875258306,0,1,1,-2.7386127875258306,0A2.7386127875258306,2.7386127875258306,0,1,1,2.7386127875258306,0" stroke="#4c78a8" stroke-width="2" opacity="0.7"/><path transform="translate(305,91.50000000000001)" d="M2.7386127875258306,0A2.7386127875258306,2.7386127875258306,0,1,1,-2.7386127875258306,0A2.7386127875258306,2.7386127875258306,0,1,1,2.7386127875258306,0" stroke="#4c78a8" stroke-width="2" opacity="0.7"/><path transform="translate(65,126.375)" d="M2.7386127875258306,0A2.7386127875258306,2.7386127875258306,0,1,1,-2.7386127875258306,0A2.7386127875258306,2.7386127875258306,0,1,1,2.7386127875258306,0" stroke="#4c78a8" stroke-width="2" opacity="0.7"/><path transform="translate(235,94.87500000000001)" d="M2.7386127875258306,0A2.7386127875258306,2.7386127875258306,0,1,1,-2.7386127875258306,0A2.7386127875258306,2.7386127875258306,0,1,1,2.7386127875258306,0" stroke="#4c78a8" stroke-width="2" opacity="0.7"/><path transform="translate(235,103.125)" d="M2.7386127875258306,0A2.7386127875258306,2.7386127875258306,0,1,1,-2.7386127875258306,0A2.7386127875258306,2.7386127875258306,0,1,1,2.7386127875258306,0" stroke="#4c78a8" stroke-width="2" opacity="0.7"/><path transform="translate(395,56.62499999999999)" d="M2.7386127875258306,0A2.7386127875258306,2.7386127875258306,0,1,1,-2.7386127875258306,0A2.7386127875258306,2.7386127875258306,0,1,1,2.7386127875258306,0" stroke="#4c78a8" stroke-width="2" opacity="0.7"/><path transform="translate(295,70.87499999999999)" d="M2.7386127875258306,0A2.7386127875258306,2.7386127875258306,0,1,1,-2.7386127875258306,0A2.7386127875258306,2.7386127875258306,0,1,1,2.7386127875258306,0" stroke="#4c78a8" stroke-width="2" opacity="0.7"/><path transform="translate(135,129.375)" d="M2.7386127875258306,0A2.7386127875258306,2.7386127875258306,0,1,1,-2.7386127875258306,0A2.7386127875258306,2.7386127875258306,0,1,1,2.7386127875258306,0" stroke="#4c78a8" stroke-width="2" opacity="0.7"/><path transform="translate(315,134.25)" d="M2.7386127875258306,0A2.7386127875258306,2.7386127875258306,0,1,1,-2.7386127875258306,0A2.7386127875258306,2.7386127875258306,0,1,1,2.7386127875258306,0" stroke="#4c78a8" stroke-width="2" opacity="0.7"/><path transform="translate(495,258.375)" d="M2.7386127875258306,0A2.7386127875258306,2.7386127875258306,0,1,1,-2.7386127875258306,0A2.7386127875258306,2.7386127875258306,0,1,1,2.7386127875258306,0" stroke="#4c78a8" stroke-width="2" opacity="0.7"/><path transform="translate(385,116.24999999999999)" d="M2.7386127875258306,0A2.7386127875258306,2.7386127875258306,0,1,1,-2.7386127875258306,0A2.7386127875258306,2.7386127875258306,0,1,1,2.7386127875258306,0" stroke="#4c78a8" stroke-width="2" opacity="0.7"/><path transform="translate(205,84.375)" d="M2.7386127875258306,0A2.7386127875258306,2.7386127875258306,0,1,1,-2.7386127875258306,0A2.7386127875258306,2.7386127875258306,0,1,1,2.7386127875258306,0" stroke="#4c78a8" stroke-width="2" opacity="0.7"/><path transform="translate(205,98.25)" d="M2.7386127875258306,0A2.7386127875258306,2.7386127875258306,0,1,1,-2.7386127875258306,0A2.7386127875258306,2.7386127875258306,0,1,1,2.7386127875258306,0" stroke="#4c78a8" stroke-width="2" opacity="0.7"/><path transform="translate(245,114.375)" d="M2.7386127875258306,0A2.7386127875258306,2.7386127875258306,0,1,1,-2.7386127875258306,0A2.7386127875258306,2.7386127875258306,0,1,1,2.7386127875258306,0" stroke="#4c78a8" stroke-width="2" opacity="0.7"/><path transform="translate(415,162.375)" d="M2.7386127875258306,0A2.7386127875258306,2.7386127875258306,0,1,1,-2.7386127875258306,0A2.7386127875258306,2.7386127875258306,0,1,1,2.7386127875258306,0" stroke="#4c78a8" stroke-width="2" opacity="0.7"/><path transform="translate(495,267.375)" d="M2.7386127875258306,0A2.7386127875258306,2.7386127875258306,0,1,1,-2.7386127875258306,0A2.7386127875258306,2.7386127875258306,0,1,1,2.7386127875258306,0" stroke="#4c78a8" stroke-width="2" opacity="0.7"/><path transform="translate(495,255.37500000000003)" d="M2.7386127875258306,0A2.7386127875258306,2.7386127875258306,0,1,1,-2.7386127875258306,0A2.7386127875258306,2.7386127875258306,0,1,1,2.7386127875258306,0" stroke="#4c78a8" stroke-width="2" opacity="0.7"/><path transform="translate(485,251.625)" d="M2.7386127875258306,0A2.7386127875258306,2.7386127875258306,0,1,1,-2.7386127875258306,0A2.7386127875258306,2.7386127875258306,0,1,1,2.7386127875258306,0" stroke="#4c78a8" stroke-width="2" opacity="0.7"/><path transform="translate(485,262.125)" d="M2.7386127875258306,0A2.7386127875258306,2.7386127875258306,0,1,1,-2.7386127875258306,0A2.7386127875258306,2.7386127875258306,0,1,1,2.7386127875258306,0" stroke="#4c78a8" stroke-width="2" opacity="0.7"/><path transform="translate(315,132.375)" d="M2.7386127875258306,0A2.7386127875258306,2.7386127875258306,0,1,1,-2.7386127875258306,0A2.7386127875258306,2.7386127875258306,0,1,1,2.7386127875258306,0" stroke="#4c78a8" stroke-width="2" opacity="0.7"/><path transform="translate(175,127.50000000000001)" d="M2.7386127875258306,0A2.7386127875258306,2.7386127875258306,0,1,1,-2.7386127875258306,0A2.7386127875258306,2.7386127875258306,0,1,1,2.7386127875258306,0" stroke="#4c78a8" stroke-width="2" opacity="0.7"/><path transform="translate(375,137.625)" d="M2.7386127875258306,0A2.7386127875258306,2.7386127875258306,0,1,1,-2.7386127875258306,0A2.7386127875258306,2.7386127875258306,0,1,1,2.7386127875258306,0" stroke="#4c78a8" stroke-width="2" opacity="0.7"/><path transform="translate(285,113.62500000000001)" d="M2.7386127875258306,0A2.7386127875258306,2.7386127875258306,0,1,1,-2.7386127875258306,0A2.7386127875258306,2.7386127875258306,0,1,1,2.7386127875258306,0" stroke="#4c78a8" stroke-width="2" opacity="0.7"/><path transform="translate(285,121.875)" d="M2.7386127875258306,0A2.7386127875258306,2.7386127875258306,0,1,1,-2.7386127875258306,0A2.7386127875258306,2.7386127875258306,0,1,1,2.7386127875258306,0" stroke="#4c78a8" stroke-width="2" opacity="0.7"/><path transform="translate(285,86.62499999999999)" d="M2.7386127875258306,0A2.7386127875258306,2.7386127875258306,0,1,1,-2.7386127875258306,0A2.7386127875258306,2.7386127875258306,0,1,1,2.7386127875258306,0" stroke="#4c78a8" stroke-width="2" opacity="0.7"/><path transform="translate(455,264.375)" d="M2.7386127875258306,0A2.7386127875258306,2.7386127875258306,0,1,1,-2.7386127875258306,0A2.7386127875258306,2.7386127875258306,0,1,1,2.7386127875258306,0" stroke="#4c78a8" stroke-width="2" opacity="0.7"/><path transform="translate(95,126.00000000000001)" d="M2.7386127875258306,0A2.7386127875258306,2.7386127875258306,0,1,1,-2.7386127875258306,0A2.7386127875258306,2.7386127875258306,0,1,1,2.7386127875258306,0" stroke="#4c78a8" stroke-width="2" opacity="0.7"/><path transform="translate(485,252.37500000000003)" d="M2.7386127875258306,0A2.7386127875258306,2.7386127875258306,0,1,1,-2.7386127875258306,0A2.7386127875258306,2.7386127875258306,0,1,1,2.7386127875258306,0" stroke="#4c78a8" stroke-width="2" opacity="0.7"/><path transform="translate(405,156.75)" d="M2.7386127875258306,0A2.7386127875258306,2.7386127875258306,0,1,1,-2.7386127875258306,0A2.7386127875258306,2.7386127875258306,0,1,1,2.7386127875258306,0" stroke="#4c78a8" stroke-width="2" opacity="0.7"/><path transform="translate(345,127.50000000000001)" d="M2.7386127875258306,0A2.7386127875258306,2.7386127875258306,0,1,1,-2.7386127875258306,0A2.7386127875258306,2.7386127875258306,0,1,1,2.7386127875258306,0" stroke="#4c78a8" stroke-width="2" opacity="0.7"/><path transform="translate(345,93.37500000000001)" d="M2.7386127875258306,0A2.7386127875258306,2.7386127875258306,0,1,1,-2.7386127875258306,0A2.7386127875258306,2.7386127875258306,0,1,1,2.7386127875258306,0" stroke="#4c78a8" stroke-width="2" opacity="0.7"/><path transform="translate(345,142.5)" d="M2.7386127875258306,0A2.7386127875258306,2.7386127875258306,0,1,1,-2.7386127875258306,0A2.7386127875258306,2.7386127875258306,0,1,1,2.7386127875258306,0" stroke="#4c78a8" stroke-width="2" opacity="0.7"/><path transform="translate(345,149.25000000000003)" d="M2.7386127875258306,0A2.7386127875258306,2.7386127875258306,0,1,1,-2.7386127875258306,0A2.7386127875258306,2.7386127875258306,0,1,1,2.7386127875258306,0" stroke="#4c78a8" stroke-width="2" opacity="0.7"/><path transform="translate(395,144)" d="M2.7386127875258306,0A2.7386127875258306,2.7386127875258306,0,1,1,-2.7386127875258306,0A2.7386127875258306,2.7386127875258306,0,1,1,2.7386127875258306,0" stroke="#4c78a8" stroke-width="2" opacity="0.7"/><path transform="translate(315,130.50000000000003)" d="M2.7386127875258306,0A2.7386127875258306,2.7386127875258306,0,1,1,-2.7386127875258306,0A2.7386127875258306,2.7386127875258306,0,1,1,2.7386127875258306,0" stroke="#4c78a8" stroke-width="2" opacity="0.7"/><path transform="translate(105,127.875)" d="M2.7386127875258306,0A2.7386127875258306,2.7386127875258306,0,1,1,-2.7386127875258306,0A2.7386127875258306,2.7386127875258306,0,1,1,2.7386127875258306,0" stroke="#4c78a8" stroke-width="2" opacity="0.7"/><path transform="translate(155,50.624999999999986)" d="M2.7386127875258306,0A2.7386127875258306,2.7386127875258306,0,1,1,-2.7386127875258306,0A2.7386127875258306,2.7386127875258306,0,1,1,2.7386127875258306,0" stroke="#4c78a8" stroke-width="2" opacity="0.7"/><path transform="translate(285,130.125)" d="M2.7386127875258306,0A2.7386127875258306,2.7386127875258306,0,1,1,-2.7386127875258306,0A2.7386127875258306,2.7386127875258306,0,1,1,2.7386127875258306,0" stroke="#4c78a8" stroke-width="2" opacity="0.7"/><path transform="translate(485,264)" d="M2.7386127875258306,0A2.7386127875258306,2.7386127875258306,0,1,1,-2.7386127875258306,0A2.7386127875258306,2.7386127875258306,0,1,1,2.7386127875258306,0" stroke="#4c78a8" stroke-width="2" opacity="0.7"/><path transform="translate(275,101.25)" d="M2.7386127875258306,0A2.7386127875258306,2.7386127875258306,0,1,1,-2.7386127875258306,0A2.7386127875258306,2.7386127875258306,0,1,1,2.7386127875258306,0" stroke="#4c78a8" stroke-width="2" opacity="0.7"/><path transform="translate(385,134.25)" d="M2.7386127875258306,0A2.7386127875258306,2.7386127875258306,0,1,1,-2.7386127875258306,0A2.7386127875258306,2.7386127875258306,0,1,1,2.7386127875258306,0" stroke="#4c78a8" stroke-width="2" opacity="0.7"/><path transform="translate(485,261.375)" d="M2.7386127875258306,0A2.7386127875258306,2.7386127875258306,0,1,1,-2.7386127875258306,0A2.7386127875258306,2.7386127875258306,0,1,1,2.7386127875258306,0" stroke="#4c78a8" stroke-width="2" opacity="0.7"/><path transform="translate(285,89.25)" d="M2.7386127875258306,0A2.7386127875258306,2.7386127875258306,0,1,1,-2.7386127875258306,0A2.7386127875258306,2.7386127875258306,0,1,1,2.7386127875258306,0" stroke="#4c78a8" stroke-width="2" opacity="0.7"/><path transform="translate(345,111.37499999999999)" d="M2.7386127875258306,0A2.7386127875258306,2.7386127875258306,0,1,1,-2.7386127875258306,0A2.7386127875258306,2.7386127875258306,0,1,1,2.7386127875258306,0" stroke="#4c78a8" stroke-width="2" opacity="0.7"/><path transform="translate(375,147.75000000000003)" d="M2.7386127875258306,0A2.7386127875258306,2.7386127875258306,0,1,1,-2.7386127875258306,0A2.7386127875258306,2.7386127875258306,0,1,1,2.7386127875258306,0" stroke="#4c78a8" stroke-width="2" opacity="0.7"/><path transform="translate(245,73.125)" d="M2.7386127875258306,0A2.7386127875258306,2.7386127875258306,0,1,1,-2.7386127875258306,0A2.7386127875258306,2.7386127875258306,0,1,1,2.7386127875258306,0" stroke="#4c78a8" stroke-width="2" opacity="0.7"/><path transform="translate(245,121.12500000000001)" d="M2.7386127875258306,0A2.7386127875258306,2.7386127875258306,0,1,1,-2.7386127875258306,0A2.7386127875258306,2.7386127875258306,0,1,1,2.7386127875258306,0" stroke="#4c78a8" stroke-width="2" opacity="0.7"/><path transform="translate(85,113.24999999999999)" d="M2.7386127875258306,0A2.7386127875258306,2.7386127875258306,0,1,1,-2.7386127875258306,0A2.7386127875258306,2.7386127875258306,0,1,1,2.7386127875258306,0" stroke="#4c78a8" stroke-width="2" opacity="0.7"/><path transform="translate(335,129.375)" d="M2.7386127875258306,0A2.7386127875258306,2.7386127875258306,0,1,1,-2.7386127875258306,0A2.7386127875258306,2.7386127875258306,0,1,1,2.7386127875258306,0" stroke="#4c78a8" stroke-width="2" opacity="0.7"/><path transform="translate(405,148.5)" d="M2.7386127875258306,0A2.7386127875258306,2.7386127875258306,0,1,1,-2.7386127875258306,0A2.7386127875258306,2.7386127875258306,0,1,1,2.7386127875258306,0" stroke="#4c78a8" stroke-width="2" opacity="0.7"/><path transform="translate(405,274.125)" d="M2.7386127875258306,0A2.7386127875258306,2.7386127875258306,0,1,1,-2.7386127875258306,0A2.7386127875258306,2.7386127875258306,0,1,1,2.7386127875258306,0" stroke="#4c78a8" stroke-width="2" opacity="0.7"/><path transform="translate(205,93.00000000000001)" d="M2.7386127875258306,0A2.7386127875258306,2.7386127875258306,0,1,1,-2.7386127875258306,0A2.7386127875258306,2.7386127875258306,0,1,1,2.7386127875258306,0" stroke="#4c78a8" stroke-width="2" opacity="0.7"/><path transform="translate(435,268.125)" d="M2.7386127875258306,0A2.7386127875258306,2.7386127875258306,0,1,1,-2.7386127875258306,0A2.7386127875258306,2.7386127875258306,0,1,1,2.7386127875258306,0" stroke="#4c78a8" stroke-width="2" opacity="0.7"/><path transform="translate(425,280.875)" d="M2.7386127875258306,0A2.7386127875258306,2.7386127875258306,0,1,1,-2.7386127875258306,0A2.7386127875258306,2.7386127875258306,0,1,1,2.7386127875258306,0" stroke="#4c78a8" stroke-width="2" opacity="0.7"/><path transform="translate(235,102.37500000000001)" d="M2.7386127875258306,0A2.7386127875258306,2.7386127875258306,0,1,1,-2.7386127875258306,0A2.7386127875258306,2.7386127875258306,0,1,1,2.7386127875258306,0" stroke="#4c78a8" stroke-width="2" opacity="0.7"/><path transform="translate(115,120)" d="M2.7386127875258306,0A2.7386127875258306,2.7386127875258306,0,1,1,-2.7386127875258306,0A2.7386127875258306,2.7386127875258306,0,1,1,2.7386127875258306,0" stroke="#4c78a8" stroke-width="2" opacity="0.7"/><path transform="translate(285,125.62499999999999)" d="M2.7386127875258306,0A2.7386127875258306,2.7386127875258306,0,1,1,-2.7386127875258306,0A2.7386127875258306,2.7386127875258306,0,1,1,2.7386127875258306,0" stroke="#4c78a8" stroke-width="2" opacity="0.7"/><path transform="translate(275,114.375)" d="M2.7386127875258306,0A2.7386127875258306,2.7386127875258306,0,1,1,-2.7386127875258306,0A2.7386127875258306,2.7386127875258306,0,1,1,2.7386127875258306,0" stroke="#4c78a8" stroke-width="2" opacity="0.7"/><path transform="translate(345,132.75)" d="M2.7386127875258306,0A2.7386127875258306,2.7386127875258306,0,1,1,-2.7386127875258306,0A2.7386127875258306,2.7386127875258306,0,1,1,2.7386127875258306,0" stroke="#4c78a8" stroke-width="2" opacity="0.7"/><path transform="translate(395,285)" d="M2.7386127875258306,0A2.7386127875258306,2.7386127875258306,0,1,1,-2.7386127875258306,0A2.7386127875258306,2.7386127875258306,0,1,1,2.7386127875258306,0" stroke="#4c78a8" stroke-width="2" opacity="0.7"/><path transform="translate(245,97.87500000000001)" d="M2.7386127875258306,0A2.7386127875258306,2.7386127875258306,0,1,1,-2.7386127875258306,0A2.7386127875258306,2.7386127875258306,0,1,1,2.7386127875258306,0" stroke="#4c78a8" stroke-width="2" opacity="0.7"/><path transform="translate(245,95.625)" d="M2.7386127875258306,0A2.7386127875258306,2.7386127875258306,0,1,1,-2.7386127875258306,0A2.7386127875258306,2.7386127875258306,0,1,1,2.7386127875258306,0" stroke="#4c78a8" stroke-width="2" opacity="0.7"/><path transform="translate(495,258.375)" d="M2.7386127875258306,0A2.7386127875258306,2.7386127875258306,0,1,1,-2.7386127875258306,0A2.7386127875258306,2.7386127875258306,0,1,1,2.7386127875258306,0" stroke="#4c78a8" stroke-width="2" opacity="0.7"/><path transform="translate(305,90.375)" d="M2.7386127875258306,0A2.7386127875258306,2.7386127875258306,0,1,1,-2.7386127875258306,0A2.7386127875258306,2.7386127875258306,0,1,1,2.7386127875258306,0" stroke="#4c78a8" stroke-width="2" opacity="0.7"/><path transform="translate(495,262.875)" d="M2.7386127875258306,0A2.7386127875258306,2.7386127875258306,0,1,1,-2.7386127875258306,0A2.7386127875258306,2.7386127875258306,0,1,1,2.7386127875258306,0" stroke="#4c78a8" stroke-width="2" opacity="0.7"/><path transform="translate(375,145.875)" d="M2.7386127875258306,0A2.7386127875258306,2.7386127875258306,0,1,1,-2.7386127875258306,0A2.7386127875258306,2.7386127875258306,0,1,1,2.7386127875258306,0" stroke="#4c78a8" stroke-width="2" opacity="0.7"/><path transform="translate(125,125.25)" d="M2.7386127875258306,0A2.7386127875258306,2.7386127875258306,0,1,1,-2.7386127875258306,0A2.7386127875258306,2.7386127875258306,0,1,1,2.7386127875258306,0" stroke="#4c78a8" stroke-width="2" opacity="0.7"/><path transform="translate(275,93.00000000000001)" d="M2.7386127875258306,0A2.7386127875258306,2.7386127875258306,0,1,1,-2.7386127875258306,0A2.7386127875258306,2.7386127875258306,0,1,1,2.7386127875258306,0" stroke="#4c78a8" stroke-width="2" opacity="0.7"/><path transform="translate(335,133.49999999999997)" d="M2.7386127875258306,0A2.7386127875258306,2.7386127875258306,0,1,1,-2.7386127875258306,0A2.7386127875258306,2.7386127875258306,0,1,1,2.7386127875258306,0" stroke="#4c78a8" stroke-width="2" opacity="0.7"/><path transform="translate(165,113.62500000000001)" d="M2.7386127875258306,0A2.7386127875258306,2.7386127875258306,0,1,1,-2.7386127875258306,0A2.7386127875258306,2.7386127875258306,0,1,1,2.7386127875258306,0" stroke="#4c78a8" stroke-width="2" opacity="0.7"/><path transform="translate(385,141.37499999999997)" d="M2.7386127875258306,0A2.7386127875258306,2.7386127875258306,0,1,1,-2.7386127875258306,0A2.7386127875258306,2.7386127875258306,0,1,1,2.7386127875258306,0" stroke="#4c78a8" stroke-width="2" opacity="0.7"/><path transform="translate(95,26.99999999999999)" d="M2.7386127875258306,0A2.7386127875258306,2.7386127875258306,0,1,1,-2.7386127875258306,0A2.7386127875258306,2.7386127875258306,0,1,1,2.7386127875258306,0" stroke="#4c78a8" stroke-width="2" opacity="0.7"/><path transform="translate(285,56.25)" d="M2.7386127875258306,0A2.7386127875258306,2.7386127875258306,0,1,1,-2.7386127875258306,0A2.7386127875258306,2.7386127875258306,0,1,1,2.7386127875258306,0" stroke="#4c78a8" stroke-width="2" opacity="0.7"/><path transform="translate(165,127.12499999999999)" d="M2.7386127875258306,0A2.7386127875258306,2.7386127875258306,0,1,1,-2.7386127875258306,0A2.7386127875258306,2.7386127875258306,0,1,1,2.7386127875258306,0" stroke="#4c78a8" stroke-width="2" opacity="0.7"/><path transform="translate(165,106.125)" d="M2.7386127875258306,0A2.7386127875258306,2.7386127875258306,0,1,1,-2.7386127875258306,0A2.7386127875258306,2.7386127875258306,0,1,1,2.7386127875258306,0" stroke="#4c78a8" stroke-width="2" opacity="0.7"/><path transform="translate(385,155.625)" d="M2.7386127875258306,0A2.7386127875258306,2.7386127875258306,0,1,1,-2.7386127875258306,0A2.7386127875258306,2.7386127875258306,0,1,1,2.7386127875258306,0" stroke="#4c78a8" stroke-width="2" opacity="0.7"/><path transform="translate(385,279.375)" d="M2.7386127875258306,0A2.7386127875258306,2.7386127875258306,0,1,1,-2.7386127875258306,0A2.7386127875258306,2.7386127875258306,0,1,1,2.7386127875258306,0" stroke="#4c78a8" stroke-width="2" opacity="0.7"/><path transform="translate(315,71.25000000000001)" d="M2.7386127875258306,0A2.7386127875258306,2.7386127875258306,0,1,1,-2.7386127875258306,0A2.7386127875258306,2.7386127875258306,0,1,1,2.7386127875258306,0" stroke="#4c78a8" stroke-width="2" opacity="0.7"/><path transform="translate(125,131.25)" d="M2.7386127875258306,0A2.7386127875258306,2.7386127875258306,0,1,1,-2.7386127875258306,0A2.7386127875258306,2.7386127875258306,0,1,1,2.7386127875258306,0" stroke="#4c78a8" stroke-width="2" opacity="0.7"/><path transform="translate(325,136.5)" d="M2.7386127875258306,0A2.7386127875258306,2.7386127875258306,0,1,1,-2.7386127875258306,0A2.7386127875258306,2.7386127875258306,0,1,1,2.7386127875258306,0" stroke="#4c78a8" stroke-width="2" opacity="0.7"/><path transform="translate(465,259.875)" d="M2.7386127875258306,0A2.7386127875258306,2.7386127875258306,0,1,1,-2.7386127875258306,0A2.7386127875258306,2.7386127875258306,0,1,1,2.7386127875258306,0" stroke="#4c78a8" stroke-width="2" opacity="0.7"/><path transform="translate(115,85.875)" d="M2.7386127875258306,0A2.7386127875258306,2.7386127875258306,0,1,1,-2.7386127875258306,0A2.7386127875258306,2.7386127875258306,0,1,1,2.7386127875258306,0" stroke="#4c78a8" stroke-width="2" opacity="0.7"/><path transform="translate(145,92.25)" d="M2.7386127875258306,0A2.7386127875258306,2.7386127875258306,0,1,1,-2.7386127875258306,0A2.7386127875258306,2.7386127875258306,0,1,1,2.7386127875258306,0" stroke="#4c78a8" stroke-width="2" opacity="0.7"/><path transform="translate(145,142.5)" d="M2.7386127875258306,0A2.7386127875258306,2.7386127875258306,0,1,1,-2.7386127875258306,0A2.7386127875258306,2.7386127875258306,0,1,1,2.7386127875258306,0" stroke="#4c78a8" stroke-width="2" opacity="0.7"/><path transform="translate(385,155.625)" d="M2.7386127875258306,0A2.7386127875258306,2.7386127875258306,0,1,1,-2.7386127875258306,0A2.7386127875258306,2.7386127875258306,0,1,1,2.7386127875258306,0" stroke="#4c78a8" stroke-width="2" opacity="0.7"/><path transform="translate(455,266.625)" d="M2.7386127875258306,0A2.7386127875258306,2.7386127875258306,0,1,1,-2.7386127875258306,0A2.7386127875258306,2.7386127875258306,0,1,1,2.7386127875258306,0" stroke="#4c78a8" stroke-width="2" opacity="0.7"/><path transform="translate(485,248.625)" d="M2.7386127875258306,0A2.7386127875258306,2.7386127875258306,0,1,1,-2.7386127875258306,0A2.7386127875258306,2.7386127875258306,0,1,1,2.7386127875258306,0" stroke="#4c78a8" stroke-width="2" opacity="0.7"/><path transform="translate(485,252.75)" d="M2.7386127875258306,0A2.7386127875258306,2.7386127875258306,0,1,1,-2.7386127875258306,0A2.7386127875258306,2.7386127875258306,0,1,1,2.7386127875258306,0" stroke="#4c78a8" stroke-width="2" opacity="0.7"/><path transform="translate(415,131.25)" d="M2.7386127875258306,0A2.7386127875258306,2.7386127875258306,0,1,1,-2.7386127875258306,0A2.7386127875258306,2.7386127875258306,0,1,1,2.7386127875258306,0" stroke="#4c78a8" stroke-width="2" opacity="0.7"/><path transform="translate(445,264.75)" d="M2.7386127875258306,0A2.7386127875258306,2.7386127875258306,0,1,1,-2.7386127875258306,0A2.7386127875258306,2.7386127875258306,0,1,1,2.7386127875258306,0" stroke="#4c78a8" stroke-width="2" opacity="0.7"/><path transform="translate(495,260.25)" d="M2.7386127875258306,0A2.7386127875258306,2.7386127875258306,0,1,1,-2.7386127875258306,0A2.7386127875258306,2.7386127875258306,0,1,1,2.7386127875258306,0" stroke="#4c78a8" stroke-width="2" opacity="0.7"/><path transform="translate(195,131.25)" d="M2.7386127875258306,0A2.7386127875258306,2.7386127875258306,0,1,1,-2.7386127875258306,0A2.7386127875258306,2.7386127875258306,0,1,1,2.7386127875258306,0" stroke="#4c78a8" stroke-width="2" opacity="0.7"/><path transform="translate(195,88.875)" d="M2.7386127875258306,0A2.7386127875258306,2.7386127875258306,0,1,1,-2.7386127875258306,0A2.7386127875258306,2.7386127875258306,0,1,1,2.7386127875258306,0" stroke="#4c78a8" stroke-width="2" opacity="0.7"/><path transform="translate(405,158.62500000000003)" d="M2.7386127875258306,0A2.7386127875258306,2.7386127875258306,0,1,1,-2.7386127875258306,0A2.7386127875258306,2.7386127875258306,0,1,1,2.7386127875258306,0" stroke="#4c78a8" stroke-width="2" opacity="0.7"/><path transform="translate(145,121.12500000000001)" d="M2.7386127875258306,0A2.7386127875258306,2.7386127875258306,0,1,1,-2.7386127875258306,0A2.7386127875258306,2.7386127875258306,0,1,1,2.7386127875258306,0" stroke="#4c78a8" stroke-width="2" opacity="0.7"/><path transform="translate(145,150.375)" d="M2.7386127875258306,0A2.7386127875258306,2.7386127875258306,0,1,1,-2.7386127875258306,0A2.7386127875258306,2.7386127875258306,0,1,1,2.7386127875258306,0" stroke="#4c78a8" stroke-width="2" opacity="0.7"/><path transform="translate(325,114)" d="M2.7386127875258306,0A2.7386127875258306,2.7386127875258306,0,1,1,-2.7386127875258306,0A2.7386127875258306,2.7386127875258306,0,1,1,2.7386127875258306,0" stroke="#4c78a8" stroke-width="2" opacity="0.7"/><path transform="translate(235,103.49999999999999)" d="M2.7386127875258306,0A2.7386127875258306,2.7386127875258306,0,1,1,-2.7386127875258306,0A2.7386127875258306,2.7386127875258306,0,1,1,2.7386127875258306,0" stroke="#4c78a8" stroke-width="2" opacity="0.7"/></g><g class="mark-rule role-mark concat_1_layer_0_layer_1_layer_0_marks" role="graphics-symbol" aria-roledescription="rule mark container"><line transform="translate(385,259.5)" x2="0" y2="-31.125" stroke="black"/><line transform="translate(35,282)" x2="0" y2="-25.21875" stroke="black"/><line transform="translate(365,276.75)" x2="0" y2="-43.21875" stroke="black"/><line transform="translate(185,280.125)" x2="0" y2="-38.71875" stroke="black"/><line transform="translate(475,257.25)" x2="0" y2="-28.96875" stroke="black"/><line transform="translate(5,282.375)" x2="0" y2="-13.40625" stroke="black"/><line transform="translate(425,273.75)" x2="0" y2="-39.75" stroke="black"/><line transform="translate(255,286.875)" x2="0" y2="-42" stroke="black"/><line transform="translate(275,281.25)" x2="0" y2="-45.65625" stroke="black"/><line transform="translate(485,242.25)" x2="0" y2="-20.25" stroke="black"/><line transform="translate(325,282.75)" x2="0" y2="-48.65625" stroke="black"/><line transform="translate(45,284.625)" x2="0" y2="-19.125" stroke="black"/><line transform="translate(175,278.625)" x2="0" y2="-32.15625" stroke="black"/><line transform="translate(215,291.375)" x2="0" y2="-52.5" stroke="black"/><line transform="translate(305,281.25)" x2="0" y2="-46.96874999999997" stroke="black"/><line transform="translate(495,249.375)" x2="0" y2="-23.25" stroke="black"/><line transform="translate(15,275.25)" x2="0" y2="-24" stroke="black"/><line transform="translate(355,267.75)" x2="0" y2="-42.75" stroke="black"/><line transform="translate(445,259.125)" x2="0" y2="-30.75" stroke="black"/><line transform="translate(25,286.875)" x2="0" y2="-15.65625" stroke="black"/><line transform="translate(105,290.25)" x2="0" y2="-38.625" stroke="black"/><line transform="translate(245,286.875)" x2="0" y2="-48.75" stroke="black"/><line transform="translate(335,276.75)" x2="0" y2="-43.59375" stroke="black"/><line transform="translate(405,259.5)" x2="0" y2="-30.75" stroke="black"/><line transform="translate(395,272.625)" x2="0" y2="-40.21875" stroke="black"/><line transform="translate(85,294.375)" x2="0" y2="-38.625" stroke="black"/><line transform="translate(135,285.75)" x2="0" y2="-38.90625000000003" stroke="black"/><line transform="translate(195,282)" x2="0" y2="-37.50000000000003" stroke="black"/><line transform="translate(435,261)" x2="0" y2="-30.1875" stroke="black"/><line transform="translate(345,271.5)" x2="0" y2="-39.37500000000003" stroke="black"/><line transform="translate(55,285.375)" x2="0" y2="-22.59375" stroke="black"/><line transform="translate(145,286.125)" x2="0" y2="-42.5625" stroke="black"/><line transform="translate(205,289.125)" x2="0" y2="-51.65625000000003" stroke="black"/><line transform="translate(295,283.5)" x2="0" y2="-53.25" stroke="black"/><line transform="translate(235,286.125)" x2="0" y2="-44.62500000000003" stroke="black"/><line transform="translate(225,291)" x2="0" y2="-51.84375000000003" stroke="black"/><line transform="translate(165,285)" x2="0" y2="-38.81250000000003" stroke="black"/><line transform="translate(455,261.375)" x2="0" y2="-32.625" stroke="black"/><line transform="translate(285,278.625)" x2="0" y2="-45.75" stroke="black"/><line transform="translate(315,265.875)" x2="0" y2="-36" stroke="black"/><line transform="translate(265,287.25)" x2="0" y2="-47.25" stroke="black"/><line transform="translate(125,281.625)" x2="0" y2="-33" stroke="black"/><line transform="translate(465,255.75)" x2="0" y2="-28.125" stroke="black"/><line transform="translate(155,287.25)" x2="0" y2="-34.87499999999997" stroke="black"/><line transform="translate(415,264.75)" x2="0" y2="-34.6875" stroke="black"/><line transform="translate(65,285.75)" x2="0" y2="-16.6875" stroke="black"/><line transform="translate(95,288)" x2="0" y2="-37.875" stroke="black"/><line transform="translate(115,284.25)" x2="0" y2="-29.25" stroke="black"/><line transform="translate(75,285.375)" x2="0" y2="-27" stroke="black"/><line transform="translate(375,273)" x2="0" y2="-40.5" stroke="black"/></g><g class="mark-rule role-mark concat_1_layer_0_layer_1_layer_1_marks" role="graphics-symbol" aria-roledescription="rule mark container"><line transform="translate(385,199.875)" x2="0" y2="-41.24999999999997" stroke="black"/><line transform="translate(35,224.90625000000003)" x2="0" y2="-35.53125000000003" stroke="black"/><line transform="translate(365,199.5)" x2="0" y2="-48.75000000000003" stroke="black"/><line transform="translate(185,201.46875000000003)" x2="0" y2="-58.59375000000006" stroke="black"/><line transform="translate(475,206.625)" x2="0" y2="-6.75" stroke="black"/><line transform="translate(5,234.375)" x2="0" y2="-29.625" stroke="black"/><line transform="translate(425,206.25)" x2="0" y2="-15.75" stroke="black"/><line transform="translate(255,197.43750000000003)" x2="0" y2="-66.18750000000003" stroke="black"/><line transform="translate(275,188.24999999999997)" x2="0" y2="-61.124999999999986" stroke="black"/><line transform="translate(485,206.625)" x2="0" y2="-10.874999999999972" stroke="black"/><line transform="translate(325,198.75)" x2="0" y2="-52.875" stroke="black"/><line transform="translate(45,227.25000000000003)" x2="0" y2="-46.875" stroke="black"/><line transform="translate(175,208.21875)" x2="0" y2="-56.34375" stroke="black"/><line transform="translate(215,195.375)" x2="0" y2="-65.25" stroke="black"/><line transform="translate(305,191.25)" x2="0" y2="-63.375" stroke="black"/><line transform="translate(495,206.99999999999997)" x2="0" y2="-11.999999999999972" stroke="black"/><line transform="translate(15,208.50000000000003)" x2="0" y2="-46.50000000000003" stroke="black"/><line transform="translate(355,192.75000000000003)" x2="0" y2="-48.00000000000003" stroke="black"/><line transform="translate(445,205.875)" x2="0" y2="-28.87499999999997" stroke="black"/><line transform="translate(25,236.0625)" x2="0" y2="-50.81250000000003" stroke="black"/><line transform="translate(105,207.37499999999997)" x2="0" y2="-65.62499999999997" stroke="black"/><line transform="translate(245,195.1875)" x2="0" y2="-63.9375" stroke="black"/><line transform="translate(335,193.5)" x2="0" y2="-46.125" stroke="black"/><line transform="translate(405,202.5)" x2="0" y2="-37.87499999999997" stroke="black"/><line transform="translate(395,199.5)" x2="0" y2="-48.37500000000003" stroke="black"/><line transform="translate(85,215.625)" x2="0" y2="-53.625" stroke="black"/><line transform="translate(135,205.12500000000003)" x2="0" y2="-58.87500000000003" stroke="black"/><line transform="translate(195,203.4375)" x2="0" y2="-56.4375" stroke="black"/><line transform="translate(435,206.625)" x2="0" y2="-12.000000000000028" stroke="black"/><line transform="translate(345,199.03125)" x2="0" y2="-47.53125" stroke="black"/><line transform="translate(55,219.65625)" x2="0" y2="-59.53125000000003" stroke="black"/><line transform="translate(145,206.34374999999997)" x2="0" y2="-50.71874999999997" stroke="black"/><line transform="translate(205,190.3125)" x2="0" y2="-69.18749999999999" stroke="black"/><line transform="translate(295,189.5625)" x2="0" y2="-58.6875" stroke="black"/><line transform="translate(235,194.8125)" x2="0" y2="-62.4375" stroke="black"/><line transform="translate(225,190.875)" x2="0" y2="-60.75" stroke="black"/><line transform="translate(165,199.6875)" x2="0" y2="-63.1875" stroke="black"/><line transform="translate(455,206.25)" x2="0" y2="-23.625" stroke="black"/><line transform="translate(285,194.25)" x2="0" y2="-48" stroke="black"/><line transform="translate(315,192.75000000000003)" x2="0" y2="-54.375" stroke="black"/><line transform="translate(265,192.09375000000003)" x2="0" y2="-65.34375000000003" stroke="black"/><line transform="translate(125,206.99999999999997)" x2="0" y2="-61.87499999999997" stroke="black"/><line transform="translate(465,206.625)" x2="0" y2="-12.75" stroke="black"/><line transform="translate(155,205.3125)" x2="0" y2="-60.9375" stroke="black"/><line transform="translate(415,205.50000000000003)" x2="0" y2="-30.75000000000003" stroke="black"/><line transform="translate(65,222.9375)" x2="0" y2="-62.81250000000003" stroke="black"/><line transform="translate(95,206.625)" x2="0" y2="-61.125" stroke="black"/><line transform="translate(115,203.99999999999997)" x2="0" y2="-65.24999999999997" stroke="black"/><line transform="translate(75,208.50000000000003)" x2="0" y2="-73.12500000000003" stroke="black"/><line transform="translate(375,200.25)" x2="0" y2="-44.99999999999997" stroke="black"/></g><g class="mark-rect role-mark concat_1_layer_1_layer_0_marks" role="graphics-symbol" aria-roledescription="rect mark container"><path d="M378,199.875h14v28.5h-14Z" fill="#4c78a8"/><path d="M28,224.90625000000003h14v31.87499999999997h-14Z" fill="#4c78a8"/><path d="M358,199.5h14v34.03125h-14Z" fill="#4c78a8"/><path d="M178,201.46875000000003h14v39.93749999999997h-14Z" fill="#4c78a8"/><path d="M468,206.625h14v21.65625h-14Z" fill="#4c78a8"/><path d="M-2,234.375h14v34.59375h-14Z" fill="#4c78a8"/><path d="M418,206.25h14v27.75h-14Z" fill="#4c78a8"/><path d="M248,197.43750000000003h14v47.43749999999997h-14Z" fill="#4c78a8"/><path d="M268,188.24999999999997h14v47.34375000000003h-14Z" fill="#4c78a8"/><path d="M478,206.625h14v15.375h-14Z" fill="#4c78a8"/><path d="M318,198.75h14v35.34375h-14Z" fill="#4c78a8"/><path d="M38,227.25000000000003h14v38.24999999999997h-14Z" fill="#4c78a8"/><path d="M168,208.21875h14v38.25h-14Z" fill="#4c78a8"/><path d="M208,195.375h14v43.5h-14Z" fill="#4c78a8"/><path d="M298,191.25h14v43.03125000000003h-14Z" fill="#4c78a8"/><path d="M488,206.99999999999997h14v19.12500000000003h-14Z" fill="#4c78a8"/><path d="M8,208.50000000000003h14v42.74999999999997h-14Z" fill="#4c78a8"/><path d="M348,192.75000000000003h14v32.24999999999997h-14Z" fill="#4c78a8"/><path d="M438,205.875h14v22.5h-14Z" fill="#4c78a8"/><path d="M18,236.0625h14v35.15625h-14Z" fill="#4c78a8"/><path d="M98,207.37499999999997h14v44.25000000000003h-14Z" fill="#4c78a8"/><path d="M238,195.1875h14v42.9375h-14Z" fill="#4c78a8"/><path d="M328,193.5h14v39.65625h-14Z" fill="#4c78a8"/><path d="M398,202.5h14v26.25h-14Z" fill="#4c78a8"/><path d="M388,199.5h14v32.90625h-14Z" fill="#4c78a8"/><path d="M78,215.625h14v40.125h-14Z" fill="#4c78a8"/><path d="M128,205.12500000000003h14v41.71874999999994h-14Z" fill="#4c78a8"/><path d="M188,203.4375h14v41.06249999999997h-14Z" fill="#4c78a8"/><path d="M428,206.625h14v24.1875h-14Z" fill="#4c78a8"/><path d="M338,199.03125h14v33.09374999999997h-14Z" fill="#4c78a8"/><path d="M48,219.65625h14v43.125h-14Z" fill="#4c78a8"/><path d="M138,206.34374999999997h14v37.21875000000003h-14Z" fill="#4c78a8"/><path d="M198,190.3125h14v47.15624999999997h-14Z" fill="#4c78a8"/><path d="M288,189.5625h14v40.6875h-14Z" fill="#4c78a8"/><path d="M228,194.8125h14v46.68749999999997h-14Z" fill="#4c78a8"/><path d="M218,190.875h14v48.28124999999997h-14Z" fill="#4c78a8"/><path d="M158,199.6875h14v46.49999999999997h-14Z" fill="#4c78a8"/><path d="M448,206.25h14v22.5h-14Z" fill="#4c78a8"/><path d="M278,194.25h14v38.625h-14Z" fill="#4c78a8"/><path d="M308,192.75000000000003h14v37.12499999999997h-14Z" fill="#4c78a8"/><path d="M258,192.09375000000003h14v47.90624999999997h-14Z" fill="#4c78a8"/><path d="M118,206.99999999999997h14v41.62500000000003h-14Z" fill="#4c78a8"/><path d="M458,206.625h14v21h-14Z" fill="#4c78a8"/><path d="M148,205.3125h14v47.06250000000003h-14Z" fill="#4c78a8"/><path d="M408,205.50000000000003h14v24.56249999999997h-14Z" fill="#4c78a8"/><path d="M58,222.9375h14v46.125h-14Z" fill="#4c78a8"/><path d="M88,206.625h14v43.5h-14Z" fill="#4c78a8"/><path d="M108,203.99999999999997h14v51.00000000000003h-14Z" fill="#4c78a8"/><path d="M68,208.50000000000003h14v49.87499999999997h-14Z" fill="#4c78a8"/><path d="M368,200.25h14v32.25h-14Z" fill="#4c78a8"/></g><g class="mark-rect role-mark concat_1_layer_1_layer_1_marks" role="graphics-symbol" aria-roledescription="rect mark container"><path d="M378,212.5h14v1h-14Z" fill="white" opacity="0.7"/><path d="M28,245.68749999999997h14v1h-14Z" fill="white" opacity="0.7"/><path d="M358,211.18749999999997h14v1h-14Z" fill="white" opacity="0.7"/><path d="M178,223.75000000000003h14v1h-14Z" fill="white" opacity="0.7"/><path d="M468,215.87499999999997h14v1h-14Z" fill="white" opacity="0.7"/><path d="M-2,250.75h14v1h-14Z" fill="white" opacity="0.7"/><path d="M418,217.9375h14v1h-14Z" fill="white" opacity="0.7"/><path d="M248,220.37500000000003h14v1h-14Z" fill="white" opacity="0.7"/><path d="M268,214.75h14v1h-14Z" fill="white" opacity="0.7"/><path d="M478,211.00000000000003h14v1h-14Z" fill="white" opacity="0.7"/><path d="M318,216.8125h14v1h-14Z" fill="white" opacity="0.7"/><path d="M38,252.25h14v1h-14Z" fill="white" opacity="0.7"/><path d="M168,226.1875h14v1h-14Z" fill="white" opacity="0.7"/><path d="M208,219.625h14v1h-14Z" fill="white" opacity="0.7"/><path d="M298,215.125h14v1h-14Z" fill="white" opacity="0.7"/><path d="M488,212.5h14v1h-14Z" fill="white" opacity="0.7"/><path d="M8,232h14v1h-14Z" fill="white" opacity="0.7"/><path d="M348,211.00000000000003h14v1h-14Z" fill="white" opacity="0.7"/><path d="M438,212.5h14v1h-14Z" fill="white" opacity="0.7"/><path d="M18,247.375h14v1h-14Z" fill="white" opacity="0.7"/><path d="M98,227.875h14v1h-14Z" fill="white" opacity="0.7"/><path d="M238,215.87499999999997h14v1h-14Z" fill="white" opacity="0.7"/><path d="M328,208.9375h14v1h-14Z" fill="white" opacity="0.7"/><path d="M398,213.625h14v1h-14Z" fill="white" opacity="0.7"/><path d="M388,213.625h14v1h-14Z" fill="white" opacity="0.7"/><path d="M78,237.25h14v1h-14Z" fill="white" opacity="0.7"/><path d="M128,228.0625h14v1h-14Z" fill="white" opacity="0.7"/><path d="M188,224.125h14v1h-14Z" fill="white" opacity="0.7"/><path d="M428,217.37500000000003h14v1h-14Z" fill="white" opacity="0.7"/><path d="M338,216.24999999999997h14v1h-14Z" fill="white" opacity="0.7"/><path d="M48,244.75h14v1h-14Z" fill="white" opacity="0.7"/><path d="M138,225.625h14v1h-14Z" fill="white" opacity="0.7"/><path d="M198,214.37500000000003h14v1h-14Z" fill="white" opacity="0.7"/><path d="M288,208.00000000000003h14v1h-14Z" fill="white" opacity="0.7"/><path d="M228,217h14v1h-14Z" fill="white" opacity="0.7"/><path d="M218,215.87499999999997h14v1h-14Z" fill="white" opacity="0.7"/><path d="M158,223.37500000000003h14v1h-14Z" fill="white" opacity="0.7"/><path d="M448,213.4375h14v1h-14Z" fill="white" opacity="0.7"/><path d="M278,212.125h14v1h-14Z" fill="white" opacity="0.7"/><path d="M308,209.87499999999997h14v1h-14Z" fill="white" opacity="0.7"/><path d="M258,217.1875h14v1h-14Z" fill="white" opacity="0.7"/><path d="M118,227.5h14v1h-14Z" fill="white" opacity="0.7"/><path d="M458,212.125h14v1h-14Z" fill="white" opacity="0.7"/><path d="M148,231.25h14v1h-14Z" fill="white" opacity="0.7"/><path d="M408,214.00000000000003h14v1h-14Z" fill="white" opacity="0.7"/><path d="M58,242.125h14v1h-14Z" fill="white" opacity="0.7"/><path d="M88,231.62499999999997h14v1h-14Z" fill="white" opacity="0.7"/><path d="M108,232.375h14v1h-14Z" fill="white" opacity="0.7"/><path d="M68,234.62499999999997h14v1h-14Z" fill="white" opacity="0.7"/><path d="M368,212.87499999999997h14v1h-14Z" fill="white" opacity="0.7"/></g><g class="mark-group role-title"><g transform="translate(250,-35)"><path class="background" aria-hidden="true" d="M0,0h0v0h0Z" pointer-events="none"/><g><g class="mark-text role-title-text" role="graphics-symbol" aria-roledescription="title" aria-label="Title text 'Words in abstract'" pointer-events="none"><text text-anchor="middle" transform="translate(0,17)" font-family="sans-serif" font-size="22px" font-weight="bold" fill="#000" opacity="1">Words in abstract</text></g></g><path class="foreground" aria-hidden="true" d="" pointer-events="none" display="none"/></g></g></g><path class="foreground" aria-hidden="true" d="" display="none"/></g></g></g><path class="foreground" aria-hidden="true" d="" display="none"/></g></g></g></svg>