<svg xmlns="http://www.w3.org/2000/svg" xmlns:xlink="http://www.w3.org/1999/xlink" version="1.1" class="marks" width="820" height="419" viewBox="0 0 820 419"><rect width="820" height="419" fill="white"/><g fill="none" stroke-miterlimit="10" transform="translate(60,41)"><g class="mark-group role-frame root" role="graphics-object" aria-roledescription="group mark container"><g transform="translate(0,0)"><path class="background" aria-hidden="true" d="M0.5,0.5h550v300h-550Z" stroke="#ddd"/><g><g class="mark-group role-axis" role="graphics-symbol" aria-roledescription="axis" aria-label="Y-axis for a linear scale with values from 0 to 45"><g transform="translate(0.5,0.5)"><path class="background" aria-hidden="true" d="M0,0h0v0h0Z" pointer-events="none"/><g><g class="mark-rule role-axis-grid" pointer-events="none"><line transform="translate(0,300)" x2="550" y2="0" stroke="#ddd" stroke-width="1" opacity="1"/><line transform="translate(0,267)" x2="550" y2="0" stroke="#ddd" stroke-width="1" opacity="1"/><line transform="translate(0,233)" x2="550" y2="0" stroke="#ddd" stroke-width="1" opacity="1"/><line transform="translate(0,200)" x2="550" y2="0" stroke="#ddd" stroke-width="1" opacity="1"/><line transform="translate(0,167)" x2="550" y2="0" stroke="#ddd" stroke-width="1" opacity="1"/><line transform="translate(0,133)" x2="550" y2="0" stroke="#ddd" stroke-width="1" opacity="1"/><line transform="translate(0,100)" x2="550" y2="0" stroke="#ddd" stroke-width="1" opacity="1"/><line transform="translate(0,67)" x2="550" y2="0" stroke="#ddd" stroke-width="1" opacity="1"/><line transform="translate(0,33)" x2="550" y2="0" stroke="#ddd" stroke-width="1" opacity="1"/><line transform="translate(0,0)" x2="550" y2="0" stroke="#ddd" stroke-width="1" opacity="1"/></g></g><path class="foreground" aria-hidden="true" d="" pointer-events="none" display="none"/></g></g><g class="mark-group role-axis" role="graphics-symbol" aria-roledescription="axis" aria-label="X-axis titled 'Year' for a discrete scale with 50 values: 1971, 1972, 1973, 1974, 1975, ending with 2020"><g transform="translate(0.5,300.5)"><path class="background" aria-hidden="true" d="M0,0h0v0h0Z" pointer-events="none"/><g><g class="mark-rule role-axis-tick" pointer-events="none"><line transform="translate(6,0)" x2="0" y2="5" stroke="#888" stroke-width="1" opacity="1"/><line transform="translate(17,0)" x2="0" y2="5" stroke="#888" stroke-width="1" opacity="1"/><line transform="translate(28,0)" x2="0" y2="5" stroke="#888" stroke-width="1" opacity="1"/><line transform="translate(39,0)" x2="0" y2="5" stroke="#888" stroke-width="1" opacity="1"/><line transform="translate(50,0)" x2="0" y2="5" stroke="#888" stroke-width="1" opacity="1"/><line transform="translate(61,0)" x2="0" y2="5" stroke="#888" stroke-width="1" opacity="1"/><line transform="translate(72,0)" x2="0" y2="5" stroke="#888" stroke-width="1" opacity="1"/><line transform="translate(83,0)" x2="0" y2="5" stroke="#888" stroke-width="1" opacity="1"/><line transform="translate(94,0)" x2="0" y2="5" stroke="#888" stroke-width="1" opacity="1"/><line transform="translate(105,0)" x2="0" y2="5" stroke="#888" stroke-width="1" opacity="1"/><line transform="translate(116,0)" x2="0" y2="5" stroke="#888" stroke-width="1" opacity="1"/><line transform="translate(127,0)" x2="0" y2="5" stroke="#888" stroke-width="1" opacity="1"/><line transform="translate(138,0)" x2="0" y2="5" stroke="#888" stroke-width="1" opacity="1"/><line transform="translate(149,0)" x2="0" y2="5" stroke="#888" stroke-width="1" opacity="1"/><line transform="translate(160,0)" x2="0" y2="5" stroke="#888" stroke-width="1" opacity="1"/><line transform="translate(171,0)" x2="0" y2="5" stroke="#888" stroke-width="1" opacity="1"/><line transform="translate(182,0)" x2="0" y2="5" stroke="#888" stroke-width="1" opacity="1"/><line transform="translate(193,0)" x2="0" y2="5" stroke="#888" stroke-width="1" opacity="1"/><line transform="translate(204,0)" x2="0" y2="5" stroke="#888" stroke-width="1" opacity="1"/><line transform="translate(215,0)" x2="0" y2="5" stroke="#888" stroke-width="1" opacity="1"/><line transform="translate(226,0)" x2="0" y2="5" stroke="#888" stroke-width="1" opacity="1"/><line transform="translate(237,0)" x2="0" y2="5" stroke="#888" stroke-width="1" opacity="1"/><line transform="translate(248,0)" x2="0" y2="5" stroke="#888" stroke-width="1" opacity="1"/><line transform="translate(259,0)" x2="0" y2="5" stroke="#888" stroke-width="1" opacity="1"/><line transform="translate(270,0)" x2="0" y2="5" stroke="#888" stroke-width="1" opacity="1"/><line transform="translate(281,0)" x2="0" y2="5" stroke="#888" stroke-width="1" opacity="1"/><line transform="translate(292,0)" x2="0" y2="5" stroke="#888" stroke-width="1" opacity="1"/><line transform="translate(303,0)" x2="0" y2="5" stroke="#888" stroke-width="1" opacity="1"/><line transform="translate(314,0)" x2="0" y2="5" stroke="#888" stroke-width="1" opacity="1"/><line transform="translate(325,0)" x2="0" y2="5" stroke="#888" stroke-width="1" opacity="1"/><line transform="translate(336,0)" x2="0" y2="5" stroke="#888" stroke-width="1" opacity="1"/><line transform="translate(347,0)" x2="0" y2="5" stroke="#888" stroke-width="1" opacity="1"/><line transform="translate(358,0)" x2="0" y2="5" stroke="#888" stroke-width="1" opacity="1"/><line transform="translate(369,0)" x2="0" y2="5" stroke="#888" stroke-width="1" opacity="1"/><line transform="translate(380,0)" x2="0" y2="5" stroke="#888" stroke-width="1" opacity="1"/><line transform="translate(391,0)" x2="0" y2="5" stroke="#888" stroke-width="1" opacity="1"/><line transform="translate(402,0)" x2="0" y2="5" stroke="#888" stroke-width="1" opacity="1"/><line transform="translate(413,0)" x2="0" y2="5" stroke="#888" stroke-width="1" opacity="1"/><line transform="translate(424,0)" x2="0" y2="5" stroke="#888" stroke-width="1" opacity="1"/><line transform="translate(435,0)" x2="0" y2="5" stroke="#888" stroke-width="1" opacity="1"/><line transform="translate(446,0)" x2="0" y2="5" stroke="#888" stroke-width="1" opacity="1"/><line transform="translate(457,0)" x2="0" y2="5" stroke="#888" stroke-width="1" opacity="1"/><line transform="translate(468,0)" x2="0" y2="5" stroke="#888" stroke-width="1" opacity="1"/><line transform="translate(479,0)" x2="0" y2="5" stroke="#888" stroke-width="1" opacity="1"/><line transform="translate(490,0)" x2="0" y2="5" stroke="#888" stroke-width="1" opacity="1"/><line transform="translate(501,0)" x2="0" y2="5" stroke="#888" stroke-width="1" opacity="1"/><line transform="translate(512,0)" x2="0" y2="5" stroke="#888" stroke-width="1" opacity="1"/><line transform="translate(523,0)" x2="0" y2="5" stroke="#888" stroke-width="1" opacity="1"/><line transform="translate(534,0)" x2="0" y2="5" stroke="#888" stroke-width="1" opacity="1"/><line transform="translate(545,0)" x2="0" y2="5" stroke="#888" stroke-width="1" opacity="1"/></g><g class="mark-text role-axis-label" pointer-events="none"><text text-anchor="end" transform="translate(5.5,7) rotate(270) translate(0,5)" font-family="sans-serif" font-size="18px" fill="#000" opacity="1">1971</text><text text-anchor="end" transform="translate(16.5,7) rotate(270) translate(0,5)" font-family="sans-serif" font-size="18px" fill="#000" opacity="0">1972</text><text text-anchor="end" transform="translate(27.5,7) rotate(270) translate(0,5)" font-family="sans-serif" font-size="18px" fill="#000" opacity="1">1973</text><text text-anchor="end" transform="translate(38.5,7) rotate(270) translate(0,5)" font-family="sans-serif" font-size="18px" fill="#000" opacity="0">1974</text><text text-anchor="end" transform="translate(49.5,7) rotate(270) translate(0,5)" font-family="sans-serif" font-size="18px" fill="#000" opacity="1">1975</text><text text-anchor="end" transform="translate(60.5,7) rotate(270) translate(0,5)" font-family="sans-serif" font-size="18px" fill="#000" opacity="0">1976</text><text text-anchor="end" transform="translate(71.5,7) rotate(270) translate(0,5)" font-family="sans-serif" font-size="18px" fill="#000" opacity="1">1977</text><text text-anchor="end" transform="translate(82.5,7) rotate(270) translate(0,5)" font-family="sans-serif" font-size="18px" fill="#000" opacity="0">1978</text><text text-anchor="end" transform="translate(93.5,7) rotate(270) translate(0,5)" font-family="sans-serif" font-size="18px" fill="#000" opacity="1">1979</text><text text-anchor="end" transform="translate(104.5,7) rotate(270) translate(0,5)" font-family="sans-serif" font-size="18px" fill="#000" opacity="0">1980</text><text text-anchor="end" transform="translate(115.5,7) rotate(270) translate(0,5)" font-family="sans-serif" font-size="18px" fill="#000" opacity="1">1981</text><text text-anchor="end" transform="translate(126.5,7) rotate(270) translate(0,5)" font-family="sans-serif" font-size="18px" fill="#000" opacity="0">1982</text><text text-anchor="end" transform="translate(137.5,7) rotate(270) translate(0,5)" font-family="sans-serif" font-size="18px" fill="#000" opacity="1">1983</text><text text-anchor="end" transform="translate(148.5,7) rotate(270) translate(0,5)" font-family="sans-serif" font-size="18px" fill="#000" opacity="0">1984</text><text text-anchor="end" transform="translate(159.5,7) rotate(270) translate(0,5)" font-family="sans-serif" font-size="18px" fill="#000" opacity="1">1985</text><text text-anchor="end" transform="translate(170.5,7) rotate(270) translate(0,5)" font-family="sans-serif" font-size="18px" fill="#000" opacity="0">1986</text><text text-anchor="end" transform="translate(181.5,7) rotate(270) translate(0,5)" font-family="sans-serif" font-size="18px" fill="#000" opacity="1">1987</text><text text-anchor="end" transform="translate(192.5,7) rotate(270) translate(0,5)" font-family="sans-serif" font-size="18px" fill="#000" opacity="0">1988</text><text text-anchor="end" transform="translate(203.5,7) rotate(270) translate(0,5)" font-family="sans-serif" font-size="18px" fill="#000" opacity="1">1989</text><text text-anchor="end" transform="translate(214.5,7) rotate(270) translate(0,5)" font-family="sans-serif" font-size="18px" fill="#000" opacity="0">1990</text><text text-anchor="end" transform="translate(225.5,7) rotate(270) translate(0,5)" font-family="sans-serif" font-size="18px" fill="#000" opacity="1">1991</text><text text-anchor="end" transform="translate(236.5,7) rotate(270) translate(0,5)" font-family="sans-serif" font-size="18px" fill="#000" opacity="0">1992</text><text text-anchor="end" transform="translate(247.5,7) rotate(270) translate(0,5)" font-family="sans-serif" font-size="18px" fill="#000" opacity="1">1993</text><text text-anchor="end" transform="translate(258.5,7) rotate(270) translate(0,5)" font-family="sans-serif" font-size="18px" fill="#000" opacity="0">1994</text><text text-anchor="end" transform="translate(269.5,7) rotate(270) translate(0,5)" font-family="sans-serif" font-size="18px" fill="#000" opacity="1">1995</text><text text-anchor="end" transform="translate(280.5,7) rotate(270) translate(0,5)" font-family="sans-serif" font-size="18px" fill="#000" opacity="0">1996</text><text text-anchor="end" transform="translate(291.5,7) rotate(270) translate(0,5)" font-family="sans-serif" font-size="18px" fill="#000" opacity="1">1997</text><text text-anchor="end" transform="translate(302.5,7) rotate(270) translate(0,5)" font-family="sans-serif" font-size="18px" fill="#000" opacity="0">1998</text><text text-anchor="end" transform="translate(313.5,7) rotate(270) translate(0,5)" font-family="sans-serif" font-size="18px" fill="#000" opacity="1">1999</text><text text-anchor="end" transform="translate(324.5,7) rotate(270) translate(0,5)" font-family="sans-serif" font-size="18px" fill="#000" opacity="0">2000</text><text text-anchor="end" transform="translate(335.5,7) rotate(270) translate(0,5)" font-family="sans-serif" font-size="18px" fill="#000" opacity="1">2001</text><text text-anchor="end" transform="translate(346.5,7) rotate(270) translate(0,5)" font-family="sans-serif" font-size="18px" fill="#000" opacity="0">2002</text><text text-anchor="end" transform="translate(357.5,7) rotate(270) translate(0,5)" font-family="sans-serif" font-size="18px" fill="#000" opacity="1">2003</text><text text-anchor="end" transform="translate(368.5,7) rotate(270) translate(0,5)" font-family="sans-serif" font-size="18px" fill="#000" opacity="0">2004</text><text text-anchor="end" transform="translate(379.5,7) rotate(270) translate(0,5)" font-family="sans-serif" font-size="18px" fill="#000" opacity="1">2005</text><text text-anchor="end" transform="translate(390.5,7) rotate(270) translate(0,5)" font-family="sans-serif" font-size="18px" fill="#000" opacity="0">2006</text><text text-anchor="end" transform="translate(401.5,7) rotate(270) translate(0,5)" font-family="sans-serif" font-size="18px" fill="#000" opacity="1">2007</text><text text-anchor="end" transform="translate(412.5,7) rotate(270) translate(0,5)" font-family="sans-serif" font-size="18px" fill="#000" opacity="0">2008</text><text text-anchor="end" transform="translate(423.5,7) rotate(270) translate(0,5)" font-family="sans-serif" font-size="18px" fill="#000" opacity="1">2009</text><text text-anchor="end" transform="translate(434.5,7) rotate(270) translate(0,5)" font-family="sans-serif" font-size="18px" fill="#000" opacity="0">2010</text><text text-anchor="end" transform="translate(445.5,7) rotate(270) translate(0,5)" font-family="sans-serif" font-size="18px" fill="#000" opacity="1">2011</text><text text-anchor="end" transform="translate(456.5,7) rotate(270) translate(0,5)" font-family="sans-serif" font-size="18px" fill="#000" opacity="0">2012</text><text text-anchor="end" transform="translate(467.5,7) rotate(270) translate(0,5)" font-family="sans-serif" font-size="18px" fill="#000" opacity="1">2013</text><text text-anchor="end" transform="translate(478.5,7) rotate(270) translate(0,5)" font-family="sans-serif" font-size="18px" fill="#000" opacity="0">2014</text><text text-anchor="end" transform="translate(489.5,7) rotate(270) translate(0,5)" font-family="sans-serif" font-size="18px" fill="#000" opacity="1">2015</text><text text-anchor="end" transform="translate(500.5,7) rotate(270) translate(0,5)" font-family="sans-serif" font-size="18px" fill="#000" opacity="0">2016</text><text text-anchor="end" transform="translate(511.5,7) rotate(270) translate(0,5)" font-family="sans-serif" font-size="18px" fill="#000" opacity="1">2017</text><text text-anchor="end" transform="translate(522.5,7) rotate(270) translate(0,5)" font-family="sans-serif" font-size="18px" fill="#000" opacity="0">2018</text><text text-anchor="end" transform="translate(533.5,7) rotate(270) translate(0,5)" font-family="sans-serif" font-size="18px" fill="#000" opacity="1">2019</text><text text-anchor="end" transform="translate(544.5,7) rotate(270) translate(0,5)" font-family="sans-serif" font-size="18px" fill="#000" opacity="0">2020</text></g><g class="mark-rule role-axis-domain" pointer-events="none"><line transform="translate(0,0)" x2="550" y2="0" stroke="#888" stroke-width="1" opacity="1"/></g><g class="mark-text role-axis-title" pointer-events="none"><text text-anchor="middle" transform="translate(275,68.04296875)" font-family="sans-serif" font-size="22px" font-weight="bold" fill="#000" opacity="1">Year</text></g></g><path class="foreground" aria-hidden="true" d="" pointer-events="none" display="none"/></g></g><g class="mark-group role-axis" role="graphics-symbol" aria-roledescription="axis" aria-label="Y-axis titled '% of articles in year' for a linear scale with values from 0 to 45"><g transform="translate(0.5,0.5)"><path class="background" aria-hidden="true" d="M0,0h0v0h0Z" pointer-events="none"/><g><g class="mark-rule role-axis-tick" pointer-events="none"><line transform="translate(0,300)" x2="-5" y2="0" stroke="#888" stroke-width="1" opacity="1"/><line transform="translate(0,267)" x2="-5" y2="0" stroke="#888" stroke-width="1" opacity="1"/><line transform="translate(0,233)" x2="-5" y2="0" stroke="#888" stroke-width="1" opacity="1"/><line transform="translate(0,200)" x2="-5" y2="0" stroke="#888" stroke-width="1" opacity="1"/><line transform="translate(0,167)" x2="-5" y2="0" stroke="#888" stroke-width="1" opacity="1"/><line transform="translate(0,133)" x2="-5" y2="0" stroke="#888" stroke-width="1" opacity="1"/><line transform="translate(0,100)" x2="-5" y2="0" stroke="#888" stroke-width="1" opacity="1"/><line transform="translate(0,67)" x2="-5" y2="0" stroke="#888" stroke-width="1" opacity="1"/><line transform="translate(0,33)" x2="-5" y2="0" stroke="#888" stroke-width="1" opacity="1"/><line transform="translate(0,0)" x2="-5" y2="0" stroke="#888" stroke-width="1" opacity="1"/></g><g class="mark-text role-axis-label" pointer-events="none"><text text-anchor="end" transform="translate(-7,305)" font-family="sans-serif" font-size="18px" fill="#000" opacity="1">0</text><text text-anchor="end" transform="translate(-7,271.66666666666663)" font-family="sans-serif" font-size="18px" fill="#000" opacity="1">5</text><text text-anchor="end" transform="translate(-7,238.33333333333334)" font-family="sans-serif" font-size="18px" fill="#000" opacity="1">10</text><text text-anchor="end" transform="translate(-7,205.00000000000003)" font-family="sans-serif" font-size="18px" fill="#000" opacity="1">15</text><text text-anchor="end" transform="translate(-7,171.66666666666669)" font-family="sans-serif" font-size="18px" fill="#000" opacity="1">20</text><text text-anchor="end" transform="translate(-7,138.33333333333331)" font-family="sans-serif" font-size="18px" fill="#000" opacity="1">25</text><text text-anchor="end" transform="translate(-7,105.00000000000001)" font-family="sans-serif" font-size="18px" fill="#000" opacity="1">30</text><text text-anchor="end" transform="translate(-7,71.66666666666666)" font-family="sans-serif" font-size="18px" fill="#000" opacity="1">35</text><text text-anchor="end" transform="translate(-7,38.33333333333335)" font-family="sans-serif" font-size="18px" fill="#000" opacity="1">40</text><text text-anchor="end" transform="translate(-7,5)" font-family="sans-serif" font-size="18px" fill="#000" opacity="1">45</text></g><g class="mark-rule role-axis-domain" pointer-events="none"><line transform="translate(0,300)" x2="0" y2="-300" stroke="#888" stroke-width="1" opacity="1"/></g><g class="mark-text role-axis-title" pointer-events="none"><text text-anchor="middle" transform="translate(-31.021484375,150) rotate(-90) translate(0,-5)" font-family="sans-serif" font-size="22px" font-weight="bold" fill="#000" opacity="1">% of articles in year</text></g></g><path class="foreground" aria-hidden="true" d="" pointer-events="none" display="none"/></g></g><g class="mark-group role-scope pathgroup" role="graphics-object" aria-roledescription="group mark container"><g transform="translate(0,0)"><path class="background" aria-hidden="true" d="M0,0h550v300h-550Z"/><g><g class="mark-line role-mark marks" role="graphics-symbol" aria-roledescription="line mark container"><path d="M5.5,143.13725490200002L16.5,113.953488372L27.5,157.14285714266666L38.5,160.21505376333332L49.5,126.48401826466666L60.5,156.0606060606667L71.5,194.7368421053333L82.5,172.053872054L93.5,134.75783475800003L104.5,120.51282051266668L115.5,149.62406015066668L126.5,96.14325068866668L137.5,72.81191806333334L148.5,83.33333333333334L159.5,81.09452736333333L170.5,76.44710578866665L181.5,75.23809523800001L192.5,72.72727272733334L203.5,42.42424242400003L214.5,106.61577608133331L225.5,24.137931034666682L236.5,49.23547400599999L247.5,75.10040160666668L258.5,80.26070763533335L269.5,77.77777777800002L280.5,62.18323586733333L291.5,103.65296803666665L302.5,100.00000000000001L313.5,112.39530988266667L324.5,95.644891122L335.5,75.70093457933335L346.5,54.22427035333334L357.5,68.29268292666667L368.5,127.95698924733335L379.5,83.33333333333334L390.5,107.51173708933332L401.5,67.79026217199997L412.5,79.09270216933331L423.5,97.25085910666665L434.5,108.42911877399997L445.5,164.66165413533332L456.5,150.815850816L467.5,125.39682539666667L478.5,172.49544626600002L489.5,140L500.5,107.69230769199999L511.5,140.15594541933334L522.5,98.35390946533332L533.5,111.86094069533333L544.5,130.742659758" stroke="#f58518" stroke-width="5"/></g></g><path class="foreground" aria-hidden="true" d="" display="none"/></g><g transform="translate(0,0)"><path class="background" aria-hidden="true" d="M0,0h550v300h-550Z"/><g><g class="mark-line role-mark marks" role="graphics-symbol" aria-roledescription="line mark container"><path d="M5.5,260.78431372533333L49.5,281.73515981733334L60.5,284.84848484866666L82.5,286.53198653199996L93.5,288.603988604L104.5,282.905982906L115.5,279.94987468666665L126.5,266.94214876L137.5,288.8268156426667L148.5,258.33333333333337L159.5,275.12437810933335L170.5,284.031936128L181.5,265.71428571399997L192.5,269.69696969666666L203.5,289.8989898986667L214.5,269.46564885466665L225.5,288.5057471266667L236.5,269.41896024466666L247.5,263.85542168666666L258.5,266.48044692733333L269.5,267.79388083733335L280.5,268.81091617933333L291.5,272.60273972600004L302.5,261.90476190466666L313.5,249.74874371866665L324.5,276.54941373533336L335.5,275.07788161999997L346.5,256.98924731200003L357.5,279.674796748L368.5,260.57347670266665L379.5,237.5L390.5,253.0516431926667L401.5,247.5655430713333L412.5,256.6074950693333L423.5,272.50859106533335L434.5,292.33716475066666L445.5,249.87468671666667L456.5,267.365967366L467.5,276.19047619066663L478.5,259.92714025533337L489.5,265.71428571399997L500.5,258.33333333333337L511.5,257.11500974666666L522.5,254.732510288L533.5,263.1901840493333L544.5,237.8238341966667" stroke="#e45756" stroke-width="5"/></g></g><path class="foreground" aria-hidden="true" d="" display="none"/></g><g transform="translate(0,0)"><path class="background" aria-hidden="true" d="M0,0h550v300h-550Z"/><g><g class="mark-line role-mark marks" role="graphics-symbol" aria-roledescription="line mark container"><path d="M5.5,221.56862745066667L16.5,268.992248062L27.5,252.38095238066668L38.5,246.23655914L49.5,226.94063926933333L60.5,254.54545454533334L71.5,229.82456140333332L82.5,266.32996633L93.5,271.50997150999996L104.5,274.35897435866667L115.5,274.9373433586667L126.5,283.47107438L137.5,270.20484171333334L148.5,275L159.5,270.1492537313333L170.5,292.015968064L181.5,280.95238095266666L192.5,294.9494949493333L203.5,284.84848484866666L214.5,289.82188295133335L225.5,277.0114942526667L236.5,293.8837920486667L247.5,295.9839357426667L258.5,296.275605214L269.5,283.89694041866665L280.5,288.3040935673333L291.5,290.8675799086667L302.5,295.23809523799997L313.5,293.299832496L324.5,289.949748744L335.5,278.19314641733337L346.5,290.783410138L357.5,283.7398373986667L368.5,292.8315412186667L379.5,287.5L390.5,295.3051643193333L401.5,285.018726592L412.5,296.05522682466665L423.5,296.56357388333333L434.5,292.33716475066666L456.5,290.67599067599997L467.5,296.031746032L478.5,296.3570127506667L500.5,296.7948717946667L511.5,296.10136452266664L522.5,295.8847736626667L533.5,291.8200409L544.5,296.54576856666665" stroke="#72b7b2" stroke-width="5"/></g></g><path class="foreground" aria-hidden="true" d="" display="none"/></g><g transform="translate(0,0)"><path class="background" aria-hidden="true" d="M0,0h550v300h-550Z"/><g><g class="mark-line role-mark marks" role="graphics-symbol" aria-roledescription="line mark container"><path d="M5.5,162.74509803933336L16.5,129.45736434133332L27.5,157.14285714266666L38.5,160.21505376333332L49.5,117.35159817333334L60.5,133.33333333333331L71.5,145.614035088L82.5,138.38383838400003L93.5,168.94586894600002L104.5,124.78632478600001L115.5,129.57393483733335L126.5,123.69146005533334L137.5,151.02420856599997L148.5,87.49999999999999L159.5,125.87064676600002L170.5,172.255489022L181.5,109.52380952400001L192.5,148.48484848466666L203.5,123.232323232L214.5,177.86259542000002L225.5,162.06896551733334L236.5,189.90825688066667L247.5,135.34136546200003L258.5,132.40223463666666L269.5,161.51368760066669L280.5,214.23001949333334L291.5,144.74885844733336L302.5,176.1904761906667L313.5,135.84589614733332L324.5,112.39530988266667L335.5,144.2367601246667L346.5,118.74039938533335L357.5,161.788617886L368.5,138.70967741933333L379.5,133.33333333333331L390.5,107.51173708933332L401.5,120.22471910133332L412.5,126.429980276L423.5,141.92439862533334L434.5,96.93486590066668L445.5,119.54887218066666L456.5,66.89976689999999L467.5,113.492063492L478.5,143.35154826933334L489.5,132.38095238066668L500.5,142.94871794866668L511.5,101.16959064333335L522.5,143.62139917666667L533.5,177.30061349666667L544.5,85.83765112266667" stroke="#54a24b" stroke-width="5"/></g></g><path class="foreground" aria-hidden="true" d="" display="none"/></g><g transform="translate(0,0)"><path class="background" aria-hidden="true" d="M0,0h550v300h-550Z"/><g><g class="mark-line role-mark marks" role="graphics-symbol" aria-roledescription="line mark container"><path d="M5.5,280.39215686266664L16.5,237.984496124L27.5,288.09523809533334L49.5,281.73515981733334L60.5,284.84848484866666L71.5,257.89473684200004L82.5,252.861952862L93.5,254.41595441599998L104.5,265.811965812L115.5,254.88721804533333L126.5,261.4325068873333L137.5,281.3780260706667L148.5,295.83333333333337L159.5,260.1990049753333L170.5,276.0479041913333L181.5,269.523809524L192.5,254.54545454533334L203.5,244.44444444466666L214.5,249.109414758L225.5,225.287356322L236.5,238.83792048933336L247.5,243.77510040133333L258.5,240.40968342666667L269.5,248.47020934000003L280.5,233.72319688133334L291.5,254.33789954333332L302.5,223.80952380933334L313.5,196.14740368533333L324.5,222.948073702L335.5,215.88785046733335L346.5,223.19508448533333L357.5,234.95934959333331L368.5,213.97849462333332L379.5,229.16666666666666L390.5,220.18779342733333L401.5,206.36704119866664L412.5,236.88362919133334L423.5,217.52577319600002L434.5,200.38314176266667L445.5,209.77443609000002L456.5,202.097902098L467.5,176.984126984L478.5,187.067395264L489.5,200.9523809526667L500.5,184.61538461533334L511.5,155.7504873293333L522.5,209.46502057599997L533.5,173.21063394666666L544.5,224.00690846266664" stroke="#eeca3b" stroke-width="5"/></g></g><path class="foreground" aria-hidden="true" d="" display="none"/></g><g transform="translate(0,0)"><path class="background" aria-hidden="true" d="M0,0h550v300h-550Z"/><g><g class="mark-line role-mark marks" role="graphics-symbol" aria-roledescription="line mark container"><path d="M27.5,276.19047619066663L38.5,289.24731182799997L49.5,272.60273972600004L60.5,269.69696969666666L71.5,285.9649122806666L93.5,271.50997150999996L104.5,274.35897435866667L115.5,289.97493734333335L126.5,294.49035812666665L137.5,292.551210428L148.5,279.1666666666667L159.5,285.074626866L170.5,292.015968064L181.5,284.76190476200003L192.5,289.8989898986667L203.5,279.79797979800003L214.5,289.82188295133335L225.5,294.2528735633333L236.5,281.6513761466667L247.5,279.9196787146667L258.5,281.3780260706667L269.5,290.3381642513333L280.5,288.3040935673333L291.5,281.73515981733334L302.5,280.95238095266666L313.5,286.5996649913333L324.5,289.949748744L335.5,290.6542056073333L346.5,287.71121351733336L357.5,283.7398373986667L368.5,274.91039426533337L379.5,283.3333333333333L390.5,276.525821596L401.5,281.27340824L412.5,268.4418145953333L423.5,289.69072164933334L434.5,269.348659004L445.5,284.96240601533333L456.5,262.703962704L467.5,284.1269841266667L478.5,263.5701275046667L489.5,269.523809524L500.5,267.9487179486667L511.5,264.912280702L522.5,258.8477366253333L533.5,279.55010224933335L544.5,255.09499136466667" stroke="#4c78a8" stroke-width="5"/></g></g><path class="foreground" aria-hidden="true" d="" display="none"/></g></g><g class="mark-group role-legend" role="graphics-symbol" aria-roledescription="legend" aria-label="Symbol legend titled 'Basin' for stroke color with 6 values: Arctic, Atlantic, Indian, Lakes, Pacific, Southern Ocean"><g transform="translate(568,0)"><path class="background" aria-hidden="true" d="M0,0h187v169h-187Z" pointer-events="none"/><g><g class="mark-group role-legend-entry"><g transform="translate(0,27)"><path class="background" aria-hidden="true" d="M0,0h0v0h0Z" pointer-events="none"/><g><g class="mark-group role-scope" role="graphics-object" aria-roledescription="group mark container"><g transform="translate(0,0)"><path class="background" aria-hidden="true" d="M0,0h186.2197265625v22h-186.2197265625Z" pointer-events="none" opacity="1"/><g><g class="mark-symbol role-legend-symbol" pointer-events="none"><path transform="translate(11,11)" d="M-5,0L5,0" stroke="#4c78a8" stroke-width="10" opacity="1"/></g><g class="mark-text role-legend-label" pointer-events="none"><text text-anchor="start" transform="translate(26,18)" font-family="sans-serif" font-size="22px" fill="#000" opacity="1">Arctic</text></g></g><path class="foreground" aria-hidden="true" d="" pointer-events="none" display="none"/></g><g transform="translate(0,24)"><path class="background" aria-hidden="true" d="M0,0h186.2197265625v22h-186.2197265625Z" pointer-events="none" opacity="1"/><g><g class="mark-symbol role-legend-symbol" pointer-events="none"><path transform="translate(11,11)" d="M-5,0L5,0" stroke="#f58518" stroke-width="10" opacity="1"/></g><g class="mark-text role-legend-label" pointer-events="none"><text text-anchor="start" transform="translate(26,18)" font-family="sans-serif" font-size="22px" fill="#000" opacity="1">Atlantic</text></g></g><path class="foreground" aria-hidden="true" d="" pointer-events="none" display="none"/></g><g transform="translate(0,48)"><path class="background" aria-hidden="true" d="M0,0h186.2197265625v22h-186.2197265625Z" pointer-events="none" opacity="1"/><g><g class="mark-symbol role-legend-symbol" pointer-events="none"><path transform="translate(11,11)" d="M-5,0L5,0" stroke="#e45756" stroke-width="10" opacity="1"/></g><g class="mark-text role-legend-label" pointer-events="none"><text text-anchor="start" transform="translate(26,18)" font-family="sans-serif" font-size="22px" fill="#000" opacity="1">Indian</text></g></g><path class="foreground" aria-hidden="true" d="" pointer-events="none" display="none"/></g><g transform="translate(0,72)"><path class="background" aria-hidden="true" d="M0,0h186.2197265625v22h-186.2197265625Z" pointer-events="none" opacity="1"/><g><g class="mark-symbol role-legend-symbol" pointer-events="none"><path transform="translate(11,11)" d="M-5,0L5,0" stroke="#72b7b2" stroke-width="10" opacity="1"/></g><g class="mark-text role-legend-label" pointer-events="none"><text text-anchor="start" transform="translate(26,18)" font-family="sans-serif" font-size="22px" fill="#000" opacity="1">Lakes</text></g></g><path class="foreground" aria-hidden="true" d="" pointer-events="none" display="none"/></g><g transform="translate(0,96)"><path class="background" aria-hidden="true" d="M0,0h186.2197265625v22h-186.2197265625Z" pointer-events="none" opacity="1"/><g><g class="mark-symbol role-legend-symbol" pointer-events="none"><path transform="translate(11,11)" d="M-5,0L5,0" stroke="#54a24b" stroke-width="10" opacity="1"/></g><g class="mark-text role-legend-label" pointer-events="none"><text text-anchor="start" transform="translate(26,18)" font-family="sans-serif" font-size="22px" fill="#000" opacity="1">Pacific</text></g></g><path class="foreground" aria-hidden="true" d="" pointer-events="none" display="none"/></g><g transform="translate(0,120)"><path class="background" aria-hidden="true" d="M0,0h186.2197265625v22h-186.2197265625Z" pointer-events="none" opacity="1"/><g><g class="mark-symbol role-legend-symbol" pointer-events="none"><path transform="translate(11,11)" d="M-5,0L5,0" stroke="#eeca3b" stroke-width="10" opacity="1"/></g><g class="mark-text role-legend-label" pointer-events="none"><text text-anchor="start" transform="translate(26,18)" font-family="sans-serif" font-size="22px" fill="#000" opacity="1">Southern Ocean</text></g></g><path class="foreground" aria-hidden="true" d="" pointer-events="none" display="none"/></g></g></g><path class="foreground" aria-hidden="true" d="" pointer-events="none" display="none"/></g></g><g class="mark-text role-legend-title" pointer-events="none"><text text-anchor="start" transform="translate(0,17)" font-family="sans-serif" font-size="22px" font-weight="bold" fill="#000" opacity="1">Basin</text></g></g><path class="foreground" aria-hidden="true" d="" pointer-events="none" display="none"/></g></g><g class="mark-group role-title"><g transform="translate(275,-35)"><path class="background" aria-hidden="true" d="M0,0h0v0h0Z" pointer-events="none"/><g><g class="mark-text role-title-text" role="graphics-symbol" aria-roledescription="title" aria-label="Title text 'Articles by ocean basin per year'" pointer-events="none"><text text-anchor="middle" transform="translate(0,17)" font-family="sans-serif" font-size="22px" font-weight="bold" fill="#000" opacity="1">Articles by ocean basin per year</text></g></g><path class="foreground" aria-hidden="true" d="" pointer-events="none" display="none"/></g></g></g><path class="foreground" aria-hidden="true" d="" display="none"/></g></g></g></svg>