<svg xmlns="http://www.w3.org/2000/svg" xmlns:xlink="http://www.w3.org/1999/xlink" version="1.1" class="marks" width="1228" height="423" viewBox="0 0 1228 423"><rect width="1228" height="423" fill="white"/><g fill="none" stroke-miterlimit="10" transform="translate(218,32)"><g class="mark-group role-frame root" role="graphics-object" aria-roledescription="group mark container"><g transform="translate(0,0)"><path class="background" aria-hidden="true" d="M0.5,0.5h800v340h-800Z" stroke="#ddd"/><g><g class="mark-group role-axis" role="graphics-symbol" aria-roledescription="axis" aria-label="X-axis for a linear scale with values from 0 to 6"><g transform="translate(0.5,340.5)"><path class="background" aria-hidden="true" d="M0,0h0v0h0Z" pointer-events="none"/><g><g class="mark-rule role-axis-grid" pointer-events="none"><line transform="translate(0,0)" x2="0" y2="-340" stroke="#ddd" stroke-width="1" opacity="1"/><line transform="translate(27,0)" x2="0" y2="-340" stroke="#ddd" stroke-width="1" opacity="1"/><line transform="translate(53,0)" x2="0" y2="-340" stroke="#ddd" stroke-width="1" opacity="1"/><line transform="translate(80,0)" x2="0" y2="-340" stroke="#ddd" stroke-width="1" opacity="1"/><line transform="translate(107,0)" x2="0" y2="-340" stroke="#ddd" stroke-width="1" opacity="1"/><line transform="translate(133,0)" x2="0" y2="-340" stroke="#ddd" stroke-width="1" opacity="1"/><line transform="translate(160,0)" x2="0" y2="-340" stroke="#ddd" stroke-width="1" opacity="1"/><line transform="translate(187,0)" x2="0" y2="-340" stroke="#ddd" stroke-width="1" opacity="1"/><line transform="translate(213,0)" x2="0" y2="-340" stroke="#ddd" stroke-width="1" opacity="1"/><line transform="translate(240,0)" x2="0" y2="-340" stroke="#ddd" stroke-width="1" opacity="1"/><line transform="translate(267,0)" x2="0" y2="-340" stroke="#ddd" stroke-width="1" opacity="1"/><line transform="translate(293,0)" x2="0" y2="-340" stroke="#ddd" stroke-width="1" opacity="1"/><line transform="translate(320,0)" x2="0" y2="-340" stroke="#ddd" stroke-width="1" opacity="1"/><line transform="translate(347,0)" x2="0" y2="-340" stroke="#ddd" stroke-width="1" opacity="1"/><line transform="translate(373,0)" x2="0" y2="-340" stroke="#ddd" stroke-width="1" opacity="1"/><line transform="translate(400,0)" x2="0" y2="-340" stroke="#ddd" stroke-width="1" opacity="1"/><line transform="translate(427,0)" x2="0" y2="-340" stroke="#ddd" stroke-width="1" opacity="1"/><line transform="translate(453,0)" x2="0" y2="-340" stroke="#ddd" stroke-width="1" opacity="1"/><line transform="translate(480,0)" x2="0" y2="-340" stroke="#ddd" stroke-width="1" opacity="1"/><line transform="translate(507,0)" x2="0" y2="-340" stroke="#ddd" stroke-width="1" opacity="1"/><line transform="translate(533,0)" x2="0" y2="-340" stroke="#ddd" stroke-width="1" opacity="1"/><line transform="translate(560,0)" x2="0" y2="-340" stroke="#ddd" stroke-width="1" opacity="1"/><line transform="translate(587,0)" x2="0" y2="-340" stroke="#ddd" stroke-width="1" opacity="1"/><line transform="translate(613,0)" x2="0" y2="-340" stroke="#ddd" stroke-width="1" opacity="1"/><line transform="translate(640,0)" x2="0" y2="-340" stroke="#ddd" stroke-width="1" opacity="1"/><line transform="translate(667,0)" x2="0" y2="-340" stroke="#ddd" stroke-width="1" opacity="1"/><line transform="translate(693,0)" x2="0" y2="-340" stroke="#ddd" stroke-width="1" opacity="1"/><line transform="translate(720,0)" x2="0" y2="-340" stroke="#ddd" stroke-width="1" opacity="1"/><line transform="translate(747,0)" x2="0" y2="-340" stroke="#ddd" stroke-width="1" opacity="1"/><line transform="translate(773,0)" x2="0" y2="-340" stroke="#ddd" stroke-width="1" opacity="1"/><line transform="translate(800,0)" x2="0" y2="-340" stroke="#ddd" stroke-width="1" opacity="1"/></g></g><path class="foreground" aria-hidden="true" d="" pointer-events="none" display="none"/></g></g><g class="mark-group role-axis" role="graphics-symbol" aria-roledescription="axis" aria-label="X-axis titled '% of total articles' for a linear scale with values from 0 to 6"><g transform="translate(0.5,340.5)"><path class="background" aria-hidden="true" d="M0,0h0v0h0Z" pointer-events="none"/><g><g class="mark-rule role-axis-tick" pointer-events="none"><line transform="translate(0,0)" x2="0" y2="5" stroke="#888" stroke-width="1" opacity="1"/><line transform="translate(27,0)" x2="0" y2="5" stroke="#888" stroke-width="1" opacity="1"/><line transform="translate(53,0)" x2="0" y2="5" stroke="#888" stroke-width="1" opacity="1"/><line transform="translate(80,0)" x2="0" y2="5" stroke="#888" stroke-width="1" opacity="1"/><line transform="translate(107,0)" x2="0" y2="5" stroke="#888" stroke-width="1" opacity="1"/><line transform="translate(133,0)" x2="0" y2="5" stroke="#888" stroke-width="1" opacity="1"/><line transform="translate(160,0)" x2="0" y2="5" stroke="#888" stroke-width="1" opacity="1"/><line transform="translate(187,0)" x2="0" y2="5" stroke="#888" stroke-width="1" opacity="1"/><line transform="translate(213,0)" x2="0" y2="5" stroke="#888" stroke-width="1" opacity="1"/><line transform="translate(240,0)" x2="0" y2="5" stroke="#888" stroke-width="1" opacity="1"/><line transform="translate(267,0)" x2="0" y2="5" stroke="#888" stroke-width="1" opacity="1"/><line transform="translate(293,0)" x2="0" y2="5" stroke="#888" stroke-width="1" opacity="1"/><line transform="translate(320,0)" x2="0" y2="5" stroke="#888" stroke-width="1" opacity="1"/><line transform="translate(347,0)" x2="0" y2="5" stroke="#888" stroke-width="1" opacity="1"/><line transform="translate(373,0)" x2="0" y2="5" stroke="#888" stroke-width="1" opacity="1"/><line transform="translate(400,0)" x2="0" y2="5" stroke="#888" stroke-width="1" opacity="1"/><line transform="translate(427,0)" x2="0" y2="5" stroke="#888" stroke-width="1" opacity="1"/><line transform="translate(453,0)" x2="0" y2="5" stroke="#888" stroke-width="1" opacity="1"/><line transform="translate(480,0)" x2="0" y2="5" stroke="#888" stroke-width="1" opacity="1"/><line transform="translate(507,0)" x2="0" y2="5" stroke="#888" stroke-width="1" opacity="1"/><line transform="translate(533,0)" x2="0" y2="5" stroke="#888" stroke-width="1" opacity="1"/><line transform="translate(560,0)" x2="0" y2="5" stroke="#888" stroke-width="1" opacity="1"/><line transform="translate(587,0)" x2="0" y2="5" stroke="#888" stroke-width="1" opacity="1"/><line transform="translate(613,0)" x2="0" y2="5" stroke="#888" stroke-width="1" opacity="1"/><line transform="translate(640,0)" x2="0" y2="5" stroke="#888" stroke-width="1" opacity="1"/><line transform="translate(667,0)" x2="0" y2="5" stroke="#888" stroke-width="1" opacity="1"/><line transform="translate(693,0)" x2="0" y2="5" stroke="#888" stroke-width="1" opacity="1"/><line transform="translate(720,0)" x2="0" y2="5" stroke="#888" stroke-width="1" opacity="1"/><line transform="translate(747,0)" x2="0" y2="5" stroke="#888" stroke-width="1" opacity="1"/><line transform="translate(773,0)" x2="0" y2="5" stroke="#888" stroke-width="1" opacity="1"/><line transform="translate(800,0)" x2="0" y2="5" stroke="#888" stroke-width="1" opacity="1"/></g><g class="mark-text role-axis-label" pointer-events="none"><text text-anchor="start" transform="translate(0,18)" font-family="sans-serif" font-size="14px" fill="#000" opacity="1">0.0</text><text text-anchor="middle" transform="translate(26.666666666666668,18)" font-family="sans-serif" font-size="14px" fill="#000" opacity="0">0.2</text><text text-anchor="middle" transform="translate(53.333333333333336,18)" font-family="sans-serif" font-size="14px" fill="#000" opacity="1">0.4</text><text text-anchor="middle" transform="translate(80,18)" font-family="sans-serif" font-size="14px" fill="#000" opacity="0">0.6</text><text text-anchor="middle" transform="translate(106.66666666666667,18)" font-family="sans-serif" font-size="14px" fill="#000" opacity="1">0.8</text><text text-anchor="middle" transform="translate(133.33333333333331,18)" font-family="sans-serif" font-size="14px" fill="#000" opacity="0">1.0</text><text text-anchor="middle" transform="translate(160,18)" font-family="sans-serif" font-size="14px" fill="#000" opacity="1">1.2</text><text text-anchor="middle" transform="translate(186.66666666666666,18)" font-family="sans-serif" font-size="14px" fill="#000" opacity="0">1.4</text><text text-anchor="middle" transform="translate(213.33333333333334,18)" font-family="sans-serif" font-size="14px" fill="#000" opacity="1">1.6</text><text text-anchor="middle" transform="translate(240,18)" font-family="sans-serif" font-size="14px" fill="#000" opacity="0">1.8</text><text text-anchor="middle" transform="translate(266.66666666666663,18)" font-family="sans-serif" font-size="14px" fill="#000" opacity="1">2.0</text><text text-anchor="middle" transform="translate(293.33333333333337,18)" font-family="sans-serif" font-size="14px" fill="#000" opacity="0">2.2</text><text text-anchor="middle" transform="translate(320,18)" font-family="sans-serif" font-size="14px" fill="#000" opacity="1">2.4</text><text text-anchor="middle" transform="translate(346.6666666666667,18)" font-family="sans-serif" font-size="14px" fill="#000" opacity="0">2.6</text><text text-anchor="middle" transform="translate(373.3333333333333,18)" font-family="sans-serif" font-size="14px" fill="#000" opacity="1">2.8</text><text text-anchor="middle" transform="translate(400,18)" font-family="sans-serif" font-size="14px" fill="#000" opacity="0">3.0</text><text text-anchor="middle" transform="translate(426.6666666666667,18)" font-family="sans-serif" font-size="14px" fill="#000" opacity="1">3.2</text><text text-anchor="middle" transform="translate(453.3333333333333,18)" font-family="sans-serif" font-size="14px" fill="#000" opacity="0">3.4</text><text text-anchor="middle" transform="translate(480,18)" font-family="sans-serif" font-size="14px" fill="#000" opacity="1">3.6</text><text text-anchor="middle" transform="translate(506.66666666666663,18)" font-family="sans-serif" font-size="14px" fill="#000" opacity="0">3.8</text><text text-anchor="middle" transform="translate(533.3333333333333,18)" font-family="sans-serif" font-size="14px" fill="#000" opacity="1">4.0</text><text text-anchor="middle" transform="translate(560,18)" font-family="sans-serif" font-size="14px" fill="#000" opacity="0">4.2</text><text text-anchor="middle" transform="translate(586.6666666666667,18)" font-family="sans-serif" font-size="14px" fill="#000" opacity="1">4.4</text><text text-anchor="middle" transform="translate(613.3333333333333,18)" font-family="sans-serif" font-size="14px" fill="#000" opacity="0">4.6</text><text text-anchor="middle" transform="translate(640,18)" font-family="sans-serif" font-size="14px" fill="#000" opacity="1">4.8</text><text text-anchor="middle" transform="translate(666.6666666666667,18)" font-family="sans-serif" font-size="14px" fill="#000" opacity="0">5.0</text><text text-anchor="middle" transform="translate(693.3333333333334,18)" font-family="sans-serif" font-size="14px" fill="#000" opacity="1">5.2</text><text text-anchor="middle" transform="translate(720,18)" font-family="sans-serif" font-size="14px" fill="#000" opacity="0">5.4</text><text text-anchor="middle" transform="translate(746.6666666666666,18)" font-family="sans-serif" font-size="14px" fill="#000" opacity="1">5.6</text><text text-anchor="middle" transform="translate(773.3333333333334,18)" font-family="sans-serif" font-size="14px" fill="#000" opacity="0">5.8</text><text text-anchor="end" transform="translate(800,18)" font-family="sans-serif" font-size="14px" fill="#000" opacity="1">6.0</text></g><g class="mark-rule role-axis-domain" pointer-events="none"><line transform="translate(0,0)" x2="800" y2="0" stroke="#888" stroke-width="1" opacity="1"/></g><g class="mark-text role-axis-title" pointer-events="none"><text text-anchor="middle" transform="translate(400,42)" font-family="sans-serif" font-size="22px" font-weight="bold" fill="#000" opacity="1">% of total articles</text></g></g><path class="foreground" aria-hidden="true" d="" pointer-events="none" display="none"/></g></g><g class="mark-rect role-mark marks" role="graphics-symbol" aria-roledescription="rect mark container"><path d="M0,80h154.62064005333335v20h-154.62064005333335Z" fill="#54a24b"/><path d="M0,40h399.13700108v20h-399.13700108Z" fill="#54a24b"/><path d="M0,280h14.383315360000001v20h-14.383315360000001Z" fill="#72b7b2"/><path d="M0,200h57.533261413333335v20h-57.533261413333335Z" fill="#72b7b2"/><path d="M0,220h43.149946066666665v20h-43.149946066666665Z" fill="#4c78a8"/><path d="M0,240h32.36245954666666v20h-32.36245954666666Z" fill="#f58518"/><path d="M0,60h255.3038475333333v20h-255.3038475333333Z" fill="#e45756"/><path d="M0,180h64.72491909333333v20h-64.72491909333333Z" fill="#f58518"/><path d="M0,0h773.1032002933333v20h-773.1032002933333Z" fill="#f58518"/><path d="M0,320h12.585400933333332v20h-12.585400933333332Z" fill="#e45756"/><path d="M0,20h427.90363178666666v20h-427.90363178666666Z" fill="#e45756"/><path d="M0,120h145.63106796v20h-145.63106796Z" fill="#f58518"/><path d="M0,140h80.90614886666665v20h-80.90614886666665Z" fill="#f58518"/><path d="M0,160h71.91657677333333v20h-71.91657677333333Z" fill="#e45756"/><path d="M0,260h26.968716293333333v20h-26.968716293333333Z" fill="#4c78a8"/><path d="M0,100h152.82272564000002v20h-152.82272564000002Z" fill="#e45756"/><path d="M0,300h14.383315360000001v20h-14.383315360000001Z" fill="#f58518"/></g><g class="mark-group role-legend" role="graphics-symbol" aria-roledescription="legend" aria-label="Symbol legend titled 'Basin' for fill color with 5 values: Indian Ocean, North Atlantic, Pacific, South Atlantic, Southern Ocean"><g transform="translate(818,0)"><path class="background" aria-hidden="true" d="M0,0h187v145h-187Z" pointer-events="none"/><g><g class="mark-group role-legend-entry"><g transform="translate(0,27)"><path class="background" aria-hidden="true" d="M0,0h0v0h0Z" pointer-events="none"/><g><g class="mark-group role-scope" role="graphics-object" aria-roledescription="group mark container"><g transform="translate(0,0)"><path class="background" aria-hidden="true" d="M0,0h186.2197265625v22h-186.2197265625Z" pointer-events="none" opacity="1"/><g><g class="mark-symbol role-legend-symbol" pointer-events="none"><path transform="translate(11,11)" d="M-5,-5h10v10h-10Z" fill="#4c78a8" stroke-width="10" opacity="1"/></g><g class="mark-text role-legend-label" pointer-events="none"><text text-anchor="start" transform="translate(26,18)" font-family="sans-serif" font-size="22px" fill="#000" opacity="1">Indian Ocean</text></g></g><path class="foreground" aria-hidden="true" d="" pointer-events="none" display="none"/></g><g transform="translate(0,24)"><path class="background" aria-hidden="true" d="M0,0h186.2197265625v22h-186.2197265625Z" pointer-events="none" opacity="1"/><g><g class="mark-symbol role-legend-symbol" pointer-events="none"><path transform="translate(11,11)" d="M-5,-5h10v10h-10Z" fill="#f58518" stroke-width="10" opacity="1"/></g><g class="mark-text role-legend-label" pointer-events="none"><text text-anchor="start" transform="translate(26,18)" font-family="sans-serif" font-size="22px" fill="#000" opacity="1">North Atlantic</text></g></g><path class="foreground" aria-hidden="true" d="" pointer-events="none" display="none"/></g><g transform="translate(0,48)"><path class="background" aria-hidden="true" d="M0,0h186.2197265625v22h-186.2197265625Z" pointer-events="none" opacity="1"/><g><g class="mark-symbol role-legend-symbol" pointer-events="none"><path transform="translate(11,11)" d="M-5,-5h10v10h-10Z" fill="#e45756" stroke-width="10" opacity="1"/></g><g class="mark-text role-legend-label" pointer-events="none"><text text-anchor="start" transform="translate(26,18)" font-family="sans-serif" font-size="22px" fill="#000" opacity="1">Pacific</text></g></g><path class="foreground" aria-hidden="true" d="" pointer-events="none" display="none"/></g><g transform="translate(0,72)"><path class="background" aria-hidden="true" d="M0,0h186.2197265625v22h-186.2197265625Z" pointer-events="none" opacity="1"/><g><g class="mark-symbol role-legend-symbol" pointer-events="none"><path transform="translate(11,11)" d="M-5,-5h10v10h-10Z" fill="#72b7b2" stroke-width="10" opacity="1"/></g><g class="mark-text role-legend-label" pointer-events="none"><text text-anchor="start" transform="translate(26,18)" font-family="sans-serif" font-size="22px" fill="#000" opacity="1">South Atlantic</text></g></g><path class="foreground" aria-hidden="true" d="" pointer-events="none" display="none"/></g><g transform="translate(0,96)"><path class="background" aria-hidden="true" d="M0,0h186.2197265625v22h-186.2197265625Z" pointer-events="none" opacity="1"/><g><g class="mark-symbol role-legend-symbol" pointer-events="none"><path transform="translate(11,11)" d="M-5,-5h10v10h-10Z" fill="#54a24b" stroke-width="10" opacity="1"/></g><g class="mark-text role-legend-label" pointer-events="none"><text text-anchor="start" transform="translate(26,18)" font-family="sans-serif" font-size="22px" fill="#000" opacity="1">Southern Ocean</text></g></g><path class="foreground" aria-hidden="true" d="" pointer-events="none" display="none"/></g></g></g><path class="foreground" aria-hidden="true" d="" pointer-events="none" display="none"/></g></g><g class="mark-text role-legend-title" pointer-events="none"><text text-anchor="start" transform="translate(0,17)" font-family="sans-serif" font-size="22px" font-weight="bold" fill="#000" opacity="1">Basin</text></g></g><path class="foreground" aria-hidden="true" d="" pointer-events="none" display="none"/></g></g><g class="mark-group role-title"><g transform="translate(400,-26)"><path class="background" aria-hidden="true" d="M0,0h0v0h0Z" pointer-events="none"/><g><g class="mark-text role-title-text" role="graphics-symbol" aria-roledescription="title" aria-label="Title text 'Ocean currents'" pointer-events="none"><text text-anchor="middle" transform="translate(0,17)" font-family="sans-serif" font-size="22px" font-weight="bold" fill="#000" opacity="1">Ocean currents</text></g></g><path class="foreground" aria-hidden="true" d="" pointer-events="none" display="none"/></g></g><g class="mark-group role-axis" role="graphics-symbol" aria-roledescription="axis" aria-label="Y-axis titled 'Name' for a discrete scale with 17 values: Gulf Stream, Kuroshio, Antarctic Circumpolar Current, Equatorial Undercurrent, Agulhas, ending with Hawaiian Ridge Current"><g transform="translate(0.5,0.5)"><path class="background" aria-hidden="true" d="M0,0h0v0h0Z" pointer-events="none"/><g><g class="mark-rule role-axis-tick" pointer-events="none"><line transform="translate(0,10)" x2="-5" y2="0" stroke="#888" stroke-width="1" opacity="1"/><line transform="translate(0,30)" x2="-5" y2="0" stroke="#888" stroke-width="1" opacity="1"/><line transform="translate(0,50)" x2="-5" y2="0" stroke="#888" stroke-width="1" opacity="1"/><line transform="translate(0,70)" x2="-5" y2="0" stroke="#888" stroke-width="1" opacity="1"/><line transform="translate(0,90)" x2="-5" y2="0" stroke="#888" stroke-width="1" opacity="1"/><line transform="translate(0,110)" x2="-5" y2="0" stroke="#888" stroke-width="1" opacity="1"/><line transform="translate(0,130)" x2="-5" y2="0" stroke="#888" stroke-width="1" opacity="1"/><line transform="translate(0,150)" x2="-5" y2="0" stroke="#888" stroke-width="1" opacity="1"/><line transform="translate(0,170)" x2="-5" y2="0" stroke="#888" stroke-width="1" opacity="1"/><line transform="translate(0,190)" x2="-5" y2="0" stroke="#888" stroke-width="1" opacity="1"/><line transform="translate(0,210)" x2="-5" y2="0" stroke="#888" stroke-width="1" opacity="1"/><line transform="translate(0,230)" x2="-5" y2="0" stroke="#888" stroke-width="1" opacity="1"/><line transform="translate(0,250)" x2="-5" y2="0" stroke="#888" stroke-width="1" opacity="1"/><line transform="translate(0,270)" x2="-5" y2="0" stroke="#888" stroke-width="1" opacity="1"/><line transform="translate(0,290)" x2="-5" y2="0" stroke="#888" stroke-width="1" opacity="1"/><line transform="translate(0,310)" x2="-5" y2="0" stroke="#888" stroke-width="1" opacity="1"/><line transform="translate(0,330)" x2="-5" y2="0" stroke="#888" stroke-width="1" opacity="1"/></g><g class="mark-text role-axis-label" pointer-events="none"><text text-anchor="end" transform="translate(-7,13.5)" font-family="sans-serif" font-size="14px" fill="#000" opacity="1">Gulf Stream</text><text text-anchor="end" transform="translate(-7,33.5)" font-family="sans-serif" font-size="14px" fill="#000" opacity="1">Kuroshio</text><text text-anchor="end" transform="translate(-7,53.5)" font-family="sans-serif" font-size="14px" fill="#000" opacity="1">Antarctic Circumpolar Curr…</text><text text-anchor="end" transform="translate(-7,73.5)" font-family="sans-serif" font-size="14px" fill="#000" opacity="1">Equatorial Undercurrent</text><text text-anchor="end" transform="translate(-7,93.5)" font-family="sans-serif" font-size="14px" fill="#000" opacity="1">Agulhas</text><text text-anchor="end" transform="translate(-7,113.5)" font-family="sans-serif" font-size="14px" fill="#000" opacity="1">South Equatorial Current</text><text text-anchor="end" transform="translate(-7,133.5)" font-family="sans-serif" font-size="14px" fill="#000" opacity="1">Loop Current</text><text text-anchor="end" transform="translate(-7,153.5)" font-family="sans-serif" font-size="14px" fill="#000" opacity="1">North Atlantic Current</text><text text-anchor="end" transform="translate(-7,173.5)" font-family="sans-serif" font-size="14px" fill="#000" opacity="1">North Equatorial Current</text><text text-anchor="end" transform="translate(-7,193.5)" font-family="sans-serif" font-size="14px" fill="#000" opacity="1">Florida Current</text><text text-anchor="end" transform="translate(-7,213.5)" font-family="sans-serif" font-size="14px" fill="#000" opacity="1">Brazil Current</text><text text-anchor="end" transform="translate(-7,233.5)" font-family="sans-serif" font-size="14px" fill="#000" opacity="1">East Australian Current</text><text text-anchor="end" transform="translate(-7,253.5)" font-family="sans-serif" font-size="14px" fill="#000" opacity="1">East Greenland Current</text><text text-anchor="end" transform="translate(-7,273.5)" font-family="sans-serif" font-size="14px" fill="#000" opacity="1">Somali Current</text><text text-anchor="end" transform="translate(-7,293.5)" font-family="sans-serif" font-size="14px" fill="#000" opacity="1">Benguela Current</text><text text-anchor="end" transform="translate(-7,313.5)" font-family="sans-serif" font-size="14px" fill="#000" opacity="1">West Greenland Current</text><text text-anchor="end" transform="translate(-7,333.5)" font-family="sans-serif" font-size="14px" fill="#000" opacity="1">Hawaiian Ridge Current</text></g><g class="mark-rule role-axis-domain" pointer-events="none"><line transform="translate(0,0)" x2="0" y2="340" stroke="#888" stroke-width="1" opacity="1"/></g><g class="mark-text role-axis-title" pointer-events="none"><text text-anchor="middle" transform="translate(-189.923828125,170) rotate(-90) translate(0,-5)" font-family="sans-serif" font-size="22px" font-weight="bold" fill="#000" opacity="1">Name</text></g></g><path class="foreground" aria-hidden="true" d="" pointer-events="none" display="none"/></g></g></g><path class="foreground" aria-hidden="true" d="" display="none"/></g></g></g></svg>