<svg xmlns="http://www.w3.org/2000/svg" xmlns:xlink="http://www.w3.org/1999/xlink" version="1.1" class="marks" width="994" height="408" viewBox="0 0 994 408"><rect width="994" height="408" fill="white"/><g fill="none" stroke-miterlimit="10" transform="translate(55,39)"><g class="mark-group role-frame root" role="graphics-object" aria-roledescription="group mark container"><g transform="translate(0,0)"><path class="background" aria-hidden="true" d="M0.5,0.5h600v300h-600Z" stroke="#ddd"/><g><g class="mark-group role-axis" role="graphics-symbol" aria-roledescription="axis" aria-label="Y-axis for a linear scale with values from 0 to 11"><g transform="translate(0.5,0.5)"><path class="background" aria-hidden="true" d="M0,0h0v0h0Z" pointer-events="none"/><g><g class="mark-rule role-axis-grid" pointer-events="none"><line transform="translate(0,300)" x2="600" y2="0" stroke="#ddd" stroke-width="1" opacity="1"/><line transform="translate(0,273)" x2="600" y2="0" stroke="#ddd" stroke-width="1" opacity="1"/><line transform="translate(0,245)" x2="600" y2="0" stroke="#ddd" stroke-width="1" opacity="1"/><line transform="translate(0,218)" x2="600" y2="0" stroke="#ddd" stroke-width="1" opacity="1"/><line transform="translate(0,191)" x2="600" y2="0" stroke="#ddd" stroke-width="1" opacity="1"/><line transform="translate(0,164)" x2="600" y2="0" stroke="#ddd" stroke-width="1" opacity="1"/><line transform="translate(0,136)" x2="600" y2="0" stroke="#ddd" stroke-width="1" opacity="1"/><line transform="translate(0,109)" x2="600" y2="0" stroke="#ddd" stroke-width="1" opacity="1"/><line transform="translate(0,82)" x2="600" y2="0" stroke="#ddd" stroke-width="1" opacity="1"/><line transform="translate(0,55)" x2="600" y2="0" stroke="#ddd" stroke-width="1" opacity="1"/><line transform="translate(0,27)" x2="600" y2="0" stroke="#ddd" stroke-width="1" opacity="1"/><line transform="translate(0,0)" x2="600" y2="0" stroke="#ddd" stroke-width="1" opacity="1"/></g></g><path class="foreground" aria-hidden="true" d="" pointer-events="none" display="none"/></g></g><g class="mark-group role-axis" role="graphics-symbol" aria-roledescription="axis" aria-label="X-axis titled 'Year' for a discrete scale with 50 values: 1971, 1972, 1973, 1974, 1975, ending with 2020"><g transform="translate(0.5,300.5)"><path class="background" aria-hidden="true" d="M0,0h0v0h0Z" pointer-events="none"/><g><g class="mark-rule role-axis-tick" pointer-events="none"><line transform="translate(6,0)" x2="0" y2="5" stroke="#888" stroke-width="1" opacity="1"/><line transform="translate(18,0)" x2="0" y2="5" stroke="#888" stroke-width="1" opacity="1"/><line transform="translate(30,0)" x2="0" y2="5" stroke="#888" stroke-width="1" opacity="1"/><line transform="translate(42,0)" x2="0" y2="5" stroke="#888" stroke-width="1" opacity="1"/><line transform="translate(54,0)" x2="0" y2="5" stroke="#888" stroke-width="1" opacity="1"/><line transform="translate(66,0)" x2="0" y2="5" stroke="#888" stroke-width="1" opacity="1"/><line transform="translate(78,0)" x2="0" y2="5" stroke="#888" stroke-width="1" opacity="1"/><line transform="translate(90,0)" x2="0" y2="5" stroke="#888" stroke-width="1" opacity="1"/><line transform="translate(102,0)" x2="0" y2="5" stroke="#888" stroke-width="1" opacity="1"/><line transform="translate(114,0)" x2="0" y2="5" stroke="#888" stroke-width="1" opacity="1"/><line transform="translate(126,0)" x2="0" y2="5" stroke="#888" stroke-width="1" opacity="1"/><line transform="translate(138,0)" x2="0" y2="5" stroke="#888" stroke-width="1" opacity="1"/><line transform="translate(150,0)" x2="0" y2="5" stroke="#888" stroke-width="1" opacity="1"/><line transform="translate(162,0)" x2="0" y2="5" stroke="#888" stroke-width="1" opacity="1"/><line transform="translate(174,0)" x2="0" y2="5" stroke="#888" stroke-width="1" opacity="1"/><line transform="translate(186,0)" x2="0" y2="5" stroke="#888" stroke-width="1" opacity="1"/><line transform="translate(198,0)" x2="0" y2="5" stroke="#888" stroke-width="1" opacity="1"/><line transform="translate(210,0)" x2="0" y2="5" stroke="#888" stroke-width="1" opacity="1"/><line transform="translate(222,0)" x2="0" y2="5" stroke="#888" stroke-width="1" opacity="1"/><line transform="translate(234,0)" x2="0" y2="5" stroke="#888" stroke-width="1" opacity="1"/><line transform="translate(246,0)" x2="0" y2="5" stroke="#888" stroke-width="1" opacity="1"/><line transform="translate(258,0)" x2="0" y2="5" stroke="#888" stroke-width="1" opacity="1"/><line transform="translate(270,0)" x2="0" y2="5" stroke="#888" stroke-width="1" opacity="1"/><line transform="translate(282,0)" x2="0" y2="5" stroke="#888" stroke-width="1" opacity="1"/><line transform="translate(294,0)" x2="0" y2="5" stroke="#888" stroke-width="1" opacity="1"/><line transform="translate(306,0)" x2="0" y2="5" stroke="#888" stroke-width="1" opacity="1"/><line transform="translate(318,0)" x2="0" y2="5" stroke="#888" stroke-width="1" opacity="1"/><line transform="translate(330,0)" x2="0" y2="5" stroke="#888" stroke-width="1" opacity="1"/><line transform="translate(342,0)" x2="0" y2="5" stroke="#888" stroke-width="1" opacity="1"/><line transform="translate(354,0)" x2="0" y2="5" stroke="#888" stroke-width="1" opacity="1"/><line transform="translate(366,0)" x2="0" y2="5" stroke="#888" stroke-width="1" opacity="1"/><line transform="translate(378,0)" x2="0" y2="5" stroke="#888" stroke-width="1" opacity="1"/><line transform="translate(390,0)" x2="0" y2="5" stroke="#888" stroke-width="1" opacity="1"/><line transform="translate(402,0)" x2="0" y2="5" stroke="#888" stroke-width="1" opacity="1"/><line transform="translate(414,0)" x2="0" y2="5" stroke="#888" stroke-width="1" opacity="1"/><line transform="translate(426,0)" x2="0" y2="5" stroke="#888" stroke-width="1" opacity="1"/><line transform="translate(438,0)" x2="0" y2="5" stroke="#888" stroke-width="1" opacity="1"/><line transform="translate(450,0)" x2="0" y2="5" stroke="#888" stroke-width="1" opacity="1"/><line transform="translate(462,0)" x2="0" y2="5" stroke="#888" stroke-width="1" opacity="1"/><line transform="translate(474,0)" x2="0" y2="5" stroke="#888" stroke-width="1" opacity="1"/><line transform="translate(486,0)" x2="0" y2="5" stroke="#888" stroke-width="1" opacity="1"/><line transform="translate(498,0)" x2="0" y2="5" stroke="#888" stroke-width="1" opacity="1"/><line transform="translate(510,0)" x2="0" y2="5" stroke="#888" stroke-width="1" opacity="1"/><line transform="translate(522,0)" x2="0" y2="5" stroke="#888" stroke-width="1" opacity="1"/><line transform="translate(534,0)" x2="0" y2="5" stroke="#888" stroke-width="1" opacity="1"/><line transform="translate(546,0)" x2="0" y2="5" stroke="#888" stroke-width="1" opacity="1"/><line transform="translate(558,0)" x2="0" y2="5" stroke="#888" stroke-width="1" opacity="1"/><line transform="translate(570,0)" x2="0" y2="5" stroke="#888" stroke-width="1" opacity="1"/><line transform="translate(582,0)" x2="0" y2="5" stroke="#888" stroke-width="1" opacity="1"/><line transform="translate(594,0)" x2="0" y2="5" stroke="#888" stroke-width="1" opacity="1"/></g><g class="mark-text role-axis-label" pointer-events="none"><text text-anchor="end" transform="translate(6,7) rotate(270) translate(0,4)" font-family="sans-serif" font-size="14px" fill="#000" opacity="1">1971</text><text text-anchor="end" transform="translate(18,7) rotate(270) translate(0,4)" font-family="sans-serif" font-size="14px" fill="#000" opacity="0">1972</text><text text-anchor="end" transform="translate(30,7) rotate(270) translate(0,4)" font-family="sans-serif" font-size="14px" fill="#000" opacity="1">1973</text><text text-anchor="end" transform="translate(42,7) rotate(270) translate(0,4)" font-family="sans-serif" font-size="14px" fill="#000" opacity="0">1974</text><text text-anchor="end" transform="translate(54,7) rotate(270) translate(0,4)" font-family="sans-serif" font-size="14px" fill="#000" opacity="1">1975</text><text text-anchor="end" transform="translate(66,7) rotate(270) translate(0,4)" font-family="sans-serif" font-size="14px" fill="#000" opacity="0">1976</text><text text-anchor="end" transform="translate(78,7) rotate(270) translate(0,4)" font-family="sans-serif" font-size="14px" fill="#000" opacity="1">1977</text><text text-anchor="end" transform="translate(90,7) rotate(270) translate(0,4)" font-family="sans-serif" font-size="14px" fill="#000" opacity="0">1978</text><text text-anchor="end" transform="translate(102,7) rotate(270) translate(0,4)" font-family="sans-serif" font-size="14px" fill="#000" opacity="1">1979</text><text text-anchor="end" transform="translate(114,7) rotate(270) translate(0,4)" font-family="sans-serif" font-size="14px" fill="#000" opacity="0">1980</text><text text-anchor="end" transform="translate(126,7) rotate(270) translate(0,4)" font-family="sans-serif" font-size="14px" fill="#000" opacity="1">1981</text><text text-anchor="end" transform="translate(138,7) rotate(270) translate(0,4)" font-family="sans-serif" font-size="14px" fill="#000" opacity="0">1982</text><text text-anchor="end" transform="translate(150,7) rotate(270) translate(0,4)" font-family="sans-serif" font-size="14px" fill="#000" opacity="1">1983</text><text text-anchor="end" transform="translate(162,7) rotate(270) translate(0,4)" font-family="sans-serif" font-size="14px" fill="#000" opacity="0">1984</text><text text-anchor="end" transform="translate(174,7) rotate(270) translate(0,4)" font-family="sans-serif" font-size="14px" fill="#000" opacity="1">1985</text><text text-anchor="end" transform="translate(186,7) rotate(270) translate(0,4)" font-family="sans-serif" font-size="14px" fill="#000" opacity="0">1986</text><text text-anchor="end" transform="translate(198,7) rotate(270) translate(0,4)" font-family="sans-serif" font-size="14px" fill="#000" opacity="1">1987</text><text text-anchor="end" transform="translate(210,7) rotate(270) translate(0,4)" font-family="sans-serif" font-size="14px" fill="#000" opacity="0">1988</text><text text-anchor="end" transform="translate(222,7) rotate(270) translate(0,4)" font-family="sans-serif" font-size="14px" fill="#000" opacity="1">1989</text><text text-anchor="end" transform="translate(234,7) rotate(270) translate(0,4)" font-family="sans-serif" font-size="14px" fill="#000" opacity="0">1990</text><text text-anchor="end" transform="translate(246,7) rotate(270) translate(0,4)" font-family="sans-serif" font-size="14px" fill="#000" opacity="1">1991</text><text text-anchor="end" transform="translate(258,7) rotate(270) translate(0,4)" font-family="sans-serif" font-size="14px" fill="#000" opacity="0">1992</text><text text-anchor="end" transform="translate(270,7) rotate(270) translate(0,4)" font-family="sans-serif" font-size="14px" fill="#000" opacity="1">1993</text><text text-anchor="end" transform="translate(282,7) rotate(270) translate(0,4)" font-family="sans-serif" font-size="14px" fill="#000" opacity="0">1994</text><text text-anchor="end" transform="translate(294,7) rotate(270) translate(0,4)" font-family="sans-serif" font-size="14px" fill="#000" opacity="1">1995</text><text text-anchor="end" transform="translate(306,7) rotate(270) translate(0,4)" font-family="sans-serif" font-size="14px" fill="#000" opacity="0">1996</text><text text-anchor="end" transform="translate(318,7) rotate(270) translate(0,4)" font-family="sans-serif" font-size="14px" fill="#000" opacity="1">1997</text><text text-anchor="end" transform="translate(330,7) rotate(270) translate(0,4)" font-family="sans-serif" font-size="14px" fill="#000" opacity="0">1998</text><text text-anchor="end" transform="translate(342,7) rotate(270) translate(0,4)" font-family="sans-serif" font-size="14px" fill="#000" opacity="1">1999</text><text text-anchor="end" transform="translate(354,7) rotate(270) translate(0,4)" font-family="sans-serif" font-size="14px" fill="#000" opacity="0">2000</text><text text-anchor="end" transform="translate(366,7) rotate(270) translate(0,4)" font-family="sans-serif" font-size="14px" fill="#000" opacity="1">2001</text><text text-anchor="end" transform="translate(378,7) rotate(270) translate(0,4)" font-family="sans-serif" font-size="14px" fill="#000" opacity="0">2002</text><text text-anchor="end" transform="translate(390,7) rotate(270) translate(0,4)" font-family="sans-serif" font-size="14px" fill="#000" opacity="1">2003</text><text text-anchor="end" transform="translate(402,7) rotate(270) translate(0,4)" font-family="sans-serif" font-size="14px" fill="#000" opacity="0">2004</text><text text-anchor="end" transform="translate(414,7) rotate(270) translate(0,4)" font-family="sans-serif" font-size="14px" fill="#000" opacity="1">2005</text><text text-anchor="end" transform="translate(426,7) rotate(270) translate(0,4)" font-family="sans-serif" font-size="14px" fill="#000" opacity="0">2006</text><text text-anchor="end" transform="translate(438,7) rotate(270) translate(0,4)" font-family="sans-serif" font-size="14px" fill="#000" opacity="1">2007</text><text text-anchor="end" transform="translate(450,7) rotate(270) translate(0,4)" font-family="sans-serif" font-size="14px" fill="#000" opacity="0">2008</text><text text-anchor="end" transform="translate(462,7) rotate(270) translate(0,4)" font-family="sans-serif" font-size="14px" fill="#000" opacity="1">2009</text><text text-anchor="end" transform="translate(474,7) rotate(270) translate(0,4)" font-family="sans-serif" font-size="14px" fill="#000" opacity="0">2010</text><text text-anchor="end" transform="translate(486,7) rotate(270) translate(0,4)" font-family="sans-serif" font-size="14px" fill="#000" opacity="1">2011</text><text text-anchor="end" transform="translate(498,7) rotate(270) translate(0,4)" font-family="sans-serif" font-size="14px" fill="#000" opacity="0">2012</text><text text-anchor="end" transform="translate(510,7) rotate(270) translate(0,4)" font-family="sans-serif" font-size="14px" fill="#000" opacity="1">2013</text><text text-anchor="end" transform="translate(522,7) rotate(270) translate(0,4)" font-family="sans-serif" font-size="14px" fill="#000" opacity="0">2014</text><text text-anchor="end" transform="translate(534,7) rotate(270) translate(0,4)" font-family="sans-serif" font-size="14px" fill="#000" opacity="1">2015</text><text text-anchor="end" transform="translate(546,7) rotate(270) translate(0,4)" font-family="sans-serif" font-size="14px" fill="#000" opacity="0">2016</text><text text-anchor="end" transform="translate(558,7) rotate(270) translate(0,4)" font-family="sans-serif" font-size="14px" fill="#000" opacity="1">2017</text><text text-anchor="end" transform="translate(570,7) rotate(270) translate(0,4)" font-family="sans-serif" font-size="14px" fill="#000" opacity="0">2018</text><text text-anchor="end" transform="translate(582,7) rotate(270) translate(0,4)" font-family="sans-serif" font-size="14px" fill="#000" opacity="1">2019</text><text text-anchor="end" transform="translate(594,7) rotate(270) translate(0,4)" font-family="sans-serif" font-size="14px" fill="#000" opacity="0">2020</text></g><g class="mark-rule role-axis-domain" pointer-events="none"><line transform="translate(0,0)" x2="600" y2="0" stroke="#888" stroke-width="1" opacity="1"/></g><g class="mark-text role-axis-title" pointer-events="none"><text text-anchor="middle" transform="translate(300,59.14453125)" font-family="sans-serif" font-size="22px" font-weight="bold" fill="#000" opacity="1">Year</text></g></g><path class="foreground" aria-hidden="true" d="" pointer-events="none" display="none"/></g></g><g class="mark-group role-axis" role="graphics-symbol" aria-roledescription="axis" aria-label="Y-axis titled '% of Articles' for a linear scale with values from 0 to 11"><g transform="translate(0.5,0.5)"><path class="background" aria-hidden="true" d="M0,0h0v0h0Z" pointer-events="none"/><g><g class="mark-rule role-axis-tick" pointer-events="none"><line transform="translate(0,300)" x2="-5" y2="0" stroke="#888" stroke-width="1" opacity="1"/><line transform="translate(0,273)" x2="-5" y2="0" stroke="#888" stroke-width="1" opacity="1"/><line transform="translate(0,245)" x2="-5" y2="0" stroke="#888" stroke-width="1" opacity="1"/><line transform="translate(0,218)" x2="-5" y2="0" stroke="#888" stroke-width="1" opacity="1"/><line transform="translate(0,191)" x2="-5" y2="0" stroke="#888" stroke-width="1" opacity="1"/><line transform="translate(0,164)" x2="-5" y2="0" stroke="#888" stroke-width="1" opacity="1"/><line transform="translate(0,136)" x2="-5" y2="0" stroke="#888" stroke-width="1" opacity="1"/><line transform="translate(0,109)" x2="-5" y2="0" stroke="#888" stroke-width="1" opacity="1"/><line transform="translate(0,82)" x2="-5" y2="0" stroke="#888" stroke-width="1" opacity="1"/><line transform="translate(0,55)" x2="-5" y2="0" stroke="#888" stroke-width="1" opacity="1"/><line transform="translate(0,27)" x2="-5" y2="0" stroke="#888" stroke-width="1" opacity="1"/><line transform="translate(0,0)" x2="-5" y2="0" stroke="#888" stroke-width="1" opacity="1"/></g><g class="mark-text role-axis-label" pointer-events="none"><text text-anchor="end" transform="translate(-7,304)" font-family="sans-serif" font-size="14px" fill="#000" opacity="1">0</text><text text-anchor="end" transform="translate(-7,276.7272727272727)" font-family="sans-serif" font-size="14px" fill="#000" opacity="1">1</text><text text-anchor="end" transform="translate(-7,249.45454545454544)" font-family="sans-serif" font-size="14px" fill="#000" opacity="1">2</text><text text-anchor="end" transform="translate(-7,222.1818181818182)" font-family="sans-serif" font-size="14px" fill="#000" opacity="1">3</text><text text-anchor="end" transform="translate(-7,194.9090909090909)" font-family="sans-serif" font-size="14px" fill="#000" opacity="1">4</text><text text-anchor="end" transform="translate(-7,167.63636363636363)" font-family="sans-serif" font-size="14px" fill="#000" opacity="1">5</text><text text-anchor="end" transform="translate(-7,140.36363636363637)" font-family="sans-serif" font-size="14px" fill="#000" opacity="1">6</text><text text-anchor="end" transform="translate(-7,113.0909090909091)" font-family="sans-serif" font-size="14px" fill="#000" opacity="1">7</text><text text-anchor="end" transform="translate(-7,85.81818181818181)" font-family="sans-serif" font-size="14px" fill="#000" opacity="1">8</text><text text-anchor="end" transform="translate(-7,58.54545454545453)" font-family="sans-serif" font-size="14px" fill="#000" opacity="1">9</text><text text-anchor="end" transform="translate(-7,31.27272727272728)" font-family="sans-serif" font-size="14px" fill="#000" opacity="1">10</text><text text-anchor="end" transform="translate(-7,4)" font-family="sans-serif" font-size="14px" fill="#000" opacity="1">11</text></g><g class="mark-rule role-axis-domain" pointer-events="none"><line transform="translate(0,300)" x2="0" y2="-300" stroke="#888" stroke-width="1" opacity="1"/></g><g class="mark-text role-axis-title" pointer-events="none"><text text-anchor="middle" transform="translate(-26.572265625,150) rotate(-90) translate(0,-5)" font-family="sans-serif" font-size="22px" font-weight="bold" fill="#000" opacity="1">% of Articles</text></g></g><path class="foreground" aria-hidden="true" d="" pointer-events="none" display="none"/></g></g><g class="mark-group role-scope pathgroup" role="graphics-object" aria-roledescription="group mark container"><g transform="translate(0,0)"><path class="background" aria-hidden="true" d="M0,0h600v300h-600Z"/><g><g class="mark-line role-mark marks" role="graphics-symbol" aria-roledescription="line mark container"><path d="M6,273.26203208545456L18,279.9465240640909L30,283.9572192512727L42,293.8016528923636L54,293.8016528923636L66,293.8016528923636L78,289.13964823036366L90,289.13964823036366L102,295.337995338L114,290.83010653254547L126,290.83010653254547L138,295.49211119454543L150,295.49211119454543L162,288.9597214287273L174,290.35072711745454L186,273.82180149763633L198,269.68957009254547L210,257.198244624L222,263.7306343898182L234,266.84751750654544L246,273.5188308589091L258,268.5093659716364L270,275.7305992134545L282,269.35101388636366L294,269.35101388636366L306,279.20862615381816L318,269.16347913872727L330,271.6925937501818L342,270.4256200287273L354,260.37115836109086L366,253.71927366054544L378,261.17591168945455L390,260.50779839563637L402,260.4718990576364L414,255.20460383072728L426,258.6289468423637L438,264.735909384L450,258.74061157854544L462,258.2207459732727L474,265.91376796636365L486,262.6478031616364L498,262.30979403545456L510,262.36353339927274L522,260.07634690145454L534,258.13570381254544L546,257.89520357236364L558,253.81741472181818L570,254.68949600836365L582,265.179006498L594,262.06339505945454" stroke="#4c78a8" stroke-width="3"/></g></g><path class="foreground" aria-hidden="true" d="" display="none"/></g><g transform="translate(0,0)"><path class="background" aria-hidden="true" d="M0,0h600v300h-600Z"/><g><g class="mark-line role-mark marks" role="graphics-symbol" aria-roledescription="line mark container"><path d="M6,268.79740179327274L18,278.83644250690907L30,287.3150105710909L42,287.3150105710909L54,277.0334928229091L66,271.52385094963637L78,262.19984162563634L90,262.19984162563634L102,262.19984162563634L114,280.6584599972727L126,283.1208697729091L138,292.4448790969091L150,284.3037664783636L162,284.3037664783636L174,285.6947721670909L186,288.74200426472726L198,280.4775414545455L210,280.29110376054547L222,270.886715046L234,268.9994280207273L246,259.1418157532727L258,252.1701180758182L270,244.68739170872726L282,234.95302444254546L294,228.74922447272726L306,223.02242115599998L318,227.29467118199997L330,226.6590821694545L342,217.76045497254543L354,208.85950174963634L366,197.8363785310909L378,194.13753239454542L390,186.71976172309093L402,191.70976974054543L414,187.30388204345456L426,201.00125409000003L438,198.794282478L450,200.7143451741818L462,186.85126237145457L474,180.85113379745457L486,148.30675509927275L498,132.3895980638182L510,120.04745744563638L522,125.48938394018184L534,124.10639691109093L546,156.09292889727274L558,158.76269200145455L570,173.26508080418182L582,156.60527002636366L594,150.44822837400005" stroke="#f58518" stroke-width="3"/></g></g><path class="foreground" aria-hidden="true" d="" display="none"/></g><g transform="translate(0,0)"><path class="background" aria-hidden="true" d="M0,0h600v300h-600Z"/><g><g class="mark-line role-mark marks" role="graphics-symbol" aria-roledescription="line mark container"><path d="M6,115.21494314072731L18,101.34379548763641L30,98.71118074636367L42,115.8477874554546L54,119.45299497709097L66,151.62536805872728L78,162.97960521927274L90,129.45148949945457L102,119.43160507745455L114,108.80247778909094L126,97.90631453127274L138,86.22216534709094L150,72.96676403181822L162,74.78404539545454L174,66.87592046236365L186,28.185306860727287L198,18.784480414363614L210,50.509961268545425L222,37.98016193290906L234,25.91296307672726L246,46.02647497527271L258,44.895305484545446L270,34.93845185018184L282,32.43611450236369L294,78.81037615909095L306,105.33204725945458L318,116.32658316927275L330,133.60665943963642L342,162.34460455690913L354,165.9428622425455L366,172.1196123218182L378,183.71718965127275L390,196.82248887490914L402,206.9461022629091L414,197.51298373200004L426,197.90658637690913L438,224.54140815600005L450,232.18247398690914L462,231.1427427769091L474,240.4000840058182L486,230.58297803454548L498,227.26434297709093L510,211.7336667567273L522,194.04740564945456L534,190.1661194716364L546,196.05837536400003L558,178.22947792145456L570,189.03359608309094L582,223.12450517400006L594,229.57827172581824" stroke="#e45756" stroke-width="3"/></g></g><path class="foreground" aria-hidden="true" d="" display="none"/></g><g transform="translate(0,0)"><path class="background" aria-hidden="true" d="M0,0h600v300h-600Z"/><g><g class="mark-line role-mark marks" role="graphics-symbol" aria-roledescription="line mark container"><path d="M6,236.67302882072732L18,254.64615009872733L30,253.83313672254553L42,253.8331367225455L54,266.51812615145457L66,259.7294602718182L78,263.8651095687273L90,278.80906971818183L102,266.5055837307273L114,243.9661397034546L126,254.40060112800006L138,248.83533306272733L150,244.7647767534546L162,244.0034832092728L174,247.84162853509096L186,245.67162992018189L198,235.2377456225455L210,222.65320130727275L222,212.20700905200005L234,220.89996747000004L246,216.02094725727275L258,221.44594379454549L270,211.75058328600002L282,222.50238441927277L294,217.56676455327275L306,222.9180397838182L318,224.44931219454546L330,223.38999717436366L342,215.75834369890913L354,220.64784218072728L366,211.81033822145457L378,202.05481574127276L390,215.82822825818187L402,205.4892188405455L414,200.22192361363642L426,197.48638523072734L438,212.51193168272735L450,201.06992541327278L462,190.78813900090915L474,179.40932374036367L486,179.29405439454547L498,157.92265918527278L510,148.71531480545463L522,160.88078091818184L534,158.8732191021819L546,161.51872174745458L558,164.55420582490916L570,179.05659462763643L582,184.87843559250007L594,194.3514707418183" stroke="#72b7b2" stroke-width="3"/></g></g><path class="foreground" aria-hidden="true" d="" display="none"/></g></g><g class="mark-group role-legend" role="graphics-symbol" aria-roledescription="legend" aria-label="Symbol legend titled 'Current' for stroke color with 4 values: Agulhas, Antarctic Circumpolar Current, Gulf Stream, Kuroshio"><g transform="translate(618,0)"><path class="background" aria-hidden="true" d="M0,0h316v121h-316Z" pointer-events="none"/><g><g class="mark-group role-legend-entry"><g transform="translate(0,27)"><path class="background" aria-hidden="true" d="M0,0h0v0h0Z" pointer-events="none"/><g><g class="mark-group role-scope" role="graphics-object" aria-roledescription="group mark container"><g transform="translate(0,0)"><path class="background" aria-hidden="true" d="M0,0h315.7490234375v22h-315.7490234375Z" pointer-events="none" opacity="1"/><g><g class="mark-symbol role-legend-symbol" pointer-events="none"><path transform="translate(11,11)" d="M-5,0L5,0" stroke="#4c78a8" stroke-width="10" opacity="1"/></g><g class="mark-text role-legend-label" pointer-events="none"><text text-anchor="start" transform="translate(26,18)" font-family="sans-serif" font-size="22px" fill="#000" opacity="1">Agulhas</text></g></g><path class="foreground" aria-hidden="true" d="" pointer-events="none" display="none"/></g><g transform="translate(0,24)"><path class="background" aria-hidden="true" d="M0,0h315.7490234375v22h-315.7490234375Z" pointer-events="none" opacity="1"/><g><g class="mark-symbol role-legend-symbol" pointer-events="none"><path transform="translate(11,11)" d="M-5,0L5,0" stroke="#f58518" stroke-width="10" opacity="1"/></g><g class="mark-text role-legend-label" pointer-events="none"><text text-anchor="start" transform="translate(26,18)" font-family="sans-serif" font-size="22px" fill="#000" opacity="1">Antarctic Circumpolar Current</text></g></g><path class="foreground" aria-hidden="true" d="" pointer-events="none" display="none"/></g><g transform="translate(0,48)"><path class="background" aria-hidden="true" d="M0,0h315.7490234375v22h-315.7490234375Z" pointer-events="none" opacity="1"/><g><g class="mark-symbol role-legend-symbol" pointer-events="none"><path transform="translate(11,11)" d="M-5,0L5,0" stroke="#e45756" stroke-width="10" opacity="1"/></g><g class="mark-text role-legend-label" pointer-events="none"><text text-anchor="start" transform="translate(26,18)" font-family="sans-serif" font-size="22px" fill="#000" opacity="1">Gulf Stream</text></g></g><path class="foreground" aria-hidden="true" d="" pointer-events="none" display="none"/></g><g transform="translate(0,72)"><path class="background" aria-hidden="true" d="M0,0h315.7490234375v22h-315.7490234375Z" pointer-events="none" opacity="1"/><g><g class="mark-symbol role-legend-symbol" pointer-events="none"><path transform="translate(11,11)" d="M-5,0L5,0" stroke="#72b7b2" stroke-width="10" opacity="1"/></g><g class="mark-text role-legend-label" pointer-events="none"><text text-anchor="start" transform="translate(26,18)" font-family="sans-serif" font-size="22px" fill="#000" opacity="1">Kuroshio</text></g></g><path class="foreground" aria-hidden="true" d="" pointer-events="none" display="none"/></g></g></g><path class="foreground" aria-hidden="true" d="" pointer-events="none" display="none"/></g></g><g class="mark-text role-legend-title" pointer-events="none"><text text-anchor="start" transform="translate(0,17)" font-family="sans-serif" font-size="22px" font-weight="bold" fill="#000" opacity="1">Current</text></g></g><path class="foreground" aria-hidden="true" d="" pointer-events="none" display="none"/></g></g><g class="mark-group role-title"><g transform="translate(300,-33)"><path class="background" aria-hidden="true" d="M0,0h0v0h0Z" pointer-events="none"/><g><g class="mark-text role-title-text" role="graphics-symbol" aria-roledescription="title" aria-label="Title text 'References to major current systems'" pointer-events="none"><text text-anchor="middle" transform="translate(0,17)" font-family="sans-serif" font-size="22px" font-weight="bold" fill="#000" opacity="1">References to major current systems</text></g></g><path class="foreground" aria-hidden="true" d="" pointer-events="none" display="none"/></g></g></g><path class="foreground" aria-hidden="true" d="" display="none"/></g></g></g></svg>