<svg xmlns="http://www.w3.org/2000/svg" xmlns:xlink="http://www.w3.org/1999/xlink" version="1.1" class="marks" width="819" height="418" viewBox="0 0 819 418"><rect width="819" height="418" fill="white"/><g fill="none" stroke-miterlimit="10" transform="translate(59,41)"><g class="mark-group role-frame root" role="graphics-object" aria-roledescription="group mark container"><g transform="translate(0,0)"><path class="background" aria-hidden="true" d="M0.5,0.5h550v300h-550Z" stroke="#ddd"/><g><g class="mark-group role-axis" role="graphics-symbol" aria-roledescription="axis" aria-label="Y-axis for a linear scale with values from 0 to 22"><g transform="translate(0.5,0.5)"><path class="background" aria-hidden="true" d="M0,0h0v0h0Z" pointer-events="none"/><g><g class="mark-rule role-axis-grid" pointer-events="none"><line transform="translate(0,300)" x2="550" y2="0" stroke="#ddd" stroke-width="1" opacity="1"/><line transform="translate(0,273)" x2="550" y2="0" stroke="#ddd" stroke-width="1" opacity="1"/><line transform="translate(0,245)" x2="550" y2="0" stroke="#ddd" stroke-width="1" opacity="1"/><line transform="translate(0,218)" x2="550" y2="0" stroke="#ddd" stroke-width="1" opacity="1"/><line transform="translate(0,191)" x2="550" y2="0" stroke="#ddd" stroke-width="1" opacity="1"/><line transform="translate(0,164)" x2="550" y2="0" stroke="#ddd" stroke-width="1" opacity="1"/><line transform="translate(0,136)" x2="550" y2="0" stroke="#ddd" stroke-width="1" opacity="1"/><line transform="translate(0,109)" x2="550" y2="0" stroke="#ddd" stroke-width="1" opacity="1"/><line transform="translate(0,82)" x2="550" y2="0" stroke="#ddd" stroke-width="1" opacity="1"/><line transform="translate(0,55)" x2="550" y2="0" stroke="#ddd" stroke-width="1" opacity="1"/><line transform="translate(0,27)" x2="550" y2="0" stroke="#ddd" stroke-width="1" opacity="1"/><line transform="translate(0,0)" x2="550" y2="0" stroke="#ddd" stroke-width="1" opacity="1"/></g></g><path class="foreground" aria-hidden="true" d="" pointer-events="none" display="none"/></g></g><g class="mark-group role-axis" role="graphics-symbol" aria-roledescription="axis" aria-label="X-axis titled 'Year' for a discrete scale with 49 values: 1971, 1972, 1973, 1975, 1976, ending with 2020"><g transform="translate(0.5,300.5)"><path class="background" aria-hidden="true" d="M0,0h0v0h0Z" pointer-events="none"/><g><g class="mark-rule role-axis-tick" pointer-events="none"><line transform="translate(6,0)" x2="0" y2="5" stroke="#888" stroke-width="1" opacity="1"/><line transform="translate(17,0)" x2="0" y2="5" stroke="#888" stroke-width="1" opacity="1"/><line transform="translate(28,0)" x2="0" y2="5" stroke="#888" stroke-width="1" opacity="1"/><line transform="translate(39,0)" x2="0" y2="5" stroke="#888" stroke-width="1" opacity="1"/><line transform="translate(51,0)" x2="0" y2="5" stroke="#888" stroke-width="1" opacity="1"/><line transform="translate(62,0)" x2="0" y2="5" stroke="#888" stroke-width="1" opacity="1"/><line transform="translate(73,0)" x2="0" y2="5" stroke="#888" stroke-width="1" opacity="1"/><line transform="translate(84,0)" x2="0" y2="5" stroke="#888" stroke-width="1" opacity="1"/><line transform="translate(95,0)" x2="0" y2="5" stroke="#888" stroke-width="1" opacity="1"/><line transform="translate(107,0)" x2="0" y2="5" stroke="#888" stroke-width="1" opacity="1"/><line transform="translate(118,0)" x2="0" y2="5" stroke="#888" stroke-width="1" opacity="1"/><line transform="translate(129,0)" x2="0" y2="5" stroke="#888" stroke-width="1" opacity="1"/><line transform="translate(140,0)" x2="0" y2="5" stroke="#888" stroke-width="1" opacity="1"/><line transform="translate(152,0)" x2="0" y2="5" stroke="#888" stroke-width="1" opacity="1"/><line transform="translate(163,0)" x2="0" y2="5" stroke="#888" stroke-width="1" opacity="1"/><line transform="translate(174,0)" x2="0" y2="5" stroke="#888" stroke-width="1" opacity="1"/><line transform="translate(185,0)" x2="0" y2="5" stroke="#888" stroke-width="1" opacity="1"/><line transform="translate(196,0)" x2="0" y2="5" stroke="#888" stroke-width="1" opacity="1"/><line transform="translate(208,0)" x2="0" y2="5" stroke="#888" stroke-width="1" opacity="1"/><line transform="translate(219,0)" x2="0" y2="5" stroke="#888" stroke-width="1" opacity="1"/><line transform="translate(230,0)" x2="0" y2="5" stroke="#888" stroke-width="1" opacity="1"/><line transform="translate(241,0)" x2="0" y2="5" stroke="#888" stroke-width="1" opacity="1"/><line transform="translate(253,0)" x2="0" y2="5" stroke="#888" stroke-width="1" opacity="1"/><line transform="translate(264,0)" x2="0" y2="5" stroke="#888" stroke-width="1" opacity="1"/><line transform="translate(275,0)" x2="0" y2="5" stroke="#888" stroke-width="1" opacity="1"/><line transform="translate(286,0)" x2="0" y2="5" stroke="#888" stroke-width="1" opacity="1"/><line transform="translate(297,0)" x2="0" y2="5" stroke="#888" stroke-width="1" opacity="1"/><line transform="translate(309,0)" x2="0" y2="5" stroke="#888" stroke-width="1" opacity="1"/><line transform="translate(320,0)" x2="0" y2="5" stroke="#888" stroke-width="1" opacity="1"/><line transform="translate(331,0)" x2="0" y2="5" stroke="#888" stroke-width="1" opacity="1"/><line transform="translate(342,0)" x2="0" y2="5" stroke="#888" stroke-width="1" opacity="1"/><line transform="translate(354,0)" x2="0" y2="5" stroke="#888" stroke-width="1" opacity="1"/><line transform="translate(365,0)" x2="0" y2="5" stroke="#888" stroke-width="1" opacity="1"/><line transform="translate(376,0)" x2="0" y2="5" stroke="#888" stroke-width="1" opacity="1"/><line transform="translate(387,0)" x2="0" y2="5" stroke="#888" stroke-width="1" opacity="1"/><line transform="translate(398,0)" x2="0" y2="5" stroke="#888" stroke-width="1" opacity="1"/><line transform="translate(410,0)" x2="0" y2="5" stroke="#888" stroke-width="1" opacity="1"/><line transform="translate(421,0)" x2="0" y2="5" stroke="#888" stroke-width="1" opacity="1"/><line transform="translate(432,0)" x2="0" y2="5" stroke="#888" stroke-width="1" opacity="1"/><line transform="translate(443,0)" x2="0" y2="5" stroke="#888" stroke-width="1" opacity="1"/><line transform="translate(455,0)" x2="0" y2="5" stroke="#888" stroke-width="1" opacity="1"/><line transform="translate(466,0)" x2="0" y2="5" stroke="#888" stroke-width="1" opacity="1"/><line transform="translate(477,0)" x2="0" y2="5" stroke="#888" stroke-width="1" opacity="1"/><line transform="translate(488,0)" x2="0" y2="5" stroke="#888" stroke-width="1" opacity="1"/><line transform="translate(499,0)" x2="0" y2="5" stroke="#888" stroke-width="1" opacity="1"/><line transform="translate(511,0)" x2="0" y2="5" stroke="#888" stroke-width="1" opacity="1"/><line transform="translate(522,0)" x2="0" y2="5" stroke="#888" stroke-width="1" opacity="1"/><line transform="translate(533,0)" x2="0" y2="5" stroke="#888" stroke-width="1" opacity="1"/><line transform="translate(544,0)" x2="0" y2="5" stroke="#888" stroke-width="1" opacity="1"/></g><g class="mark-text role-axis-label" pointer-events="none"><text text-anchor="end" transform="translate(5.612244897959158,7) rotate(270) translate(0,5)" font-family="sans-serif" font-size="18px" fill="#000" opacity="1">1971</text><text text-anchor="end" transform="translate(16.836734693877524,7) rotate(270) translate(0,5)" font-family="sans-serif" font-size="18px" fill="#000" opacity="0">1972</text><text text-anchor="end" transform="translate(28.061224489795894,7) rotate(270) translate(0,5)" font-family="sans-serif" font-size="18px" fill="#000" opacity="1">1973</text><text text-anchor="end" transform="translate(39.28571428571426,7) rotate(270) translate(0,5)" font-family="sans-serif" font-size="18px" fill="#000" opacity="0">1975</text><text text-anchor="end" transform="translate(50.51020408163263,7) rotate(270) translate(0,5)" font-family="sans-serif" font-size="18px" fill="#000" opacity="1">1976</text><text text-anchor="end" transform="translate(61.734693877550995,7) rotate(270) translate(0,5)" font-family="sans-serif" font-size="18px" fill="#000" opacity="0">1977</text><text text-anchor="end" transform="translate(72.95918367346937,7) rotate(270) translate(0,5)" font-family="sans-serif" font-size="18px" fill="#000" opacity="1">1978</text><text text-anchor="end" transform="translate(84.18367346938773,7) rotate(270) translate(0,5)" font-family="sans-serif" font-size="18px" fill="#000" opacity="0">1979</text><text text-anchor="end" transform="translate(95.4081632653061,7) rotate(270) translate(0,5)" font-family="sans-serif" font-size="18px" fill="#000" opacity="1">1980</text><text text-anchor="end" transform="translate(106.63265306122447,7) rotate(270) translate(0,5)" font-family="sans-serif" font-size="18px" fill="#000" opacity="0">1981</text><text text-anchor="end" transform="translate(117.85714285714283,7) rotate(270) translate(0,5)" font-family="sans-serif" font-size="18px" fill="#000" opacity="1">1982</text><text text-anchor="end" transform="translate(129.0816326530612,7) rotate(270) translate(0,5)" font-family="sans-serif" font-size="18px" fill="#000" opacity="0">1983</text><text text-anchor="end" transform="translate(140.30612244897958,7) rotate(270) translate(0,5)" font-family="sans-serif" font-size="18px" fill="#000" opacity="1">1984</text><text text-anchor="end" transform="translate(151.53061224489795,7) rotate(270) translate(0,5)" font-family="sans-serif" font-size="18px" fill="#000" opacity="0">1985</text><text text-anchor="end" transform="translate(162.7551020408163,7) rotate(270) translate(0,5)" font-family="sans-serif" font-size="18px" fill="#000" opacity="1">1986</text><text text-anchor="end" transform="translate(173.97959183673467,7) rotate(270) translate(0,5)" font-family="sans-serif" font-size="18px" fill="#000" opacity="0">1987</text><text text-anchor="end" transform="translate(185.20408163265304,7) rotate(270) translate(0,5)" font-family="sans-serif" font-size="18px" fill="#000" opacity="1">1988</text><text text-anchor="end" transform="translate(196.42857142857142,7) rotate(270) translate(0,5)" font-family="sans-serif" font-size="18px" fill="#000" opacity="0">1989</text><text text-anchor="end" transform="translate(207.6530612244898,7) rotate(270) translate(0,5)" font-family="sans-serif" font-size="18px" fill="#000" opacity="1">1990</text><text text-anchor="end" transform="translate(218.87755102040813,7) rotate(270) translate(0,5)" font-family="sans-serif" font-size="18px" fill="#000" opacity="0">1991</text><text text-anchor="end" transform="translate(230.1020408163265,7) rotate(270) translate(0,5)" font-family="sans-serif" font-size="18px" fill="#000" opacity="1">1992</text><text text-anchor="end" transform="translate(241.32653061224488,7) rotate(270) translate(0,5)" font-family="sans-serif" font-size="18px" fill="#000" opacity="0">1993</text><text text-anchor="end" transform="translate(252.55102040816325,7) rotate(270) translate(0,5)" font-family="sans-serif" font-size="18px" fill="#000" opacity="1">1994</text><text text-anchor="end" transform="translate(263.7755102040816,7) rotate(270) translate(0,5)" font-family="sans-serif" font-size="18px" fill="#000" opacity="0">1995</text><text text-anchor="end" transform="translate(275,7) rotate(270) translate(0,5)" font-family="sans-serif" font-size="18px" fill="#000" opacity="1">1996</text><text text-anchor="end" transform="translate(286.2244897959184,7) rotate(270) translate(0,5)" font-family="sans-serif" font-size="18px" fill="#000" opacity="0">1997</text><text text-anchor="end" transform="translate(297.44897959183675,7) rotate(270) translate(0,5)" font-family="sans-serif" font-size="18px" fill="#000" opacity="1">1998</text><text text-anchor="end" transform="translate(308.67346938775506,7) rotate(270) translate(0,5)" font-family="sans-serif" font-size="18px" fill="#000" opacity="0">1999</text><text text-anchor="end" transform="translate(319.89795918367344,7) rotate(270) translate(0,5)" font-family="sans-serif" font-size="18px" fill="#000" opacity="1">2000</text><text text-anchor="end" transform="translate(331.1224489795918,7) rotate(270) translate(0,5)" font-family="sans-serif" font-size="18px" fill="#000" opacity="0">2001</text><text text-anchor="end" transform="translate(342.3469387755102,7) rotate(270) translate(0,5)" font-family="sans-serif" font-size="18px" fill="#000" opacity="1">2002</text><text text-anchor="end" transform="translate(353.57142857142856,7) rotate(270) translate(0,5)" font-family="sans-serif" font-size="18px" fill="#000" opacity="0">2003</text><text text-anchor="end" transform="translate(364.7959183673469,7) rotate(270) translate(0,5)" font-family="sans-serif" font-size="18px" fill="#000" opacity="1">2004</text><text text-anchor="end" transform="translate(376.0204081632653,7) rotate(270) translate(0,5)" font-family="sans-serif" font-size="18px" fill="#000" opacity="0">2005</text><text text-anchor="end" transform="translate(387.2448979591837,7) rotate(270) translate(0,5)" font-family="sans-serif" font-size="18px" fill="#000" opacity="1">2006</text><text text-anchor="end" transform="translate(398.46938775510205,7) rotate(270) translate(0,5)" font-family="sans-serif" font-size="18px" fill="#000" opacity="0">2007</text><text text-anchor="end" transform="translate(409.6938775510204,7) rotate(270) translate(0,5)" font-family="sans-serif" font-size="18px" fill="#000" opacity="1">2008</text><text text-anchor="end" transform="translate(420.9183673469388,7) rotate(270) translate(0,5)" font-family="sans-serif" font-size="18px" fill="#000" opacity="0">2009</text><text text-anchor="end" transform="translate(432.1428571428571,7) rotate(270) translate(0,5)" font-family="sans-serif" font-size="18px" fill="#000" opacity="1">2010</text><text text-anchor="end" transform="translate(443.3673469387755,7) rotate(270) translate(0,5)" font-family="sans-serif" font-size="18px" fill="#000" opacity="0">2011</text><text text-anchor="end" transform="translate(454.59183673469386,7) rotate(270) translate(0,5)" font-family="sans-serif" font-size="18px" fill="#000" opacity="1">2012</text><text text-anchor="end" transform="translate(465.81632653061223,7) rotate(270) translate(0,5)" font-family="sans-serif" font-size="18px" fill="#000" opacity="0">2013</text><text text-anchor="end" transform="translate(477.0408163265306,7) rotate(270) translate(0,5)" font-family="sans-serif" font-size="18px" fill="#000" opacity="1">2014</text><text text-anchor="end" transform="translate(488.265306122449,7) rotate(270) translate(0,5)" font-family="sans-serif" font-size="18px" fill="#000" opacity="0">2015</text><text text-anchor="end" transform="translate(499.48979591836735,7) rotate(270) translate(0,5)" font-family="sans-serif" font-size="18px" fill="#000" opacity="1">2016</text><text text-anchor="end" transform="translate(510.7142857142857,7) rotate(270) translate(0,5)" font-family="sans-serif" font-size="18px" fill="#000" opacity="0">2017</text><text text-anchor="end" transform="translate(521.9387755102041,7) rotate(270) translate(0,5)" font-family="sans-serif" font-size="18px" fill="#000" opacity="1">2018</text><text text-anchor="end" transform="translate(533.1632653061224,7) rotate(270) translate(0,5)" font-family="sans-serif" font-size="18px" fill="#000" opacity="0">2019</text><text text-anchor="end" transform="translate(544.3877551020408,7) rotate(270) translate(0,5)" font-family="sans-serif" font-size="18px" fill="#000" opacity="1">2020</text></g><g class="mark-rule role-axis-domain" pointer-events="none"><line transform="translate(0,0)" x2="550" y2="0" stroke="#888" stroke-width="1" opacity="1"/></g><g class="mark-text role-axis-title" pointer-events="none"><text text-anchor="middle" transform="translate(275,68)" font-family="sans-serif" font-size="22px" font-weight="bold" fill="#000" opacity="1">Year</text></g></g><path class="foreground" aria-hidden="true" d="" pointer-events="none" display="none"/></g></g><g class="mark-group role-axis" role="graphics-symbol" aria-roledescription="axis" aria-label="Y-axis titled '% of articles in year' for a linear scale with values from 0 to 22"><g transform="translate(0.5,0.5)"><path class="background" aria-hidden="true" d="M0,0h0v0h0Z" pointer-events="none"/><g><g class="mark-rule role-axis-tick" pointer-events="none"><line transform="translate(0,300)" x2="-5" y2="0" stroke="#888" stroke-width="1" opacity="1"/><line transform="translate(0,273)" x2="-5" y2="0" stroke="#888" stroke-width="1" opacity="1"/><line transform="translate(0,245)" x2="-5" y2="0" stroke="#888" stroke-width="1" opacity="1"/><line transform="translate(0,218)" x2="-5" y2="0" stroke="#888" stroke-width="1" opacity="1"/><line transform="translate(0,191)" x2="-5" y2="0" stroke="#888" stroke-width="1" opacity="1"/><line transform="translate(0,164)" x2="-5" y2="0" stroke="#888" stroke-width="1" opacity="1"/><line transform="translate(0,136)" x2="-5" y2="0" stroke="#888" stroke-width="1" opacity="1"/><line transform="translate(0,109)" x2="-5" y2="0" stroke="#888" stroke-width="1" opacity="1"/><line transform="translate(0,82)" x2="-5" y2="0" stroke="#888" stroke-width="1" opacity="1"/><line transform="translate(0,55)" x2="-5" y2="0" stroke="#888" stroke-width="1" opacity="1"/><line transform="translate(0,27)" x2="-5" y2="0" stroke="#888" stroke-width="1" opacity="1"/><line transform="translate(0,0)" x2="-5" y2="0" stroke="#888" stroke-width="1" opacity="1"/></g><g class="mark-text role-axis-label" pointer-events="none"><text text-anchor="end" transform="translate(-7,305)" font-family="sans-serif" font-size="18px" fill="#000" opacity="1">0</text><text text-anchor="end" transform="translate(-7,277.7272727272727)" font-family="sans-serif" font-size="18px" fill="#000" opacity="1">2</text><text text-anchor="end" transform="translate(-7,250.45454545454544)" font-family="sans-serif" font-size="18px" fill="#000" opacity="1">4</text><text text-anchor="end" transform="translate(-7,223.1818181818182)" font-family="sans-serif" font-size="18px" fill="#000" opacity="1">6</text><text text-anchor="end" transform="translate(-7,195.9090909090909)" font-family="sans-serif" font-size="18px" fill="#000" opacity="1">8</text><text text-anchor="end" transform="translate(-7,168.63636363636363)" font-family="sans-serif" font-size="18px" fill="#000" opacity="1">10</text><text text-anchor="end" transform="translate(-7,141.36363636363637)" font-family="sans-serif" font-size="18px" fill="#000" opacity="1">12</text><text text-anchor="end" transform="translate(-7,114.0909090909091)" font-family="sans-serif" font-size="18px" fill="#000" opacity="1">14</text><text text-anchor="end" transform="translate(-7,86.81818181818181)" font-family="sans-serif" font-size="18px" fill="#000" opacity="1">16</text><text text-anchor="end" transform="translate(-7,59.54545454545453)" font-family="sans-serif" font-size="18px" fill="#000" opacity="1">18</text><text text-anchor="end" transform="translate(-7,32.27272727272728)" font-family="sans-serif" font-size="18px" fill="#000" opacity="1">20</text><text text-anchor="end" transform="translate(-7,5)" font-family="sans-serif" font-size="18px" fill="#000" opacity="1">22</text></g><g class="mark-rule role-axis-domain" pointer-events="none"><line transform="translate(0,300)" x2="0" y2="-300" stroke="#888" stroke-width="1" opacity="1"/></g><g class="mark-text role-axis-title" pointer-events="none"><text text-anchor="middle" transform="translate(-31,150) rotate(-90) translate(0,-5)" font-family="sans-serif" font-size="22px" font-weight="bold" fill="#000" opacity="1">% of articles in year</text></g></g><path class="foreground" aria-hidden="true" d="" pointer-events="none" display="none"/></g></g><g class="mark-group role-scope pathgroup" role="graphics-object" aria-roledescription="group mark container"><g transform="translate(0,0)"><path class="background" aria-hidden="true" d="M0,0h550v300h-550Z"/><g><g class="mark-line role-mark marks" role="graphics-symbol" aria-roledescription="line mark container"><path d="M5.612244897959158,259.8930481281818L16.836734693877524,173.15010570818183L28.061224489795894,275.64935064954545L39.28571428571426,262.6400996263636L50.51020408163263,269.00826446318183L61.734693877550995,213.8755980859091L72.95918367346937,203.58126721772726L84.18367346938773,206.75990676000004L95.4081632653061,230.06993007L106.63265306122447,207.7238550927273L117.85714285714283,221.1119459059091L129.0816326530612,261.9095987809091L140.30612244897958,291.4772727272727L151.53061224489795,218.58887381318183L162.7551020408163,251.007076755L173.97959183673467,237.66233766272725L185.20408163265304,207.02479338818182L196.42857142857142,186.3636363640909L207.6530612244898,195.90562109590908L218.87755102040813,147.1786833859091L230.1020408163265,174.89574645545454L241.32653061224488,184.9945235481818L252.55102040816325,178.1107161L263.7755102040816,194.5981554681818L275,164.43381180272726L286.2244897959184,206.60024906590908L297.44897959183675,144.15584415545456L308.67346938775506,87.57423481090909L319.89795918367344,142.39378711772724L331.1224489795918,127.95242141045455L342.3469387755102,142.89903644727272L353.57142857142856,166.96230598636362L364.7959183673469,124.04692082045456L376.0204081632653,155.11363636363637L387.2448979591837,136.7477592831818L398.46938775510205,108.47803881545455L409.6938775510204,170.89833243681818L420.9183673469388,131.3027179009091L432.1428571428571,96.23824451454546L443.3673469387755,115.44771018409092L454.59183673469386,99.74570883681818L465.81632653061223,48.37662337636367L477.0408163265306,69.00149031272726L488.265306122449,97.40259740318183L499.48979591836735,63.98601398590912L510.7142857142857,4.9441786281817945L521.9387755102041,114.81481481454544L533.1632653061224,40.65811489090909L544.3877551020408,144.55958549181818" stroke="#f58518" stroke-width="5"/></g></g><path class="foreground" aria-hidden="true" d="" display="none"/></g><g transform="translate(0,0)"><path class="background" aria-hidden="true" d="M0,0h550v300h-550Z"/><g><g class="mark-line role-mark marks" role="graphics-symbol" aria-roledescription="line mark container"><path d="M39.28571428571426,243.96014943954546L50.51020408163263,238.01652892500002L61.734693877550995,285.645933015L72.95918367346937,272.4517906336364L84.18367346938773,265.03496503499997L95.4081632653061,291.2587412590909L106.63265306122447,279.49419002045454L117.85714285714283,243.6513899318182L129.0816326530612,277.14575926909095L140.30612244897958,265.9090909090909L151.53061224489795,289.8236092268182L162.7551020408163,275.5035383781818L173.97959183673467,253.24675324636365L185.20408163265304,196.69421487545455L196.42857142857142,227.68595041363636L207.6530612244898,258.36224843863636L218.87755102040813,194.20062695863638L230.1020408163265,199.91659716409092L241.32653061224488,234.28258488545455L252.55102040816325,200.9649568309091L263.7755102040816,240.71146245L275,196.3317384368182L286.2244897959184,206.60024906590908L297.44897959183675,134.41558441499998L308.67346938775506,176.65600730863636L319.89795918367344,217.77067153909093L331.1224489795918,159.81308411181817L342.3469387755102,180.60326769954546L353.57142857142856,158.6474501113636L364.7959183673469,146.0410557190909L376.0204081632653,214.77272727272725L387.2448979591837,117.54161331681819L398.46938775510205,154.44330949909093L409.6938775510204,162.82947821454545L420.9183673469388,131.3027179009091L432.1428571428571,135.42319749272727L443.3673469387755,176.9651401227273L454.59183673469386,137.88938334409093L465.81632653061223,145.77922077954548L477.0408163265306,173.32339791409092L488.265306122449,105.194805195L499.48979591836735,136.1013986018182L510.7142857142857,28.86762360409093L521.9387755102041,72.7272727268182L533.1632653061224,65.75571667636365L544.3877551020408,116.297691945" stroke="#4c78a8" stroke-width="5"/></g></g><path class="foreground" aria-hidden="true" d="" display="none"/></g></g><g class="mark-group role-legend" role="graphics-symbol" aria-roledescription="legend" aria-label="Symbol legend titled 'Basin' for stroke color with 2 values: Idealized Ocean, Southern Ocean"><g transform="translate(568,0)"><path class="background" aria-hidden="true" d="M0,0h187v73h-187Z" pointer-events="none"/><g><g class="mark-group role-legend-entry"><g transform="translate(0,27)"><path class="background" aria-hidden="true" d="M0,0h0v0h0Z" pointer-events="none"/><g><g class="mark-group role-scope" role="graphics-object" aria-roledescription="group mark container"><g transform="translate(0,0)"><path class="background" aria-hidden="true" d="M0,0h186.1666717529297v22h-186.1666717529297Z" pointer-events="none" opacity="1"/><g><g class="mark-symbol role-legend-symbol" pointer-events="none"><path transform="translate(11,11)" d="M-5,0L5,0" stroke="#4c78a8" stroke-width="10" opacity="1"/></g><g class="mark-text role-legend-label" pointer-events="none"><text text-anchor="start" transform="translate(26,18)" font-family="sans-serif" font-size="22px" fill="#000" opacity="1">Idealized Ocean</text></g></g><path class="foreground" aria-hidden="true" d="" pointer-events="none" display="none"/></g><g transform="translate(0,24)"><path class="background" aria-hidden="true" d="M0,0h186.1666717529297v22h-186.1666717529297Z" pointer-events="none" opacity="1"/><g><g class="mark-symbol role-legend-symbol" pointer-events="none"><path transform="translate(11,11)" d="M-5,0L5,0" stroke="#f58518" stroke-width="10" opacity="1"/></g><g class="mark-text role-legend-label" pointer-events="none"><text text-anchor="start" transform="translate(26,18)" font-family="sans-serif" font-size="22px" fill="#000" opacity="1">Southern Ocean</text></g></g><path class="foreground" aria-hidden="true" d="" pointer-events="none" display="none"/></g></g></g><path class="foreground" aria-hidden="true" d="" pointer-events="none" display="none"/></g></g><g class="mark-text role-legend-title" pointer-events="none"><text text-anchor="start" transform="translate(0,17)" font-family="sans-serif" font-size="22px" font-weight="bold" fill="#000" opacity="1">Basin</text></g></g><path class="foreground" aria-hidden="true" d="" pointer-events="none" display="none"/></g></g><g class="mark-group role-title"><g transform="translate(275,-35)"><path class="background" aria-hidden="true" d="M0,0h0v0h0Z" pointer-events="none"/><g><g class="mark-text role-title-text" role="graphics-symbol" aria-roledescription="title" aria-label="Title text 'Arrival of a new ocean basin'" pointer-events="none"><text text-anchor="middle" transform="translate(0,17)" font-family="sans-serif" font-size="22px" font-weight="bold" fill="#000" opacity="1">Arrival of a new ocean basin</text></g></g><path class="foreground" aria-hidden="true" d="" pointer-events="none" display="none"/></g></g></g><path class="foreground" aria-hidden="true" d="" display="none"/></g></g></g></svg>