<svg xmlns="http://www.w3.org/2000/svg" xmlns:xlink="http://www.w3.org/1999/xlink" version="1.1" class="marks" width="698" height="419" viewBox="0 0 698 419"><rect width="698" height="419" fill="white"/><g fill="none" stroke-miterlimit="10" transform="translate(60,41)"><g class="mark-group role-frame root" role="graphics-object" aria-roledescription="group mark container"><g transform="translate(0,0)"><path class="background" aria-hidden="true" d="M0.5,0.5h500v300h-500Z" stroke="#ddd"/><g><g class="mark-group role-axis" role="graphics-symbol" aria-roledescription="axis" aria-label="Y-axis for a linear scale with values from 0 to 60"><g transform="translate(0.5,0.5)"><path class="background" aria-hidden="true" d="M0,0h0v0h0Z" pointer-events="none"/><g><g class="mark-rule role-axis-grid" pointer-events="none"><line transform="translate(0,300)" x2="500" y2="0" stroke="#ddd" stroke-width="1" opacity="1"/><line transform="translate(0,250)" x2="500" y2="0" stroke="#ddd" stroke-width="1" opacity="1"/><line transform="translate(0,200)" x2="500" y2="0" stroke="#ddd" stroke-width="1" opacity="1"/><line transform="translate(0,150)" x2="500" y2="0" stroke="#ddd" stroke-width="1" opacity="1"/><line transform="translate(0,100)" x2="500" y2="0" stroke="#ddd" stroke-width="1" opacity="1"/><line transform="translate(0,50)" x2="500" y2="0" stroke="#ddd" stroke-width="1" opacity="1"/><line transform="translate(0,0)" x2="500" y2="0" stroke="#ddd" stroke-width="1" opacity="1"/></g></g><path class="foreground" aria-hidden="true" d="" pointer-events="none" display="none"/></g></g><g class="mark-group role-axis" role="graphics-symbol" aria-roledescription="axis" aria-label="X-axis titled 'year' for a discrete scale with 50 values: 1971, 1972, 1973, 1974, 1975, ending with 2020"><g transform="translate(0.5,300.5)"><path class="background" aria-hidden="true" d="M0,0h0v0h0Z" pointer-events="none"/><g><g class="mark-rule role-axis-tick" pointer-events="none"><line transform="translate(5,0)" x2="0" y2="5" stroke="#888" stroke-width="1" opacity="1"/><line transform="translate(15,0)" x2="0" y2="5" stroke="#888" stroke-width="1" opacity="1"/><line transform="translate(25,0)" x2="0" y2="5" stroke="#888" stroke-width="1" opacity="1"/><line transform="translate(35,0)" x2="0" y2="5" stroke="#888" stroke-width="1" opacity="1"/><line transform="translate(45,0)" x2="0" y2="5" stroke="#888" stroke-width="1" opacity="1"/><line transform="translate(55,0)" x2="0" y2="5" stroke="#888" stroke-width="1" opacity="1"/><line transform="translate(65,0)" x2="0" y2="5" stroke="#888" stroke-width="1" opacity="1"/><line transform="translate(75,0)" x2="0" y2="5" stroke="#888" stroke-width="1" opacity="1"/><line transform="translate(85,0)" x2="0" y2="5" stroke="#888" stroke-width="1" opacity="1"/><line transform="translate(95,0)" x2="0" y2="5" stroke="#888" stroke-width="1" opacity="1"/><line transform="translate(105,0)" x2="0" y2="5" stroke="#888" stroke-width="1" opacity="1"/><line transform="translate(115,0)" x2="0" y2="5" stroke="#888" stroke-width="1" opacity="1"/><line transform="translate(125,0)" x2="0" y2="5" stroke="#888" stroke-width="1" opacity="1"/><line transform="translate(135,0)" x2="0" y2="5" stroke="#888" stroke-width="1" opacity="1"/><line transform="translate(145,0)" x2="0" y2="5" stroke="#888" stroke-width="1" opacity="1"/><line transform="translate(155,0)" x2="0" y2="5" stroke="#888" stroke-width="1" opacity="1"/><line transform="translate(165,0)" x2="0" y2="5" stroke="#888" stroke-width="1" opacity="1"/><line transform="translate(175,0)" x2="0" y2="5" stroke="#888" stroke-width="1" opacity="1"/><line transform="translate(185,0)" x2="0" y2="5" stroke="#888" stroke-width="1" opacity="1"/><line transform="translate(195,0)" x2="0" y2="5" stroke="#888" stroke-width="1" opacity="1"/><line transform="translate(205,0)" x2="0" y2="5" stroke="#888" stroke-width="1" opacity="1"/><line transform="translate(215,0)" x2="0" y2="5" stroke="#888" stroke-width="1" opacity="1"/><line transform="translate(225,0)" x2="0" y2="5" stroke="#888" stroke-width="1" opacity="1"/><line transform="translate(235,0)" x2="0" y2="5" stroke="#888" stroke-width="1" opacity="1"/><line transform="translate(245,0)" x2="0" y2="5" stroke="#888" stroke-width="1" opacity="1"/><line transform="translate(255,0)" x2="0" y2="5" stroke="#888" stroke-width="1" opacity="1"/><line transform="translate(265,0)" x2="0" y2="5" stroke="#888" stroke-width="1" opacity="1"/><line transform="translate(275,0)" x2="0" y2="5" stroke="#888" stroke-width="1" opacity="1"/><line transform="translate(285,0)" x2="0" y2="5" stroke="#888" stroke-width="1" opacity="1"/><line transform="translate(295,0)" x2="0" y2="5" stroke="#888" stroke-width="1" opacity="1"/><line transform="translate(305,0)" x2="0" y2="5" stroke="#888" stroke-width="1" opacity="1"/><line transform="translate(315,0)" x2="0" y2="5" stroke="#888" stroke-width="1" opacity="1"/><line transform="translate(325,0)" x2="0" y2="5" stroke="#888" stroke-width="1" opacity="1"/><line transform="translate(335,0)" x2="0" y2="5" stroke="#888" stroke-width="1" opacity="1"/><line transform="translate(345,0)" x2="0" y2="5" stroke="#888" stroke-width="1" opacity="1"/><line transform="translate(355,0)" x2="0" y2="5" stroke="#888" stroke-width="1" opacity="1"/><line transform="translate(365,0)" x2="0" y2="5" stroke="#888" stroke-width="1" opacity="1"/><line transform="translate(375,0)" x2="0" y2="5" stroke="#888" stroke-width="1" opacity="1"/><line transform="translate(385,0)" x2="0" y2="5" stroke="#888" stroke-width="1" opacity="1"/><line transform="translate(395,0)" x2="0" y2="5" stroke="#888" stroke-width="1" opacity="1"/><line transform="translate(405,0)" x2="0" y2="5" stroke="#888" stroke-width="1" opacity="1"/><line transform="translate(415,0)" x2="0" y2="5" stroke="#888" stroke-width="1" opacity="1"/><line transform="translate(425,0)" x2="0" y2="5" stroke="#888" stroke-width="1" opacity="1"/><line transform="translate(435,0)" x2="0" y2="5" stroke="#888" stroke-width="1" opacity="1"/><line transform="translate(445,0)" x2="0" y2="5" stroke="#888" stroke-width="1" opacity="1"/><line transform="translate(455,0)" x2="0" y2="5" stroke="#888" stroke-width="1" opacity="1"/><line transform="translate(465,0)" x2="0" y2="5" stroke="#888" stroke-width="1" opacity="1"/><line transform="translate(475,0)" x2="0" y2="5" stroke="#888" stroke-width="1" opacity="1"/><line transform="translate(485,0)" x2="0" y2="5" stroke="#888" stroke-width="1" opacity="1"/><line transform="translate(495,0)" x2="0" y2="5" stroke="#888" stroke-width="1" opacity="1"/></g><g class="mark-text role-axis-label" pointer-events="none"><text text-anchor="end" transform="translate(5,7) rotate(270) translate(0,5)" font-family="sans-serif" font-size="18px" fill="#000" opacity="1">1971</text><text text-anchor="end" transform="translate(15,7) rotate(270) translate(0,5)" font-family="sans-serif" font-size="18px" fill="#000" opacity="0">1972</text><text text-anchor="end" transform="translate(25,7) rotate(270) translate(0,5)" font-family="sans-serif" font-size="18px" fill="#000" opacity="1">1973</text><text text-anchor="end" transform="translate(35,7) rotate(270) translate(0,5)" font-family="sans-serif" font-size="18px" fill="#000" opacity="0">1974</text><text text-anchor="end" transform="translate(45,7) rotate(270) translate(0,5)" font-family="sans-serif" font-size="18px" fill="#000" opacity="1">1975</text><text text-anchor="end" transform="translate(55,7) rotate(270) translate(0,5)" font-family="sans-serif" font-size="18px" fill="#000" opacity="0">1976</text><text text-anchor="end" transform="translate(65,7) rotate(270) translate(0,5)" font-family="sans-serif" font-size="18px" fill="#000" opacity="1">1977</text><text text-anchor="end" transform="translate(75,7) rotate(270) translate(0,5)" font-family="sans-serif" font-size="18px" fill="#000" opacity="0">1978</text><text text-anchor="end" transform="translate(85,7) rotate(270) translate(0,5)" font-family="sans-serif" font-size="18px" fill="#000" opacity="1">1979</text><text text-anchor="end" transform="translate(95,7) rotate(270) translate(0,5)" font-family="sans-serif" font-size="18px" fill="#000" opacity="0">1980</text><text text-anchor="end" transform="translate(105,7) rotate(270) translate(0,5)" font-family="sans-serif" font-size="18px" fill="#000" opacity="1">1981</text><text text-anchor="end" transform="translate(115,7) rotate(270) translate(0,5)" font-family="sans-serif" font-size="18px" fill="#000" opacity="0">1982</text><text text-anchor="end" transform="translate(125,7) rotate(270) translate(0,5)" font-family="sans-serif" font-size="18px" fill="#000" opacity="1">1983</text><text text-anchor="end" transform="translate(135,7) rotate(270) translate(0,5)" font-family="sans-serif" font-size="18px" fill="#000" opacity="0">1984</text><text text-anchor="end" transform="translate(145,7) rotate(270) translate(0,5)" font-family="sans-serif" font-size="18px" fill="#000" opacity="1">1985</text><text text-anchor="end" transform="translate(155,7) rotate(270) translate(0,5)" font-family="sans-serif" font-size="18px" fill="#000" opacity="0">1986</text><text text-anchor="end" transform="translate(165,7) rotate(270) translate(0,5)" font-family="sans-serif" font-size="18px" fill="#000" opacity="1">1987</text><text text-anchor="end" transform="translate(175,7) rotate(270) translate(0,5)" font-family="sans-serif" font-size="18px" fill="#000" opacity="0">1988</text><text text-anchor="end" transform="translate(185,7) rotate(270) translate(0,5)" font-family="sans-serif" font-size="18px" fill="#000" opacity="1">1989</text><text text-anchor="end" transform="translate(195,7) rotate(270) translate(0,5)" font-family="sans-serif" font-size="18px" fill="#000" opacity="0">1990</text><text text-anchor="end" transform="translate(205,7) rotate(270) translate(0,5)" font-family="sans-serif" font-size="18px" fill="#000" opacity="1">1991</text><text text-anchor="end" transform="translate(215,7) rotate(270) translate(0,5)" font-family="sans-serif" font-size="18px" fill="#000" opacity="0">1992</text><text text-anchor="end" transform="translate(225,7) rotate(270) translate(0,5)" font-family="sans-serif" font-size="18px" fill="#000" opacity="1">1993</text><text text-anchor="end" transform="translate(235,7) rotate(270) translate(0,5)" font-family="sans-serif" font-size="18px" fill="#000" opacity="0">1994</text><text text-anchor="end" transform="translate(245,7) rotate(270) translate(0,5)" font-family="sans-serif" font-size="18px" fill="#000" opacity="1">1995</text><text text-anchor="end" transform="translate(255,7) rotate(270) translate(0,5)" font-family="sans-serif" font-size="18px" fill="#000" opacity="0">1996</text><text text-anchor="end" transform="translate(265,7) rotate(270) translate(0,5)" font-family="sans-serif" font-size="18px" fill="#000" opacity="1">1997</text><text text-anchor="end" transform="translate(275,7) rotate(270) translate(0,5)" font-family="sans-serif" font-size="18px" fill="#000" opacity="0">1998</text><text text-anchor="end" transform="translate(285,7) rotate(270) translate(0,5)" font-family="sans-serif" font-size="18px" fill="#000" opacity="1">1999</text><text text-anchor="end" transform="translate(295,7) rotate(270) translate(0,5)" font-family="sans-serif" font-size="18px" fill="#000" opacity="0">2000</text><text text-anchor="end" transform="translate(305,7) rotate(270) translate(0,5)" font-family="sans-serif" font-size="18px" fill="#000" opacity="1">2001</text><text text-anchor="end" transform="translate(315,7) rotate(270) translate(0,5)" font-family="sans-serif" font-size="18px" fill="#000" opacity="0">2002</text><text text-anchor="end" transform="translate(325,7) rotate(270) translate(0,5)" font-family="sans-serif" font-size="18px" fill="#000" opacity="1">2003</text><text text-anchor="end" transform="translate(335,7) rotate(270) translate(0,5)" font-family="sans-serif" font-size="18px" fill="#000" opacity="0">2004</text><text text-anchor="end" transform="translate(345,7) rotate(270) translate(0,5)" font-family="sans-serif" font-size="18px" fill="#000" opacity="1">2005</text><text text-anchor="end" transform="translate(355,7) rotate(270) translate(0,5)" font-family="sans-serif" font-size="18px" fill="#000" opacity="0">2006</text><text text-anchor="end" transform="translate(365,7) rotate(270) translate(0,5)" font-family="sans-serif" font-size="18px" fill="#000" opacity="1">2007</text><text text-anchor="end" transform="translate(375,7) rotate(270) translate(0,5)" font-family="sans-serif" font-size="18px" fill="#000" opacity="0">2008</text><text text-anchor="end" transform="translate(385,7) rotate(270) translate(0,5)" font-family="sans-serif" font-size="18px" fill="#000" opacity="1">2009</text><text text-anchor="end" transform="translate(395,7) rotate(270) translate(0,5)" font-family="sans-serif" font-size="18px" fill="#000" opacity="0">2010</text><text text-anchor="end" transform="translate(405,7) rotate(270) translate(0,5)" font-family="sans-serif" font-size="18px" fill="#000" opacity="1">2011</text><text text-anchor="end" transform="translate(415,7) rotate(270) translate(0,5)" font-family="sans-serif" font-size="18px" fill="#000" opacity="0">2012</text><text text-anchor="end" transform="translate(425,7) rotate(270) translate(0,5)" font-family="sans-serif" font-size="18px" fill="#000" opacity="1">2013</text><text text-anchor="end" transform="translate(435,7) rotate(270) translate(0,5)" font-family="sans-serif" font-size="18px" fill="#000" opacity="0">2014</text><text text-anchor="end" transform="translate(445,7) rotate(270) translate(0,5)" font-family="sans-serif" font-size="18px" fill="#000" opacity="1">2015</text><text text-anchor="end" transform="translate(455,7) rotate(270) translate(0,5)" font-family="sans-serif" font-size="18px" fill="#000" opacity="0">2016</text><text text-anchor="end" transform="translate(465,7) rotate(270) translate(0,5)" font-family="sans-serif" font-size="18px" fill="#000" opacity="1">2017</text><text text-anchor="end" transform="translate(475,7) rotate(270) translate(0,5)" font-family="sans-serif" font-size="18px" fill="#000" opacity="0">2018</text><text text-anchor="end" transform="translate(485,7) rotate(270) translate(0,5)" font-family="sans-serif" font-size="18px" fill="#000" opacity="1">2019</text><text text-anchor="end" transform="translate(495,7) rotate(270) translate(0,5)" font-family="sans-serif" font-size="18px" fill="#000" opacity="0">2020</text></g><g class="mark-rule role-axis-domain" pointer-events="none"><line transform="translate(0,0)" x2="500" y2="0" stroke="#888" stroke-width="1" opacity="1"/></g><g class="mark-text role-axis-title" pointer-events="none"><text text-anchor="middle" transform="translate(250,68.04296875)" font-family="sans-serif" font-size="22px" font-weight="bold" fill="#000" opacity="1">year</text></g></g><path class="foreground" aria-hidden="true" d="" pointer-events="none" display="none"/></g></g><g class="mark-group role-axis" role="graphics-symbol" aria-roledescription="axis" aria-label="Y-axis titled '% of articles' for a linear scale with values from 0 to 60"><g transform="translate(0.5,0.5)"><path class="background" aria-hidden="true" d="M0,0h0v0h0Z" pointer-events="none"/><g><g class="mark-rule role-axis-tick" pointer-events="none"><line transform="translate(0,300)" x2="-5" y2="0" stroke="#888" stroke-width="1" opacity="1"/><line transform="translate(0,250)" x2="-5" y2="0" stroke="#888" stroke-width="1" opacity="1"/><line transform="translate(0,200)" x2="-5" y2="0" stroke="#888" stroke-width="1" opacity="1"/><line transform="translate(0,150)" x2="-5" y2="0" stroke="#888" stroke-width="1" opacity="1"/><line transform="translate(0,100)" x2="-5" y2="0" stroke="#888" stroke-width="1" opacity="1"/><line transform="translate(0,50)" x2="-5" y2="0" stroke="#888" stroke-width="1" opacity="1"/><line transform="translate(0,0)" x2="-5" y2="0" stroke="#888" stroke-width="1" opacity="1"/></g><g class="mark-text role-axis-label" pointer-events="none"><text text-anchor="end" transform="translate(-7,305)" font-family="sans-serif" font-size="18px" fill="#000" opacity="1">0</text><text text-anchor="end" transform="translate(-7,255)" font-family="sans-serif" font-size="18px" fill="#000" opacity="1">10</text><text text-anchor="end" transform="translate(-7,205.00000000000003)" font-family="sans-serif" font-size="18px" fill="#000" opacity="1">20</text><text text-anchor="end" transform="translate(-7,155)" font-family="sans-serif" font-size="18px" fill="#000" opacity="1">30</text><text text-anchor="end" transform="translate(-7,105.00000000000001)" font-family="sans-serif" font-size="18px" fill="#000" opacity="1">40</text><text text-anchor="end" transform="translate(-7,54.999999999999986)" font-family="sans-serif" font-size="18px" fill="#000" opacity="1">50</text><text text-anchor="end" transform="translate(-7,5)" font-family="sans-serif" font-size="18px" fill="#000" opacity="1">60</text></g><g class="mark-rule role-axis-domain" pointer-events="none"><line transform="translate(0,300)" x2="0" y2="-300" stroke="#888" stroke-width="1" opacity="1"/></g><g class="mark-text role-axis-title" pointer-events="none"><text text-anchor="middle" transform="translate(-31.021484375,150) rotate(-90) translate(0,-5)" font-family="sans-serif" font-size="22px" font-weight="bold" fill="#000" opacity="1">% of articles</text></g></g><path class="foreground" aria-hidden="true" d="" pointer-events="none" display="none"/></g></g><g class="mark-group role-scope pathgroup" role="graphics-object" aria-roledescription="group mark container"><g transform="translate(0,0)"><path class="background" aria-hidden="true" d="M0,0h500v300h-500Z"/><g><g class="mark-line role-mark marks" role="graphics-symbol" aria-roledescription="line mark container"><path d="M5,79.41176470599997L15,90.6976744185L25,32.142857143000015L35,41.93548387100001L45,94.52054794499999L55,84.09090909100001L65,52.63157894750001L75,52.52525252550002L85,60.683760683999985L95,107.69230769250002L105,66.91729323299998L115,122.31404958700001L125,90.502793296L135,118.75000000000001L145,117.16417910450001L155,78.44311377250003L165,108.5714285715L175,91.66666666649998L185,129.5454545455L195,51.90839694649997L205,118.96551724150002L215,79.81651376150002L225,92.168674699L235,107.2625698325L245,68.115942029L255,77.77777777800002L265,70.54794520550001L275,75L285,98.99497487449997L295,111.55778894449998L305,115.4205607475L315,138.7096774195L325,89.6341463415L335,87.63440860200001L345,109.37500000000001L355,123.943661972L365,114.60674157300002L375,113.60946745549998L385,101.54639175250001L395,130.459770115L405,93.233082707L415,121.67832167850001L425,124.404761905L435,111.47540983599998L445,102.857142857L455,114.903846154L465,145.029239766L475,102.46913580249998L485,119.01840490800004L495,126.42487046650001" stroke="#4c78a8" stroke-width="3"/></g></g><path class="foreground" aria-hidden="true" d="" display="none"/></g><g transform="translate(0,0)"><path class="background" aria-hidden="true" d="M0,0h500v300h-500Z"/><g><g class="mark-line role-mark marks" role="graphics-symbol" aria-roledescription="line mark container"><path d="M5,49.999999999999986L15,55.81395348849999L25,112.5L35,74.19354838699999L45,67.12328767100001L55,44.31818181799999L65,73.68421052650001L75,77.77777777800002L85,77.77777777800002L95,21.15384615399999L105,66.91729323299998L115,6.611570247999998L125,43.01675977649998L135,34.375000000000014L145,35.0746268655L155,39.52095808399998L165,42.857142856999985L175,53.78787878800002L185,31.060606060499996L195,93.89312977100002L205,49.999999999999986L215,70.64220183500001L225,80.12048192750001L235,43.01675977649998L245,82.60869565199998L255,69.00584795299997L265,80.821917808L275,78.57142857150001L285,71.35678391950002L295,43.71859296499997L305,33.64485981299998L315,25.806451613000025L325,68.292682927L335,68.81720430100002L345,53.125000000000014L355,25.352112676000015L365,66.85393258449997L375,51.479289941L385,52.577319587500014L395,32.758620689500006L405,48.120300752L415,62.237762238L425,26.19047619050001L435,24.043715847000012L445,48.57142857149997L455,49.999999999999986L465,19.298245614L475,65.43209876550002L485,20.85889570549999L495,48.70466321250001" stroke="#f58518" stroke-width="3"/></g></g><path class="foreground" aria-hidden="true" d="" display="none"/></g><g transform="translate(0,0)"><path class="background" aria-hidden="true" d="M0,0h500v300h-500Z"/><g><g class="mark-line role-mark marks" role="graphics-symbol" aria-roledescription="line mark container"><path d="M5,270.588235294L15,253.48837209299998L25,255.35714285699999L35,283.870967742L45,238.3561643835L55,271.590909091L65,273.6842105265L75,269.696969697L85,261.53846153850003L95,271.153846154L105,266.165413534L115,271.0743801655L125,266.4804469275L135,246.875L145,247.76119402999998L155,282.03592814350003L165,248.5714285715L175,254.5454545455L185,239.39393939400003L195,254.1984732825L205,231.0344827585L215,249.5412844035L225,227.7108433735L235,249.720670391L245,249.27536231899998L255,253.216374269L265,248.63013698650002L275,246.42857142850002L285,229.64824120600002L295,244.7236180905L305,250.93457943950003L315,235.4838709675L325,242.0731707315L335,243.548387097L345,237.5L355,250.70422535199998L365,218.53932584250003L375,234.9112426035L385,245.87628866L395,236.78160919549998L405,258.6466165415L415,216.08391608399998L425,249.404761905L435,264.480874317L445,248.5714285715L455,235.096153846L465,235.67251462L475,232.098765432L485,260.1226993865L495,224.870466321" stroke="#e45756" stroke-width="3"/></g></g><path class="foreground" aria-hidden="true" d="" display="none"/></g></g><g class="mark-group role-legend" role="graphics-symbol" aria-roledescription="legend" aria-label="Symbol legend titled '# of basins' for stroke color with 3 values: 0, 1, 2+"><g transform="translate(518,0)"><path class="background" aria-hidden="true" d="M0,0h115v97h-115Z" pointer-events="none"/><g><g class="mark-group role-legend-entry"><g transform="translate(0,27)"><path class="background" aria-hidden="true" d="M0,0h0v0h0Z" pointer-events="none"/><g><g class="mark-group role-scope" role="graphics-object" aria-roledescription="group mark container"><g transform="translate(0,0)"><path class="background" aria-hidden="true" d="M0,0h51.0830078125v22h-51.0830078125Z" pointer-events="none" opacity="1"/><g><g class="mark-symbol role-legend-symbol" pointer-events="none"><path transform="translate(11,11)" d="M-5,0L5,0" stroke="#4c78a8" stroke-width="10" opacity="1"/></g><g class="mark-text role-legend-label" pointer-events="none"><text text-anchor="start" transform="translate(26,18)" font-family="sans-serif" font-size="22px" fill="#000" opacity="1">0</text></g></g><path class="foreground" aria-hidden="true" d="" pointer-events="none" display="none"/></g><g transform="translate(0,24)"><path class="background" aria-hidden="true" d="M0,0h51.0830078125v22h-51.0830078125Z" pointer-events="none" opacity="1"/><g><g class="mark-symbol role-legend-symbol" pointer-events="none"><path transform="translate(11,11)" d="M-5,0L5,0" stroke="#f58518" stroke-width="10" opacity="1"/></g><g class="mark-text role-legend-label" pointer-events="none"><text text-anchor="start" transform="translate(26,18)" font-family="sans-serif" font-size="22px" fill="#000" opacity="1">1</text></g></g><path class="foreground" aria-hidden="true" d="" pointer-events="none" display="none"/></g><g transform="translate(0,48)"><path class="background" aria-hidden="true" d="M0,0h51.0830078125v22h-51.0830078125Z" pointer-events="none" opacity="1"/><g><g class="mark-symbol role-legend-symbol" pointer-events="none"><path transform="translate(11,11)" d="M-5,0L5,0" stroke="#e45756" stroke-width="10" opacity="1"/></g><g class="mark-text role-legend-label" pointer-events="none"><text text-anchor="start" transform="translate(26,18)" font-family="sans-serif" font-size="22px" fill="#000" opacity="1">2+</text></g></g><path class="foreground" aria-hidden="true" d="" pointer-events="none" display="none"/></g></g></g><path class="foreground" aria-hidden="true" d="" pointer-events="none" display="none"/></g></g><g class="mark-text role-legend-title" pointer-events="none"><text text-anchor="start" transform="translate(0,17)" font-family="sans-serif" font-size="22px" font-weight="bold" fill="#000" opacity="1"># of basins</text></g></g><path class="foreground" aria-hidden="true" d="" pointer-events="none" display="none"/></g></g><g class="mark-group role-title"><g transform="translate(250,-35)"><path class="background" aria-hidden="true" d="M0,0h0v0h0Z" pointer-events="none"/><g><g class="mark-text role-title-text" role="graphics-symbol" aria-roledescription="title" aria-label="Title text 'Number of basins mentioned in articles'" pointer-events="none"><text text-anchor="middle" transform="translate(0,17)" font-family="sans-serif" font-size="22px" font-weight="bold" fill="#000" opacity="1">Number of basins mentioned in articles</text></g></g><path class="foreground" aria-hidden="true" d="" pointer-events="none" display="none"/></g></g></g><path class="foreground" aria-hidden="true" d="" display="none"/></g></g></g></svg>