<svg xmlns="http://www.w3.org/2000/svg" xmlns:xlink="http://www.w3.org/1999/xlink" version="1.1" class="marks" width="1042" height="419" viewBox="0 0 1042 419"><rect width="1042" height="419" fill="white"/><g fill="none" stroke-miterlimit="10" transform="translate(60,41)"><g class="mark-group role-frame root" role="graphics-object" aria-roledescription="group mark container"><g transform="translate(0,0)"><path class="background" aria-hidden="true" d="M0.5,0.5h700v300h-700Z" stroke="#ddd"/><g><g class="mark-group role-axis" role="graphics-symbol" aria-roledescription="axis" aria-label="Y-axis for a linear scale with values from 0 to 18"><g transform="translate(0.5,0.5)"><path class="background" aria-hidden="true" d="M0,0h0v0h0Z" pointer-events="none"/><g><g class="mark-rule role-axis-grid" pointer-events="none"><line transform="translate(0,300)" x2="700" y2="0" stroke="#ddd" stroke-width="1" opacity="1"/><line transform="translate(0,267)" x2="700" y2="0" stroke="#ddd" stroke-width="1" opacity="1"/><line transform="translate(0,233)" x2="700" y2="0" stroke="#ddd" stroke-width="1" opacity="1"/><line transform="translate(0,200)" x2="700" y2="0" stroke="#ddd" stroke-width="1" opacity="1"/><line transform="translate(0,167)" x2="700" y2="0" stroke="#ddd" stroke-width="1" opacity="1"/><line transform="translate(0,133)" x2="700" y2="0" stroke="#ddd" stroke-width="1" opacity="1"/><line transform="translate(0,100)" x2="700" y2="0" stroke="#ddd" stroke-width="1" opacity="1"/><line transform="translate(0,67)" x2="700" y2="0" stroke="#ddd" stroke-width="1" opacity="1"/><line transform="translate(0,33)" x2="700" y2="0" stroke="#ddd" stroke-width="1" opacity="1"/><line transform="translate(0,0)" x2="700" y2="0" stroke="#ddd" stroke-width="1" opacity="1"/></g></g><path class="foreground" aria-hidden="true" d="" pointer-events="none" display="none"/></g></g><g class="mark-group role-axis" role="graphics-symbol" aria-roledescription="axis" aria-label="X-axis titled 'Year' for a discrete scale with 50 values: 1971, 1972, 1973, 1974, 1975, ending with 2020"><g transform="translate(0.5,300.5)"><path class="background" aria-hidden="true" d="M0,0h0v0h0Z" pointer-events="none"/><g><g class="mark-rule role-axis-tick" pointer-events="none"><line transform="translate(7,0)" x2="0" y2="5" stroke="#888" stroke-width="1" opacity="1"/><line transform="translate(21,0)" x2="0" y2="5" stroke="#888" stroke-width="1" opacity="1"/><line transform="translate(35,0)" x2="0" y2="5" stroke="#888" stroke-width="1" opacity="1"/><line transform="translate(49,0)" x2="0" y2="5" stroke="#888" stroke-width="1" opacity="1"/><line transform="translate(63,0)" x2="0" y2="5" stroke="#888" stroke-width="1" opacity="1"/><line transform="translate(77,0)" x2="0" y2="5" stroke="#888" stroke-width="1" opacity="1"/><line transform="translate(91,0)" x2="0" y2="5" stroke="#888" stroke-width="1" opacity="1"/><line transform="translate(105,0)" x2="0" y2="5" stroke="#888" stroke-width="1" opacity="1"/><line transform="translate(119,0)" x2="0" y2="5" stroke="#888" stroke-width="1" opacity="1"/><line transform="translate(133,0)" x2="0" y2="5" stroke="#888" stroke-width="1" opacity="1"/><line transform="translate(147,0)" x2="0" y2="5" stroke="#888" stroke-width="1" opacity="1"/><line transform="translate(161,0)" x2="0" y2="5" stroke="#888" stroke-width="1" opacity="1"/><line transform="translate(175,0)" x2="0" y2="5" stroke="#888" stroke-width="1" opacity="1"/><line transform="translate(189,0)" x2="0" y2="5" stroke="#888" stroke-width="1" opacity="1"/><line transform="translate(203,0)" x2="0" y2="5" stroke="#888" stroke-width="1" opacity="1"/><line transform="translate(217,0)" x2="0" y2="5" stroke="#888" stroke-width="1" opacity="1"/><line transform="translate(231,0)" x2="0" y2="5" stroke="#888" stroke-width="1" opacity="1"/><line transform="translate(245,0)" x2="0" y2="5" stroke="#888" stroke-width="1" opacity="1"/><line transform="translate(259,0)" x2="0" y2="5" stroke="#888" stroke-width="1" opacity="1"/><line transform="translate(273,0)" x2="0" y2="5" stroke="#888" stroke-width="1" opacity="1"/><line transform="translate(287,0)" x2="0" y2="5" stroke="#888" stroke-width="1" opacity="1"/><line transform="translate(301,0)" x2="0" y2="5" stroke="#888" stroke-width="1" opacity="1"/><line transform="translate(315,0)" x2="0" y2="5" stroke="#888" stroke-width="1" opacity="1"/><line transform="translate(329,0)" x2="0" y2="5" stroke="#888" stroke-width="1" opacity="1"/><line transform="translate(343,0)" x2="0" y2="5" stroke="#888" stroke-width="1" opacity="1"/><line transform="translate(357,0)" x2="0" y2="5" stroke="#888" stroke-width="1" opacity="1"/><line transform="translate(371,0)" x2="0" y2="5" stroke="#888" stroke-width="1" opacity="1"/><line transform="translate(385,0)" x2="0" y2="5" stroke="#888" stroke-width="1" opacity="1"/><line transform="translate(399,0)" x2="0" y2="5" stroke="#888" stroke-width="1" opacity="1"/><line transform="translate(413,0)" x2="0" y2="5" stroke="#888" stroke-width="1" opacity="1"/><line transform="translate(427,0)" x2="0" y2="5" stroke="#888" stroke-width="1" opacity="1"/><line transform="translate(441,0)" x2="0" y2="5" stroke="#888" stroke-width="1" opacity="1"/><line transform="translate(455,0)" x2="0" y2="5" stroke="#888" stroke-width="1" opacity="1"/><line transform="translate(469,0)" x2="0" y2="5" stroke="#888" stroke-width="1" opacity="1"/><line transform="translate(483,0)" x2="0" y2="5" stroke="#888" stroke-width="1" opacity="1"/><line transform="translate(497,0)" x2="0" y2="5" stroke="#888" stroke-width="1" opacity="1"/><line transform="translate(511,0)" x2="0" y2="5" stroke="#888" stroke-width="1" opacity="1"/><line transform="translate(525,0)" x2="0" y2="5" stroke="#888" stroke-width="1" opacity="1"/><line transform="translate(539,0)" x2="0" y2="5" stroke="#888" stroke-width="1" opacity="1"/><line transform="translate(553,0)" x2="0" y2="5" stroke="#888" stroke-width="1" opacity="1"/><line transform="translate(567,0)" x2="0" y2="5" stroke="#888" stroke-width="1" opacity="1"/><line transform="translate(581,0)" x2="0" y2="5" stroke="#888" stroke-width="1" opacity="1"/><line transform="translate(595,0)" x2="0" y2="5" stroke="#888" stroke-width="1" opacity="1"/><line transform="translate(609,0)" x2="0" y2="5" stroke="#888" stroke-width="1" opacity="1"/><line transform="translate(623,0)" x2="0" y2="5" stroke="#888" stroke-width="1" opacity="1"/><line transform="translate(637,0)" x2="0" y2="5" stroke="#888" stroke-width="1" opacity="1"/><line transform="translate(651,0)" x2="0" y2="5" stroke="#888" stroke-width="1" opacity="1"/><line transform="translate(665,0)" x2="0" y2="5" stroke="#888" stroke-width="1" opacity="1"/><line transform="translate(679,0)" x2="0" y2="5" stroke="#888" stroke-width="1" opacity="1"/><line transform="translate(693,0)" x2="0" y2="5" stroke="#888" stroke-width="1" opacity="1"/></g><g class="mark-text role-axis-label" pointer-events="none"><text text-anchor="end" transform="translate(7,7) rotate(270) translate(0,5)" font-family="sans-serif" font-size="18px" fill="#000" opacity="1">1971</text><text text-anchor="end" transform="translate(21,7) rotate(270) translate(0,5)" font-family="sans-serif" font-size="18px" fill="#000" opacity="0">1972</text><text text-anchor="end" transform="translate(35,7) rotate(270) translate(0,5)" font-family="sans-serif" font-size="18px" fill="#000" opacity="1">1973</text><text text-anchor="end" transform="translate(49,7) rotate(270) translate(0,5)" font-family="sans-serif" font-size="18px" fill="#000" opacity="0">1974</text><text text-anchor="end" transform="translate(63,7) rotate(270) translate(0,5)" font-family="sans-serif" font-size="18px" fill="#000" opacity="1">1975</text><text text-anchor="end" transform="translate(77,7) rotate(270) translate(0,5)" font-family="sans-serif" font-size="18px" fill="#000" opacity="0">1976</text><text text-anchor="end" transform="translate(91,7) rotate(270) translate(0,5)" font-family="sans-serif" font-size="18px" fill="#000" opacity="1">1977</text><text text-anchor="end" transform="translate(105,7) rotate(270) translate(0,5)" font-family="sans-serif" font-size="18px" fill="#000" opacity="0">1978</text><text text-anchor="end" transform="translate(119,7) rotate(270) translate(0,5)" font-family="sans-serif" font-size="18px" fill="#000" opacity="1">1979</text><text text-anchor="end" transform="translate(133,7) rotate(270) translate(0,5)" font-family="sans-serif" font-size="18px" fill="#000" opacity="0">1980</text><text text-anchor="end" transform="translate(147,7) rotate(270) translate(0,5)" font-family="sans-serif" font-size="18px" fill="#000" opacity="1">1981</text><text text-anchor="end" transform="translate(161,7) rotate(270) translate(0,5)" font-family="sans-serif" font-size="18px" fill="#000" opacity="0">1982</text><text text-anchor="end" transform="translate(175,7) rotate(270) translate(0,5)" font-family="sans-serif" font-size="18px" fill="#000" opacity="1">1983</text><text text-anchor="end" transform="translate(189,7) rotate(270) translate(0,5)" font-family="sans-serif" font-size="18px" fill="#000" opacity="0">1984</text><text text-anchor="end" transform="translate(203,7) rotate(270) translate(0,5)" font-family="sans-serif" font-size="18px" fill="#000" opacity="1">1985</text><text text-anchor="end" transform="translate(217,7) rotate(270) translate(0,5)" font-family="sans-serif" font-size="18px" fill="#000" opacity="0">1986</text><text text-anchor="end" transform="translate(231,7) rotate(270) translate(0,5)" font-family="sans-serif" font-size="18px" fill="#000" opacity="1">1987</text><text text-anchor="end" transform="translate(245,7) rotate(270) translate(0,5)" font-family="sans-serif" font-size="18px" fill="#000" opacity="0">1988</text><text text-anchor="end" transform="translate(259,7) rotate(270) translate(0,5)" font-family="sans-serif" font-size="18px" fill="#000" opacity="1">1989</text><text text-anchor="end" transform="translate(273,7) rotate(270) translate(0,5)" font-family="sans-serif" font-size="18px" fill="#000" opacity="0">1990</text><text text-anchor="end" transform="translate(287,7) rotate(270) translate(0,5)" font-family="sans-serif" font-size="18px" fill="#000" opacity="1">1991</text><text text-anchor="end" transform="translate(301,7) rotate(270) translate(0,5)" font-family="sans-serif" font-size="18px" fill="#000" opacity="0">1992</text><text text-anchor="end" transform="translate(315,7) rotate(270) translate(0,5)" font-family="sans-serif" font-size="18px" fill="#000" opacity="1">1993</text><text text-anchor="end" transform="translate(329,7) rotate(270) translate(0,5)" font-family="sans-serif" font-size="18px" fill="#000" opacity="0">1994</text><text text-anchor="end" transform="translate(343,7) rotate(270) translate(0,5)" font-family="sans-serif" font-size="18px" fill="#000" opacity="1">1995</text><text text-anchor="end" transform="translate(357,7) rotate(270) translate(0,5)" font-family="sans-serif" font-size="18px" fill="#000" opacity="0">1996</text><text text-anchor="end" transform="translate(371,7) rotate(270) translate(0,5)" font-family="sans-serif" font-size="18px" fill="#000" opacity="1">1997</text><text text-anchor="end" transform="translate(385,7) rotate(270) translate(0,5)" font-family="sans-serif" font-size="18px" fill="#000" opacity="0">1998</text><text text-anchor="end" transform="translate(399,7) rotate(270) translate(0,5)" font-family="sans-serif" font-size="18px" fill="#000" opacity="1">1999</text><text text-anchor="end" transform="translate(413,7) rotate(270) translate(0,5)" font-family="sans-serif" font-size="18px" fill="#000" opacity="0">2000</text><text text-anchor="end" transform="translate(427,7) rotate(270) translate(0,5)" font-family="sans-serif" font-size="18px" fill="#000" opacity="1">2001</text><text text-anchor="end" transform="translate(441,7) rotate(270) translate(0,5)" font-family="sans-serif" font-size="18px" fill="#000" opacity="0">2002</text><text text-anchor="end" transform="translate(455,7) rotate(270) translate(0,5)" font-family="sans-serif" font-size="18px" fill="#000" opacity="1">2003</text><text text-anchor="end" transform="translate(469,7) rotate(270) translate(0,5)" font-family="sans-serif" font-size="18px" fill="#000" opacity="0">2004</text><text text-anchor="end" transform="translate(483,7) rotate(270) translate(0,5)" font-family="sans-serif" font-size="18px" fill="#000" opacity="1">2005</text><text text-anchor="end" transform="translate(497,7) rotate(270) translate(0,5)" font-family="sans-serif" font-size="18px" fill="#000" opacity="0">2006</text><text text-anchor="end" transform="translate(511,7) rotate(270) translate(0,5)" font-family="sans-serif" font-size="18px" fill="#000" opacity="1">2007</text><text text-anchor="end" transform="translate(525,7) rotate(270) translate(0,5)" font-family="sans-serif" font-size="18px" fill="#000" opacity="0">2008</text><text text-anchor="end" transform="translate(539,7) rotate(270) translate(0,5)" font-family="sans-serif" font-size="18px" fill="#000" opacity="1">2009</text><text text-anchor="end" transform="translate(553,7) rotate(270) translate(0,5)" font-family="sans-serif" font-size="18px" fill="#000" opacity="0">2010</text><text text-anchor="end" transform="translate(567,7) rotate(270) translate(0,5)" font-family="sans-serif" font-size="18px" fill="#000" opacity="1">2011</text><text text-anchor="end" transform="translate(581,7) rotate(270) translate(0,5)" font-family="sans-serif" font-size="18px" fill="#000" opacity="0">2012</text><text text-anchor="end" transform="translate(595,7) rotate(270) translate(0,5)" font-family="sans-serif" font-size="18px" fill="#000" opacity="1">2013</text><text text-anchor="end" transform="translate(609,7) rotate(270) translate(0,5)" font-family="sans-serif" font-size="18px" fill="#000" opacity="0">2014</text><text text-anchor="end" transform="translate(623,7) rotate(270) translate(0,5)" font-family="sans-serif" font-size="18px" fill="#000" opacity="1">2015</text><text text-anchor="end" transform="translate(637,7) rotate(270) translate(0,5)" font-family="sans-serif" font-size="18px" fill="#000" opacity="0">2016</text><text text-anchor="end" transform="translate(651,7) rotate(270) translate(0,5)" font-family="sans-serif" font-size="18px" fill="#000" opacity="1">2017</text><text text-anchor="end" transform="translate(665,7) rotate(270) translate(0,5)" font-family="sans-serif" font-size="18px" fill="#000" opacity="0">2018</text><text text-anchor="end" transform="translate(679,7) rotate(270) translate(0,5)" font-family="sans-serif" font-size="18px" fill="#000" opacity="1">2019</text><text text-anchor="end" transform="translate(693,7) rotate(270) translate(0,5)" font-family="sans-serif" font-size="18px" fill="#000" opacity="0">2020</text></g><g class="mark-rule role-axis-domain" pointer-events="none"><line transform="translate(0,0)" x2="700" y2="0" stroke="#888" stroke-width="1" opacity="1"/></g><g class="mark-text role-axis-title" pointer-events="none"><text text-anchor="middle" transform="translate(350,68.04296875)" font-family="sans-serif" font-size="22px" font-weight="bold" fill="#000" opacity="1">Year</text></g></g><path class="foreground" aria-hidden="true" d="" pointer-events="none" display="none"/></g></g><g class="mark-group role-axis" role="graphics-symbol" aria-roledescription="axis" aria-label="Y-axis titled '% of articles in year' for a linear scale with values from 0 to 18"><g transform="translate(0.5,0.5)"><path class="background" aria-hidden="true" d="M0,0h0v0h0Z" pointer-events="none"/><g><g class="mark-rule role-axis-tick" pointer-events="none"><line transform="translate(0,300)" x2="-5" y2="0" stroke="#888" stroke-width="1" opacity="1"/><line transform="translate(0,267)" x2="-5" y2="0" stroke="#888" stroke-width="1" opacity="1"/><line transform="translate(0,233)" x2="-5" y2="0" stroke="#888" stroke-width="1" opacity="1"/><line transform="translate(0,200)" x2="-5" y2="0" stroke="#888" stroke-width="1" opacity="1"/><line transform="translate(0,167)" x2="-5" y2="0" stroke="#888" stroke-width="1" opacity="1"/><line transform="translate(0,133)" x2="-5" y2="0" stroke="#888" stroke-width="1" opacity="1"/><line transform="translate(0,100)" x2="-5" y2="0" stroke="#888" stroke-width="1" opacity="1"/><line transform="translate(0,67)" x2="-5" y2="0" stroke="#888" stroke-width="1" opacity="1"/><line transform="translate(0,33)" x2="-5" y2="0" stroke="#888" stroke-width="1" opacity="1"/><line transform="translate(0,0)" x2="-5" y2="0" stroke="#888" stroke-width="1" opacity="1"/></g><g class="mark-text role-axis-label" pointer-events="none"><text text-anchor="end" transform="translate(-7,305)" font-family="sans-serif" font-size="18px" fill="#000" opacity="1">0</text><text text-anchor="end" transform="translate(-7,271.66666666666663)" font-family="sans-serif" font-size="18px" fill="#000" opacity="1">2</text><text text-anchor="end" transform="translate(-7,238.33333333333334)" font-family="sans-serif" font-size="18px" fill="#000" opacity="1">4</text><text text-anchor="end" transform="translate(-7,205.00000000000003)" font-family="sans-serif" font-size="18px" fill="#000" opacity="1">6</text><text text-anchor="end" transform="translate(-7,171.66666666666669)" font-family="sans-serif" font-size="18px" fill="#000" opacity="1">8</text><text text-anchor="end" transform="translate(-7,138.33333333333331)" font-family="sans-serif" font-size="18px" fill="#000" opacity="1">10</text><text text-anchor="end" transform="translate(-7,105.00000000000001)" font-family="sans-serif" font-size="18px" fill="#000" opacity="1">12</text><text text-anchor="end" transform="translate(-7,71.66666666666666)" font-family="sans-serif" font-size="18px" fill="#000" opacity="1">14</text><text text-anchor="end" transform="translate(-7,38.33333333333335)" font-family="sans-serif" font-size="18px" fill="#000" opacity="1">16</text><text text-anchor="end" transform="translate(-7,5)" font-family="sans-serif" font-size="18px" fill="#000" opacity="1">18</text></g><g class="mark-rule role-axis-domain" pointer-events="none"><line transform="translate(0,300)" x2="0" y2="-300" stroke="#888" stroke-width="1" opacity="1"/></g><g class="mark-text role-axis-title" pointer-events="none"><text text-anchor="middle" transform="translate(-31.021484375,150) rotate(-90) translate(0,-5)" font-family="sans-serif" font-size="22px" font-weight="bold" fill="#000" opacity="1">% of articles in year</text></g></g><path class="foreground" aria-hidden="true" d="" pointer-events="none" display="none"/></g></g><g class="mark-group role-scope pathgroup" role="graphics-object" aria-roledescription="group mark container"><g transform="translate(0,0)"><path class="background" aria-hidden="true" d="M0,0h700v300h-700Z"/><g><g class="mark-line role-mark marks" role="graphics-symbol" aria-roledescription="line mark container"><path d="M7,250.98039215666668L77,281.06060606L105,283.16498316499997L133,289.31623931666667L147,287.46867168L161,244.90358126666666L175,290.689013035L189,289.5833333333333L203,287.56218905500003L217,290.01996008L245,287.3737373733333L273,287.27735369L287,285.63218390833333L301,284.7094801216667L315,289.9598393566667L329,272.06703910666664L343,291.94847021L357,290.25341130666664L371,288.58447488666667L385,264.285714285L399,266.49916247833335L413,291.62479062L441,284.63901689666665L455,289.8373983733333L469,282.07885304666667L483,237.5L497,264.78873239499995L511,281.27340824L525,280.27613412166664L539,282.817869415L567,274.93734335833335L581,276.68997669L595,280.15873015833336L609,272.67759562833334L623,261.904761905L637,259.93589743666666L651,280.5068226116667L665,248.55967078166668L679,259.10020449833337L693,230.91537133" stroke="#72b7b2" stroke-width="3"/></g></g><path class="foreground" aria-hidden="true" d="" display="none"/></g><g transform="translate(0,0)"><path class="background" aria-hidden="true" d="M0,0h700v300h-700Z"/><g><g class="mark-line role-mark marks" role="graphics-symbol" aria-roledescription="line mark container"><path d="M7,250.98039215666668L21,222.480620155L77,281.06060606L91,194.736842105L105,249.49494949500001L119,200.284900285L133,267.94871794833335L147,224.812030075L161,231.12947658333334L175,262.75605214166666L203,237.81094527333332L217,250.0998004L231,261.904761905L245,224.24242424166667L259,198.98989899L273,198.21882951666666L287,170.68965517166666L301,223.54740061166666L315,199.598393575L329,197.57914339L343,195.33011272166667L357,144.05458089666666L371,208.67579908666667L385,145.23809523833333L399,115.745393635L413,157.62144053666665L427,128.66043613666668L441,146.39016897000002L455,147.56097560999999L469,120.78853046666667L483,164.58333333333334L497,123.94366197166664L511,75.28089887666667L525,171.794871795L539,110.99656357333333L553,79.69348658999999L567,99.49874686666666L581,90.20979021000002L595,32.142857143333345L609,72.31329690333334L623,71.42857142833333L637,67.62820512833332L651,17.348927875000044L665,114.814814815L679,54.60122699333332L693,127.28842832500003" stroke="#54a24b" stroke-width="3"/></g></g><path class="foreground" aria-hidden="true" d="" display="none"/></g><g transform="translate(0,0)"><path class="background" aria-hidden="true" d="M0,0h700v300h-700Z"/><g><g class="mark-line role-mark marks" role="graphics-symbol" aria-roledescription="line mark container"><path d="M7,152.94117647000002L63,277.1689497716667L91,282.45614035166665L105,283.16498316499997L119,257.264957265L133,289.31623931666667L147,274.93734335833335L161,244.90358126666666L175,262.75605214166666L189,247.91666666666666L203,275.12437811L217,270.05988024L231,271.4285714283333L245,236.86868686833333L259,249.49494949500001L273,274.5547073783333L287,256.89655172333335L301,269.418960245L315,229.71887550166667L329,272.06703910666664L343,203.38164251166666L357,251.26705653L371,277.1689497716667L385,240.4761904766667L399,232.99832495833334L413,241.37353433833334L427,229.90654205666664L441,184.79262672833335L455,249.18699187L469,246.23655914L483,227.08333333333331L497,264.78873239499995L511,206.3670411983333L525,280.27613412166664L539,282.817869415L553,252.1072796933333L567,262.40601503833335L581,265.03496503499997L595,250.39682539666666L609,290.8925318766667L623,261.904761905L637,283.974358975L651,270.7602339183333L665,279.42386831333334L679,248.87525562333335L693,291.3644214166667" stroke="#eeca3b" stroke-width="3"/></g></g><path class="foreground" aria-hidden="true" d="" display="none"/></g><g transform="translate(0,0)"><path class="background" aria-hidden="true" d="M0,0h700v300h-700Z"/><g><g class="mark-line role-mark marks" role="graphics-symbol" aria-roledescription="line mark container"><path d="M7,250.98039215666668L21,261.2403100783333L49,246.23655914L63,231.506849315L77,186.3636363633333L91,212.28070175499997L105,232.65993265999998L119,243.01994302L133,214.52991453L147,237.34335839666667L161,217.3553719L175,178.95716946000002L189,247.91666666666666L203,200.4975124383333L217,210.17964071833336L231,176.19047619L245,249.49494949500001L259,186.3636363633333L273,185.49618320666667L287,242.52873563166668L301,192.96636085666665L315,179.51807228833331L329,160.33519553000002L343,227.53623188333333L357,261.013645225L371,254.33789954333332L385,252.38095238166667L399,232.99832495833334L413,216.2479061983333L427,222.11838006166664L441,215.51459293333335L455,239.02439024333333L469,219.35483871L483,237.5L497,194.36619718333336L511,150.1872659183333L525,201.38067061166666L539,257.04467354L553,232.95019157166666L567,237.34335839666667L581,218.41491841500002L595,210.714285715L609,281.78506375166666L623,242.85714285666668L637,227.884615385L651,192.78752436666667L665,258.84773662500004L679,279.55010225L693,196.37305699500004" stroke="#ff9da6" stroke-width="3"/></g></g><path class="foreground" aria-hidden="true" d="" display="none"/></g><g transform="translate(0,0)"><path class="background" aria-hidden="true" d="M0,0h700v300h-700Z"/><g><g class="mark-line role-mark marks" role="graphics-symbol" aria-roledescription="line mark container"><path d="M21,183.72093023333332L35,270.23809523833336L63,254.33789954333332L77,281.06060606L91,194.736842105L105,182.154882155L119,243.01994302L133,225.21367521333335L147,212.28070175499997L161,244.90358126666666L175,262.75605214166666L189,289.5833333333333L203,225.37313432833332L217,290.01996008L231,242.85714285666668L245,262.1212121216667L259,211.61616161666666L273,236.38676844833336L287,185.057471265L301,192.96636085666665L315,199.598393575L329,178.95716946000002L343,195.33011272166667L357,212.28070175499997L371,220.09132420166665L385,169.04761904833333L399,140.871021775L413,199.4974874366667L427,152.02492211833334L441,154.07066052166664L455,188.21138211333334L469,183.51254480333333L483,185.41666666666669L497,170.89201878L511,168.91385767833336L525,211.24260354999998L539,196.907216495L553,156.32183908L567,124.56140350833333L581,136.82983683L595,91.66666666666667L609,90.52823315166665L623,166.66666666666669L637,107.69230769166666L651,66.08187134500001L665,207.40740740666666L679,95.50102249500002L693,187.73747841166667" stroke="#4c78a8" stroke-width="3"/></g></g><path class="foreground" aria-hidden="true" d="" display="none"/></g><g transform="translate(0,0)"><path class="background" aria-hidden="true" d="M0,0h700v300h-700Z"/><g><g class="mark-line role-mark marks" role="graphics-symbol" aria-roledescription="line mark container"><path d="M35,270.23809523833336L63,277.1689497716667L77,281.06060606L91,282.45614035166665L119,257.264957265L133,289.31623931666667L147,287.46867168L175,290.689013035L189,268.75L203,275.12437811L217,290.01996008L231,271.4285714283333L259,287.3737373733333L287,285.63218390833333L301,269.418960245L329,272.06703910666664L357,290.25341130666664L371,277.1689497716667L399,291.62479062L413,283.24958124L427,292.21183800666665L441,292.31950844833335L455,279.67479674833334L469,291.03942652333336L497,276.5258215966667L511,290.63670412L525,280.27613412166664L553,280.8429118766667L567,287.46867168L581,241.724941725L595,290.07936508L609,254.46265938L623,290.47619047666666L637,291.98717948666666L651,270.7602339183333L665,258.84773662500004L679,289.775051125L693,239.5509499133333" stroke="#e45756" stroke-width="3"/></g></g><path class="foreground" aria-hidden="true" d="" display="none"/></g><g transform="translate(0,0)"><path class="background" aria-hidden="true" d="M0,0h700v300h-700Z"/><g><g class="mark-line role-mark marks" role="graphics-symbol" aria-roledescription="line mark container"><path d="M77,281.06060606L231,290.47619047666666L245,287.3737373733333L385,276.19047618999997L399,291.62479062L427,292.21183800666665L469,291.03942652333336L483,268.75L497,276.5258215966667L511,281.27340824L525,280.27613412166664L539,291.40893470833333L567,287.46867168L581,276.68997669L595,290.07936508L609,272.67759562833334L637,259.93589743666666L651,290.25341130666664L665,248.55967078166668L679,289.775051125L693,282.72884283166667" stroke="#f58518" stroke-width="3"/></g></g><path class="foreground" aria-hidden="true" d="" display="none"/></g><g transform="translate(0,0)"><path class="background" aria-hidden="true" d="M0,0h700v300h-700Z"/><g><g class="mark-line role-mark marks" role="graphics-symbol" aria-roledescription="line mark container"><path d="M189,289.5833333333333L203,287.56218905500003L217,280.03992016L231,280.95238095166667L259,274.7474747466667L273,274.5547073783333L287,285.63218390833333L301,269.418960245L315,269.87951807166667L329,281.37802607L343,283.8969404183333L385,264.285714285L399,266.49916247833335L427,284.42367601166666L441,269.27803379333335L469,246.23655914L483,268.75L497,288.26291079833334L511,271.91011236L525,290.1380670616667L539,274.22680412333335L553,290.42145593833334L567,274.93734335833335L581,253.37995338000002L595,280.15873015833336L609,281.78506375166666L623,290.47619047666666L637,283.974358975L651,251.26705653L665,279.42386831333334L679,289.775051125L693,265.457685665" stroke="#b279a2" stroke-width="3"/></g></g><path class="foreground" aria-hidden="true" d="" display="none"/></g></g><g class="mark-group role-legend" role="graphics-symbol" aria-roledescription="legend" aria-label="Symbol legend titled 'Sub-Basin' for stroke color with 8 values: Antarctic Marginal Seas, Arctic Atlantic Sector, Arctic Pacific Sector, North Indian, Open Southern Ocean, ending with South Pacific"><g transform="translate(718,0)"><path class="background" aria-hidden="true" d="M0,0h259v217h-259Z" pointer-events="none"/><g><g class="mark-group role-legend-entry"><g transform="translate(0,27)"><path class="background" aria-hidden="true" d="M0,0h0v0h0Z" pointer-events="none"/><g><g class="mark-group role-scope" role="graphics-object" aria-roledescription="group mark container"><g transform="translate(0,0)"><path class="background" aria-hidden="true" d="M0,0h258.3212890625v22h-258.3212890625Z" pointer-events="none" opacity="1"/><g><g class="mark-symbol role-legend-symbol" pointer-events="none"><path transform="translate(11,11)" d="M-5,0L5,0" stroke="#4c78a8" stroke-width="10" opacity="1"/></g><g class="mark-text role-legend-label" pointer-events="none"><text text-anchor="start" transform="translate(26,18)" font-family="sans-serif" font-size="22px" fill="#000" opacity="1">Antarctic Marginal Seas</text></g></g><path class="foreground" aria-hidden="true" d="" pointer-events="none" display="none"/></g><g transform="translate(0,24)"><path class="background" aria-hidden="true" d="M0,0h258.3212890625v22h-258.3212890625Z" pointer-events="none" opacity="1"/><g><g class="mark-symbol role-legend-symbol" pointer-events="none"><path transform="translate(11,11)" d="M-5,0L5,0" stroke="#f58518" stroke-width="10" opacity="1"/></g><g class="mark-text role-legend-label" pointer-events="none"><text text-anchor="start" transform="translate(26,18)" font-family="sans-serif" font-size="22px" fill="#000" opacity="1">Arctic Atlantic Sector</text></g></g><path class="foreground" aria-hidden="true" d="" pointer-events="none" display="none"/></g><g transform="translate(0,48)"><path class="background" aria-hidden="true" d="M0,0h258.3212890625v22h-258.3212890625Z" pointer-events="none" opacity="1"/><g><g class="mark-symbol role-legend-symbol" pointer-events="none"><path transform="translate(11,11)" d="M-5,0L5,0" stroke="#e45756" stroke-width="10" opacity="1"/></g><g class="mark-text role-legend-label" pointer-events="none"><text text-anchor="start" transform="translate(26,18)" font-family="sans-serif" font-size="22px" fill="#000" opacity="1">Arctic Pacific Sector</text></g></g><path class="foreground" aria-hidden="true" d="" pointer-events="none" display="none"/></g><g transform="translate(0,72)"><path class="background" aria-hidden="true" d="M0,0h258.3212890625v22h-258.3212890625Z" pointer-events="none" opacity="1"/><g><g class="mark-symbol role-legend-symbol" pointer-events="none"><path transform="translate(11,11)" d="M-5,0L5,0" stroke="#72b7b2" stroke-width="10" opacity="1"/></g><g class="mark-text role-legend-label" pointer-events="none"><text text-anchor="start" transform="translate(26,18)" font-family="sans-serif" font-size="22px" fill="#000" opacity="1">North Indian</text></g></g><path class="foreground" aria-hidden="true" d="" pointer-events="none" display="none"/></g><g transform="translate(0,96)"><path class="background" aria-hidden="true" d="M0,0h258.3212890625v22h-258.3212890625Z" pointer-events="none" opacity="1"/><g><g class="mark-symbol role-legend-symbol" pointer-events="none"><path transform="translate(11,11)" d="M-5,0L5,0" stroke="#54a24b" stroke-width="10" opacity="1"/></g><g class="mark-text role-legend-label" pointer-events="none"><text text-anchor="start" transform="translate(26,18)" font-family="sans-serif" font-size="22px" fill="#000" opacity="1">Open Southern Ocean</text></g></g><path class="foreground" aria-hidden="true" d="" pointer-events="none" display="none"/></g><g transform="translate(0,120)"><path class="background" aria-hidden="true" d="M0,0h258.3212890625v22h-258.3212890625Z" pointer-events="none" opacity="1"/><g><g class="mark-symbol role-legend-symbol" pointer-events="none"><path transform="translate(11,11)" d="M-5,0L5,0" stroke="#eeca3b" stroke-width="10" opacity="1"/></g><g class="mark-text role-legend-label" pointer-events="none"><text text-anchor="start" transform="translate(26,18)" font-family="sans-serif" font-size="22px" fill="#000" opacity="1">South Atlantic</text></g></g><path class="foreground" aria-hidden="true" d="" pointer-events="none" display="none"/></g><g transform="translate(0,144)"><path class="background" aria-hidden="true" d="M0,0h258.3212890625v22h-258.3212890625Z" pointer-events="none" opacity="1"/><g><g class="mark-symbol role-legend-symbol" pointer-events="none"><path transform="translate(11,11)" d="M-5,0L5,0" stroke="#b279a2" stroke-width="10" opacity="1"/></g><g class="mark-text role-legend-label" pointer-events="none"><text text-anchor="start" transform="translate(26,18)" font-family="sans-serif" font-size="22px" fill="#000" opacity="1">South Indian</text></g></g><path class="foreground" aria-hidden="true" d="" pointer-events="none" display="none"/></g><g transform="translate(0,168)"><path class="background" aria-hidden="true" d="M0,0h258.3212890625v22h-258.3212890625Z" pointer-events="none" opacity="1"/><g><g class="mark-symbol role-legend-symbol" pointer-events="none"><path transform="translate(11,11)" d="M-5,0L5,0" stroke="#ff9da6" stroke-width="10" opacity="1"/></g><g class="mark-text role-legend-label" pointer-events="none"><text text-anchor="start" transform="translate(26,18)" font-family="sans-serif" font-size="22px" fill="#000" opacity="1">South Pacific</text></g></g><path class="foreground" aria-hidden="true" d="" pointer-events="none" display="none"/></g></g></g><path class="foreground" aria-hidden="true" d="" pointer-events="none" display="none"/></g></g><g class="mark-text role-legend-title" pointer-events="none"><text text-anchor="start" transform="translate(0,17)" font-family="sans-serif" font-size="22px" font-weight="bold" fill="#000" opacity="1">Sub-Basin</text></g></g><path class="foreground" aria-hidden="true" d="" pointer-events="none" display="none"/></g></g><g class="mark-group role-title"><g transform="translate(350,-35)"><path class="background" aria-hidden="true" d="M0,0h0v0h0Z" pointer-events="none"/><g><g class="mark-text role-title-text" role="graphics-symbol" aria-roledescription="title" aria-label="Title text 'Articles by ocean sub-basin per year (ex North Atlantic &amp; Pacific)'" pointer-events="none"><text text-anchor="middle" transform="translate(0,17)" font-family="sans-serif" font-size="22px" font-weight="bold" fill="#000" opacity="1">Articles by ocean sub-basin per year (ex North Atlantic &amp; Pacific)</text></g></g><path class="foreground" aria-hidden="true" d="" pointer-events="none" display="none"/></g></g></g><path class="foreground" aria-hidden="true" d="" display="none"/></g></g></g></svg>