<svg xmlns="http://www.w3.org/2000/svg" xmlns:xlink="http://www.w3.org/1999/xlink" version="1.1" class="marks" width="1144" height="421" viewBox="0 0 1144 421"><rect width="1144" height="421" fill="white"/><g fill="none" stroke-miterlimit="10" transform="translate(61,42)"><g class="mark-group role-frame root" role="graphics-object" aria-roledescription="group mark container"><g transform="translate(0,0)"><path class="background" aria-hidden="true" d="M0,0h0v0h0Z"/><g><g class="mark-group role-scope concat_0_group" role="graphics-object" aria-roledescription="group mark container"><g transform="translate(0,0)"><path class="background" aria-hidden="true" d="M0.5,0.5h500v300h-500Z" stroke="#ddd"/><g><g class="mark-group role-axis" role="graphics-symbol" aria-roledescription="axis" aria-label="Y-axis for a linear scale with values from 0 to 90"><g transform="translate(0.5,0.5)"><path class="background" aria-hidden="true" d="M0,0h0v0h0Z" pointer-events="none"/><g><g class="mark-rule role-axis-grid" pointer-events="none"><line transform="translate(0,300)" x2="500" y2="0" stroke="#ddd" stroke-width="1" opacity="1"/><line transform="translate(0,267)" x2="500" y2="0" stroke="#ddd" stroke-width="1" opacity="1"/><line transform="translate(0,233)" x2="500" y2="0" stroke="#ddd" stroke-width="1" opacity="1"/><line transform="translate(0,200)" x2="500" y2="0" stroke="#ddd" stroke-width="1" opacity="1"/><line transform="translate(0,167)" x2="500" y2="0" stroke="#ddd" stroke-width="1" opacity="1"/><line transform="translate(0,133)" x2="500" y2="0" stroke="#ddd" stroke-width="1" opacity="1"/><line transform="translate(0,100)" x2="500" y2="0" stroke="#ddd" stroke-width="1" opacity="1"/><line transform="translate(0,67)" x2="500" y2="0" stroke="#ddd" stroke-width="1" opacity="1"/><line transform="translate(0,33)" x2="500" y2="0" stroke="#ddd" stroke-width="1" opacity="1"/><line transform="translate(0,0)" x2="500" y2="0" stroke="#ddd" stroke-width="1" opacity="1"/></g></g><path class="foreground" aria-hidden="true" d="" pointer-events="none" display="none"/></g></g><g class="mark-group role-axis" role="graphics-symbol" aria-roledescription="axis" aria-label="Y-axis titled 'Length of title in characters' for a linear scale with values from 0 to 90"><g transform="translate(0.5,0.5)"><path class="background" aria-hidden="true" d="M0,0h0v0h0Z" pointer-events="none"/><g><g class="mark-rule role-axis-tick" pointer-events="none"><line transform="translate(0,300)" x2="-5" y2="0" stroke="#888" stroke-width="1" opacity="1"/><line transform="translate(0,267)" x2="-5" y2="0" stroke="#888" stroke-width="1" opacity="1"/><line transform="translate(0,233)" x2="-5" y2="0" stroke="#888" stroke-width="1" opacity="1"/><line transform="translate(0,200)" x2="-5" y2="0" stroke="#888" stroke-width="1" opacity="1"/><line transform="translate(0,167)" x2="-5" y2="0" stroke="#888" stroke-width="1" opacity="1"/><line transform="translate(0,133)" x2="-5" y2="0" stroke="#888" stroke-width="1" opacity="1"/><line transform="translate(0,100)" x2="-5" y2="0" stroke="#888" stroke-width="1" opacity="1"/><line transform="translate(0,67)" x2="-5" y2="0" stroke="#888" stroke-width="1" opacity="1"/><line transform="translate(0,33)" x2="-5" y2="0" stroke="#888" stroke-width="1" opacity="1"/><line transform="translate(0,0)" x2="-5" y2="0" stroke="#888" stroke-width="1" opacity="1"/></g><g class="mark-text role-axis-label" pointer-events="none"><text text-anchor="end" transform="translate(-7,305)" font-family="sans-serif" font-size="18px" fill="#000" opacity="1">0</text><text text-anchor="end" transform="translate(-7,271.66666666666663)" font-family="sans-serif" font-size="18px" fill="#000" opacity="1">10</text><text text-anchor="end" transform="translate(-7,238.33333333333334)" font-family="sans-serif" font-size="18px" fill="#000" opacity="1">20</text><text text-anchor="end" transform="translate(-7,205.00000000000003)" font-family="sans-serif" font-size="18px" fill="#000" opacity="1">30</text><text text-anchor="end" transform="translate(-7,171.66666666666669)" font-family="sans-serif" font-size="18px" fill="#000" opacity="1">40</text><text text-anchor="end" transform="translate(-7,138.33333333333331)" font-family="sans-serif" font-size="18px" fill="#000" opacity="1">50</text><text text-anchor="end" transform="translate(-7,105.00000000000001)" font-family="sans-serif" font-size="18px" fill="#000" opacity="1">60</text><text text-anchor="end" transform="translate(-7,71.66666666666666)" font-family="sans-serif" font-size="18px" fill="#000" opacity="1">70</text><text text-anchor="end" transform="translate(-7,38.33333333333335)" font-family="sans-serif" font-size="18px" fill="#000" opacity="1">80</text><text text-anchor="end" transform="translate(-7,5)" font-family="sans-serif" font-size="18px" fill="#000" opacity="1">90</text></g><g class="mark-rule role-axis-domain" pointer-events="none"><line transform="translate(0,300)" x2="0" y2="-300" stroke="#888" stroke-width="1" opacity="1"/></g><g class="mark-text role-axis-title" pointer-events="none"><text text-anchor="middle" transform="translate(-31.021484375,150) rotate(-90) translate(0,-5)" font-family="sans-serif" font-size="22px" font-weight="bold" fill="#000" opacity="1">Length of title in characters</text></g></g><path class="foreground" aria-hidden="true" d="" pointer-events="none" display="none"/></g></g><g class="mark-rect role-mark concat_0_layer_0_marks" role="graphics-symbol" aria-roledescription="rect mark container"><path d="M380,32.611683848797234h10v267.3883161512028h-10Z" fill="#4c78a8"/><path d="M30,79.13978494623657h10v220.86021505376343h-10Z" fill="#4c78a8"/><path d="M360,36.02996254681648h10v263.9700374531835h-10Z" fill="#4c78a8"/><path d="M180,45.00000000000004h10v254.99999999999994h-10Z" fill="#4c78a8"/><path d="M470,6.111111111111112h10v293.8888888888889h-10Z" fill="#4c78a8"/><path d="M0,82.45098039215681h10v217.5490196078432h-10Z" fill="#4c78a8"/><path d="M420,15.198412698412788h10v284.80158730158723h-10Z" fill="#4c78a8"/><path d="M250,40.42884990253408h10v259.57115009746593h-10Z" fill="#4c78a8"/><path d="M270,35.92857142857152h10v264.0714285714285h-10Z" fill="#4c78a8"/><path d="M480,29.69325153374228h10v270.3067484662577h-10Z" fill="#4c78a8"/><path d="M320,25.243902439024446h10v274.75609756097555h-10Z" fill="#4c78a8"/><path d="M40,58.76712328767131h10v241.23287671232868h-10Z" fill="#4c78a8"/><path d="M170,57.87878787878782h10v242.12121212121218h-10Z" fill="#4c78a8"/><path d="M210,53.1192660550459h10v246.8807339449541h-10Z" fill="#4c78a8"/><path d="M300,22.24299065420543h10v277.7570093457946h-10Z" fill="#4c78a8"/><path d="M490,5.09499136442132h10v294.90500863557867h-10Z" fill="#4c78a8"/><path d="M10,52.79069767441859h10v247.2093023255814h-10Z" fill="#4c78a8"/><path d="M350,24.03755868544587h10v275.96244131455416h-10Z" fill="#4c78a8"/><path d="M440,14.780952380952206h10v285.2190476190478h-10Z" fill="#4c78a8"/><path d="M20,85.53571428571422h10v214.46428571428578h-10Z" fill="#4c78a8"/><path d="M100,54.96240601503748h10v245.0375939849625h-10Z" fill="#4c78a8"/><path d="M240,38.872785829307624h10v261.12721417069235h-10Z" fill="#4c78a8"/><path d="M330,39.01433691756267h10v260.9856630824373h-10Z" fill="#4c78a8"/><path d="M400,25.187969924811938h10v274.8120300751881h-10Z" fill="#4c78a8"/><path d="M390,20.804597701149476h10v279.1954022988505h-10Z" fill="#4c78a8"/><path d="M80,44.928774928774914h10v255.0712250712251h-10Z" fill="#4c78a8"/><path d="M130,49.70833333333318h10v250.29166666666683h-10Z" fill="#4c78a8"/><path d="M190,41.42493638676855h10v258.57506361323146h-10Z" fill="#4c78a8"/><path d="M430,33.715846994535625h10v266.28415300546436h-10Z" fill="#4c78a8"/><path d="M340,34.00000000000005h10v265.99999999999994h-10Z" fill="#4c78a8"/><path d="M50,66.47727272727272h10v233.52272727272728h-10Z" fill="#4c78a8"/><path d="M140,54.92537313432838h10v245.07462686567163h-10Z" fill="#4c78a8"/><path d="M200,41.034482758620584h10v258.9655172413794h-10Z" fill="#4c78a8"/><path d="M290,28.408710217755328h10v271.59128978224464h-10Z" fill="#4c78a8"/><path d="M230,48.51024208566107h10v251.48975791433892h-10Z" fill="#4c78a8"/><path d="M220,39.21686746987968h10v260.7831325301203h-10Z" fill="#4c78a8"/><path d="M160,57.314285714285504h10v242.68571428571448h-10Z" fill="#4c78a8"/><path d="M450,13.62179487179489h10v286.3782051282051h-10Z" fill="#4c78a8"/><path d="M280,47.72194304857618h10v252.27805695142382h-10Z" fill="#4c78a8"/><path d="M310,40.96774193548395h10v259.03225806451604h-10Z" fill="#4c78a8"/><path d="M260,32.67123287671249h10v267.3287671232875h-10Z" fill="#4c78a8"/><path d="M120,53.78026070763505h10v246.21973929236495h-10Z" fill="#4c78a8"/><path d="M460,13.508771929824459h10v286.49122807017557h-10Z" fill="#4c78a8"/><path d="M150,45.20958083832332h10v254.79041916167668h-10Z" fill="#4c78a8"/><path d="M410,25.314685314685235h10v274.6853146853148h-10Z" fill="#4c78a8"/><path d="M60,53.33333333333344h10v246.66666666666657h-10Z" fill="#4c78a8"/><path d="M90,59.12393162393157h10v240.87606837606842h-10Z" fill="#4c78a8"/><path d="M110,53.71900826446275h10v246.28099173553724h-10Z" fill="#4c78a8"/><path d="M70,38.75420875420894h10v261.24579124579105h-10Z" fill="#4c78a8"/><path d="M370,25.857988165680478h10v274.14201183431953h-10Z" fill="#4c78a8"/></g><g class="mark-line role-mark concat_0_layer_1_marks" role="graphics-symbol" aria-roledescription="line mark container"><path d="M5,86.66666666666666L15,85.28L25,83.88431999999997L35,82.47956807999998L45,81.06568527266664L55,79.6426122266667L65,78.21028920633333L75,76.76865608600002L85,75.31765235066666L95,73.85721709100001L105,72.38728900200003L115,70.90780638066667L125,69.41870712199999L135,67.91992871833334L145,66.411408255L155,64.89308240866669L165,63.36488744433333L175,61.82675921266666L185,60.278633147666675L195,58.72044426299998L205,57.152127150666644L215,55.57361597733333L225,53.984844481L235,52.38574597033333L245,50.776253318999984L255,49.15629896566664L265,47.525814908999976L275,45.88473270566668L285,44.232983468333344L295,42.570497860999964L305,40.89720609700001L315,39.21303793666667L325,37.51792268333332L335,35.81178918066664L345,34.09456581033336L355,32.36618048800002L365,30.626560661333325L375,28.875633305666693L385,27.113324922000004L395,25.339561533999998L405,23.554268684000014L415,21.75737143033334L425,19.948794344666666L435,18.128461507999972L445,16.29629650766663L455,14.452222434999973L465,12.596161881000024L475,10.728036932999995L485,8.847769173333365L495,6.955279672999993" stroke="red" stroke-width="2"/></g><g class="mark-group role-title"><g transform="translate(250,-35)"><path class="background" aria-hidden="true" d="M0,0h0v0h0Z" pointer-events="none"/><g><g class="mark-text role-title-text" role="graphics-symbol" aria-roledescription="title" aria-label="Title text 'Average length of title'" pointer-events="none"><text text-anchor="middle" transform="translate(0,17)" font-family="sans-serif" font-size="22px" font-weight="bold" fill="#000" opacity="1">Average length of title</text></g></g><path class="foreground" aria-hidden="true" d="" pointer-events="none" display="none"/></g></g><g class="mark-group role-axis" role="graphics-symbol" aria-roledescription="axis" aria-label="X-axis titled 'year' for a discrete scale with 50 values: 1971, 1972, 1973, 1974, 1975, ending with 2020"><g transform="translate(0.5,300.5)"><path class="background" aria-hidden="true" d="M0,0h0v0h0Z" pointer-events="none"/><g><g class="mark-rule role-axis-tick" pointer-events="none"><line transform="translate(5,0)" x2="0" y2="5" stroke="#888" stroke-width="1" opacity="1"/><line transform="translate(15,0)" x2="0" y2="5" stroke="#888" stroke-width="1" opacity="1"/><line transform="translate(25,0)" x2="0" y2="5" stroke="#888" stroke-width="1" opacity="1"/><line transform="translate(35,0)" x2="0" y2="5" stroke="#888" stroke-width="1" opacity="1"/><line transform="translate(45,0)" x2="0" y2="5" stroke="#888" stroke-width="1" opacity="1"/><line transform="translate(55,0)" x2="0" y2="5" stroke="#888" stroke-width="1" opacity="1"/><line transform="translate(65,0)" x2="0" y2="5" stroke="#888" stroke-width="1" opacity="1"/><line transform="translate(75,0)" x2="0" y2="5" stroke="#888" stroke-width="1" opacity="1"/><line transform="translate(85,0)" x2="0" y2="5" stroke="#888" stroke-width="1" opacity="1"/><line transform="translate(95,0)" x2="0" y2="5" stroke="#888" stroke-width="1" opacity="1"/><line transform="translate(105,0)" x2="0" y2="5" stroke="#888" stroke-width="1" opacity="1"/><line transform="translate(115,0)" x2="0" y2="5" stroke="#888" stroke-width="1" opacity="1"/><line transform="translate(125,0)" x2="0" y2="5" stroke="#888" stroke-width="1" opacity="1"/><line transform="translate(135,0)" x2="0" y2="5" stroke="#888" stroke-width="1" opacity="1"/><line transform="translate(145,0)" x2="0" y2="5" stroke="#888" stroke-width="1" opacity="1"/><line transform="translate(155,0)" x2="0" y2="5" stroke="#888" stroke-width="1" opacity="1"/><line transform="translate(165,0)" x2="0" y2="5" stroke="#888" stroke-width="1" opacity="1"/><line transform="translate(175,0)" x2="0" y2="5" stroke="#888" stroke-width="1" opacity="1"/><line transform="translate(185,0)" x2="0" y2="5" stroke="#888" stroke-width="1" opacity="1"/><line transform="translate(195,0)" x2="0" y2="5" stroke="#888" stroke-width="1" opacity="1"/><line transform="translate(205,0)" x2="0" y2="5" stroke="#888" stroke-width="1" opacity="1"/><line transform="translate(215,0)" x2="0" y2="5" stroke="#888" stroke-width="1" opacity="1"/><line transform="translate(225,0)" x2="0" y2="5" stroke="#888" stroke-width="1" opacity="1"/><line transform="translate(235,0)" x2="0" y2="5" stroke="#888" stroke-width="1" opacity="1"/><line transform="translate(245,0)" x2="0" y2="5" stroke="#888" stroke-width="1" opacity="1"/><line transform="translate(255,0)" x2="0" y2="5" stroke="#888" stroke-width="1" opacity="1"/><line transform="translate(265,0)" x2="0" y2="5" stroke="#888" stroke-width="1" opacity="1"/><line transform="translate(275,0)" x2="0" y2="5" stroke="#888" stroke-width="1" opacity="1"/><line transform="translate(285,0)" x2="0" y2="5" stroke="#888" stroke-width="1" opacity="1"/><line transform="translate(295,0)" x2="0" y2="5" stroke="#888" stroke-width="1" opacity="1"/><line transform="translate(305,0)" x2="0" y2="5" stroke="#888" stroke-width="1" opacity="1"/><line transform="translate(315,0)" x2="0" y2="5" stroke="#888" stroke-width="1" opacity="1"/><line transform="translate(325,0)" x2="0" y2="5" stroke="#888" stroke-width="1" opacity="1"/><line transform="translate(335,0)" x2="0" y2="5" stroke="#888" stroke-width="1" opacity="1"/><line transform="translate(345,0)" x2="0" y2="5" stroke="#888" stroke-width="1" opacity="1"/><line transform="translate(355,0)" x2="0" y2="5" stroke="#888" stroke-width="1" opacity="1"/><line transform="translate(365,0)" x2="0" y2="5" stroke="#888" stroke-width="1" opacity="1"/><line transform="translate(375,0)" x2="0" y2="5" stroke="#888" stroke-width="1" opacity="1"/><line transform="translate(385,0)" x2="0" y2="5" stroke="#888" stroke-width="1" opacity="1"/><line transform="translate(395,0)" x2="0" y2="5" stroke="#888" stroke-width="1" opacity="1"/><line transform="translate(405,0)" x2="0" y2="5" stroke="#888" stroke-width="1" opacity="1"/><line transform="translate(415,0)" x2="0" y2="5" stroke="#888" stroke-width="1" opacity="1"/><line transform="translate(425,0)" x2="0" y2="5" stroke="#888" stroke-width="1" opacity="1"/><line transform="translate(435,0)" x2="0" y2="5" stroke="#888" stroke-width="1" opacity="1"/><line transform="translate(445,0)" x2="0" y2="5" stroke="#888" stroke-width="1" opacity="1"/><line transform="translate(455,0)" x2="0" y2="5" stroke="#888" stroke-width="1" opacity="1"/><line transform="translate(465,0)" x2="0" y2="5" stroke="#888" stroke-width="1" opacity="1"/><line transform="translate(475,0)" x2="0" y2="5" stroke="#888" stroke-width="1" opacity="1"/><line transform="translate(485,0)" x2="0" y2="5" stroke="#888" stroke-width="1" opacity="1"/><line transform="translate(495,0)" x2="0" y2="5" stroke="#888" stroke-width="1" opacity="1"/></g><g class="mark-text role-axis-label" pointer-events="none"><text text-anchor="end" transform="translate(4.5,7) rotate(270) translate(0,5)" font-family="sans-serif" font-size="18px" fill="#000" opacity="1">1971</text><text text-anchor="end" transform="translate(14.5,7) rotate(270) translate(0,5)" font-family="sans-serif" font-size="18px" fill="#000" opacity="0">1972</text><text text-anchor="end" transform="translate(24.5,7) rotate(270) translate(0,5)" font-family="sans-serif" font-size="18px" fill="#000" opacity="1">1973</text><text text-anchor="end" transform="translate(34.5,7) rotate(270) translate(0,5)" font-family="sans-serif" font-size="18px" fill="#000" opacity="0">1974</text><text text-anchor="end" transform="translate(44.5,7) rotate(270) translate(0,5)" font-family="sans-serif" font-size="18px" fill="#000" opacity="1">1975</text><text text-anchor="end" transform="translate(54.5,7) rotate(270) translate(0,5)" font-family="sans-serif" font-size="18px" fill="#000" opacity="0">1976</text><text text-anchor="end" transform="translate(64.5,7) rotate(270) translate(0,5)" font-family="sans-serif" font-size="18px" fill="#000" opacity="1">1977</text><text text-anchor="end" transform="translate(74.5,7) rotate(270) translate(0,5)" font-family="sans-serif" font-size="18px" fill="#000" opacity="0">1978</text><text text-anchor="end" transform="translate(84.5,7) rotate(270) translate(0,5)" font-family="sans-serif" font-size="18px" fill="#000" opacity="1">1979</text><text text-anchor="end" transform="translate(94.5,7) rotate(270) translate(0,5)" font-family="sans-serif" font-size="18px" fill="#000" opacity="0">1980</text><text text-anchor="end" transform="translate(104.5,7) rotate(270) translate(0,5)" font-family="sans-serif" font-size="18px" fill="#000" opacity="1">1981</text><text text-anchor="end" transform="translate(114.5,7) rotate(270) translate(0,5)" font-family="sans-serif" font-size="18px" fill="#000" opacity="0">1982</text><text text-anchor="end" transform="translate(124.5,7) rotate(270) translate(0,5)" font-family="sans-serif" font-size="18px" fill="#000" opacity="1">1983</text><text text-anchor="end" transform="translate(134.5,7) rotate(270) translate(0,5)" font-family="sans-serif" font-size="18px" fill="#000" opacity="0">1984</text><text text-anchor="end" transform="translate(144.5,7) rotate(270) translate(0,5)" font-family="sans-serif" font-size="18px" fill="#000" opacity="1">1985</text><text text-anchor="end" transform="translate(154.5,7) rotate(270) translate(0,5)" font-family="sans-serif" font-size="18px" fill="#000" opacity="0">1986</text><text text-anchor="end" transform="translate(164.5,7) rotate(270) translate(0,5)" font-family="sans-serif" font-size="18px" fill="#000" opacity="1">1987</text><text text-anchor="end" transform="translate(174.5,7) rotate(270) translate(0,5)" font-family="sans-serif" font-size="18px" fill="#000" opacity="0">1988</text><text text-anchor="end" transform="translate(184.5,7) rotate(270) translate(0,5)" font-family="sans-serif" font-size="18px" fill="#000" opacity="1">1989</text><text text-anchor="end" transform="translate(194.5,7) rotate(270) translate(0,5)" font-family="sans-serif" font-size="18px" fill="#000" opacity="0">1990</text><text text-anchor="end" transform="translate(204.5,7) rotate(270) translate(0,5)" font-family="sans-serif" font-size="18px" fill="#000" opacity="1">1991</text><text text-anchor="end" transform="translate(214.5,7) rotate(270) translate(0,5)" font-family="sans-serif" font-size="18px" fill="#000" opacity="0">1992</text><text text-anchor="end" transform="translate(224.5,7) rotate(270) translate(0,5)" font-family="sans-serif" font-size="18px" fill="#000" opacity="1">1993</text><text text-anchor="end" transform="translate(234.5,7) rotate(270) translate(0,5)" font-family="sans-serif" font-size="18px" fill="#000" opacity="0">1994</text><text text-anchor="end" transform="translate(244.5,7) rotate(270) translate(0,5)" font-family="sans-serif" font-size="18px" fill="#000" opacity="1">1995</text><text text-anchor="end" transform="translate(254.5,7) rotate(270) translate(0,5)" font-family="sans-serif" font-size="18px" fill="#000" opacity="0">1996</text><text text-anchor="end" transform="translate(264.5,7) rotate(270) translate(0,5)" font-family="sans-serif" font-size="18px" fill="#000" opacity="1">1997</text><text text-anchor="end" transform="translate(274.5,7) rotate(270) translate(0,5)" font-family="sans-serif" font-size="18px" fill="#000" opacity="0">1998</text><text text-anchor="end" transform="translate(284.5,7) rotate(270) translate(0,5)" font-family="sans-serif" font-size="18px" fill="#000" opacity="1">1999</text><text text-anchor="end" transform="translate(294.5,7) rotate(270) translate(0,5)" font-family="sans-serif" font-size="18px" fill="#000" opacity="0">2000</text><text text-anchor="end" transform="translate(304.5,7) rotate(270) translate(0,5)" font-family="sans-serif" font-size="18px" fill="#000" opacity="1">2001</text><text text-anchor="end" transform="translate(314.5,7) rotate(270) translate(0,5)" font-family="sans-serif" font-size="18px" fill="#000" opacity="0">2002</text><text text-anchor="end" transform="translate(324.5,7) rotate(270) translate(0,5)" font-family="sans-serif" font-size="18px" fill="#000" opacity="1">2003</text><text text-anchor="end" transform="translate(334.5,7) rotate(270) translate(0,5)" font-family="sans-serif" font-size="18px" fill="#000" opacity="0">2004</text><text text-anchor="end" transform="translate(344.5,7) rotate(270) translate(0,5)" font-family="sans-serif" font-size="18px" fill="#000" opacity="1">2005</text><text text-anchor="end" transform="translate(354.5,7) rotate(270) translate(0,5)" font-family="sans-serif" font-size="18px" fill="#000" opacity="0">2006</text><text text-anchor="end" transform="translate(364.5,7) rotate(270) translate(0,5)" font-family="sans-serif" font-size="18px" fill="#000" opacity="1">2007</text><text text-anchor="end" transform="translate(374.5,7) rotate(270) translate(0,5)" font-family="sans-serif" font-size="18px" fill="#000" opacity="0">2008</text><text text-anchor="end" transform="translate(384.5,7) rotate(270) translate(0,5)" font-family="sans-serif" font-size="18px" fill="#000" opacity="1">2009</text><text text-anchor="end" transform="translate(394.5,7) rotate(270) translate(0,5)" font-family="sans-serif" font-size="18px" fill="#000" opacity="0">2010</text><text text-anchor="end" transform="translate(404.5,7) rotate(270) translate(0,5)" font-family="sans-serif" font-size="18px" fill="#000" opacity="1">2011</text><text text-anchor="end" transform="translate(414.5,7) rotate(270) translate(0,5)" font-family="sans-serif" font-size="18px" fill="#000" opacity="0">2012</text><text text-anchor="end" transform="translate(424.5,7) rotate(270) translate(0,5)" font-family="sans-serif" font-size="18px" fill="#000" opacity="1">2013</text><text text-anchor="end" transform="translate(434.5,7) rotate(270) translate(0,5)" font-family="sans-serif" font-size="18px" fill="#000" opacity="0">2014</text><text text-anchor="end" transform="translate(444.5,7) rotate(270) translate(0,5)" font-family="sans-serif" font-size="18px" fill="#000" opacity="1">2015</text><text text-anchor="end" transform="translate(454.5,7) rotate(270) translate(0,5)" font-family="sans-serif" font-size="18px" fill="#000" opacity="0">2016</text><text text-anchor="end" transform="translate(464.5,7) rotate(270) translate(0,5)" font-family="sans-serif" font-size="18px" fill="#000" opacity="1">2017</text><text text-anchor="end" transform="translate(474.5,7) rotate(270) translate(0,5)" font-family="sans-serif" font-size="18px" fill="#000" opacity="0">2018</text><text text-anchor="end" transform="translate(484.5,7) rotate(270) translate(0,5)" font-family="sans-serif" font-size="18px" fill="#000" opacity="1">2019</text><text text-anchor="end" transform="translate(494.5,7) rotate(270) translate(0,5)" font-family="sans-serif" font-size="18px" fill="#000" opacity="0">2020</text></g><g class="mark-rule role-axis-domain" pointer-events="none"><line transform="translate(0,0)" x2="500" y2="0" stroke="#888" stroke-width="1" opacity="1"/></g><g class="mark-text role-axis-title" pointer-events="none"><text text-anchor="middle" transform="translate(250,68.04296875)" font-family="sans-serif" font-size="22px" font-weight="bold" fill="#000" opacity="1">year</text></g></g><path class="foreground" aria-hidden="true" d="" pointer-events="none" display="none"/></g></g></g><path class="foreground" aria-hidden="true" d="" display="none"/></g></g><g class="mark-group role-scope concat_1_group" role="graphics-object" aria-roledescription="group mark container"><g transform="translate(577,0)"><path class="background" aria-hidden="true" d="M0.5,0.5h500v300h-500Z" stroke="#ddd"/><g><g class="mark-group role-axis" role="graphics-symbol" aria-roledescription="axis" aria-label="Y-axis for a linear scale with values from 0 to 13"><g transform="translate(0.5,0.5)"><path class="background" aria-hidden="true" d="M0,0h0v0h0Z" pointer-events="none"/><g><g class="mark-rule role-axis-grid" pointer-events="none"><line transform="translate(0,300)" x2="500" y2="0" stroke="#ddd" stroke-width="1" opacity="1"/><line transform="translate(0,254)" x2="500" y2="0" stroke="#ddd" stroke-width="1" opacity="1"/><line transform="translate(0,208)" x2="500" y2="0" stroke="#ddd" stroke-width="1" opacity="1"/><line transform="translate(0,162)" x2="500" y2="0" stroke="#ddd" stroke-width="1" opacity="1"/><line transform="translate(0,115)" x2="500" y2="0" stroke="#ddd" stroke-width="1" opacity="1"/><line transform="translate(0,69)" x2="500" y2="0" stroke="#ddd" stroke-width="1" opacity="1"/><line transform="translate(0,23)" x2="500" y2="0" stroke="#ddd" stroke-width="1" opacity="1"/></g></g><path class="foreground" aria-hidden="true" d="" pointer-events="none" display="none"/></g></g><g class="mark-group role-axis" role="graphics-symbol" aria-roledescription="axis" aria-label="Y-axis titled 'Mean number of words in title' for a linear scale with values from 0 to 13"><g transform="translate(0.5,0.5)"><path class="background" aria-hidden="true" d="M0,0h0v0h0Z" pointer-events="none"/><g><g class="mark-rule role-axis-tick" pointer-events="none"><line transform="translate(0,300)" x2="-5" y2="0" stroke="#888" stroke-width="1" opacity="1"/><line transform="translate(0,254)" x2="-5" y2="0" stroke="#888" stroke-width="1" opacity="1"/><line transform="translate(0,208)" x2="-5" y2="0" stroke="#888" stroke-width="1" opacity="1"/><line transform="translate(0,162)" x2="-5" y2="0" stroke="#888" stroke-width="1" opacity="1"/><line transform="translate(0,115)" x2="-5" y2="0" stroke="#888" stroke-width="1" opacity="1"/><line transform="translate(0,69)" x2="-5" y2="0" stroke="#888" stroke-width="1" opacity="1"/><line transform="translate(0,23)" x2="-5" y2="0" stroke="#888" stroke-width="1" opacity="1"/></g><g class="mark-text role-axis-label" pointer-events="none"><text text-anchor="end" transform="translate(-7,305)" font-family="sans-serif" font-size="18px" fill="#000" opacity="1">0</text><text text-anchor="end" transform="translate(-7,258.8461538461538)" font-family="sans-serif" font-size="18px" fill="#000" opacity="1">2</text><text text-anchor="end" transform="translate(-7,212.69230769230768)" font-family="sans-serif" font-size="18px" fill="#000" opacity="1">4</text><text text-anchor="end" transform="translate(-7,166.53846153846152)" font-family="sans-serif" font-size="18px" fill="#000" opacity="1">6</text><text text-anchor="end" transform="translate(-7,120.38461538461537)" font-family="sans-serif" font-size="18px" fill="#000" opacity="1">8</text><text text-anchor="end" transform="translate(-7,74.23076923076921)" font-family="sans-serif" font-size="18px" fill="#000" opacity="1">10</text><text text-anchor="end" transform="translate(-7,28.076923076923062)" font-family="sans-serif" font-size="18px" fill="#000" opacity="1">12</text></g><g class="mark-rule role-axis-domain" pointer-events="none"><line transform="translate(0,300)" x2="0" y2="-300" stroke="#888" stroke-width="1" opacity="1"/></g><g class="mark-text role-axis-title" pointer-events="none"><text text-anchor="middle" transform="translate(-31.021484375,150) rotate(-90) translate(0,-5)" font-family="sans-serif" font-size="22px" font-weight="bold" fill="#000" opacity="1">Mean number of words in title</text></g></g><path class="foreground" aria-hidden="true" d="" pointer-events="none" display="none"/></g></g><g class="mark-rect role-mark concat_1_marks" role="graphics-symbol" aria-roledescription="rect mark container"><path d="M380,31.16574147501995h10v268.83425852498004h-10Z" fill="#4c78a8"/><path d="M30,68.85856079404466h10v231.14143920595535h-10Z" fill="#4c78a8"/><path d="M360,40.838375108038015h10v259.161624891962h-10Z" fill="#4c78a8"/><path d="M180,43.18181818181821h10v256.8181818181818h-10Z" fill="#4c78a8"/><path d="M470,9.401709401709313h10v290.5982905982907h-10Z" fill="#4c78a8"/><path d="M0,71.26696832579184h10v228.73303167420818h-10Z" fill="#4c78a8"/><path d="M420,18.956043956044088h10v281.0439560439559h-10Z" fill="#4c78a8"/><path d="M250,46.82860998650473h10v253.17139001349528h-10Z" fill="#4c78a8"/><path d="M270,34.78021978021979h10v265.2197802197802h-10Z" fill="#4c78a8"/><path d="M480,35.67720622935351h10v264.3227937706465h-10Z" fill="#4c78a8"/><path d="M320,31.097560975609685h10v268.90243902439033h-10Z" fill="#4c78a8"/><path d="M40,55.95363540569025h10v244.04636459430975h-10Z" fill="#4c78a8"/><path d="M170,59.79020979020978h10v240.2097902097902h-10Z" fill="#4c78a8"/><path d="M210,52.08186309103734h10v247.91813690896265h-10Z" fill="#4c78a8"/><path d="M300,22.322070452911525h10v277.67792954708847h-10Z" fill="#4c78a8"/><path d="M490,11.478676763650974h10v288.521323236349h-10Z" fill="#4c78a8"/><path d="M10,46.69051878354208h10v253.30948121645793h-10Z" fill="#4c78a8"/><path d="M350,23.564463705308782h10v276.43553629469125h-10Z" fill="#4c78a8"/><path d="M440,26.505494505494497h10v273.4945054945055h-10Z" fill="#4c78a8"/><path d="M20,78.70879120879113h10v221.29120879120887h-10Z" fill="#4c78a8"/><path d="M100,52.5737420474263h10v247.4262579525737h-10Z" fill="#4c78a8"/><path d="M240,38.79598662207363h10v261.20401337792634h-10Z" fill="#4c78a8"/><path d="M330,38.95781637717132h10v261.0421836228287h-10Z" fill="#4c78a8"/><path d="M400,24.465008675535028h10v275.53499132446495h-10Z" fill="#4c78a8"/><path d="M390,24.933687002652473h10v275.06631299734755h-10Z" fill="#4c78a8"/><path d="M80,34.714003944773175h10v265.2859960552268h-10Z" fill="#4c78a8"/><path d="M130,45.72115384615388h10v254.27884615384613h-10Z" fill="#4c78a8"/><path d="M190,38.402818555490235h10v261.5971814445098h-10Z" fill="#4c78a8"/><path d="M430,36.9482976040352h10v263.0517023959648h-10Z" fill="#4c78a8"/><path d="M340,34.03846153846175h10v265.9615384615382h-10Z" fill="#4c78a8"/><path d="M50,57.430069930070005h10v242.56993006993h-10Z" fill="#4c78a8"/><path d="M140,56.14236509758895h10v243.85763490241106h-10Z" fill="#4c78a8"/><path d="M200,36.60477453580888h10v263.3952254641911h-10Z" fill="#4c78a8"/><path d="M290,30.26671820641671h10v269.7332817935833h-10Z" fill="#4c78a8"/><path d="M230,45.6381607219596h10v254.3618392780404h-10Z" fill="#4c78a8"/><path d="M220,35.1714550509732h10v264.8285449490268h-10Z" fill="#4c78a8"/><path d="M160,55.648351648351756h10v244.35164835164824h-10Z" fill="#4c78a8"/><path d="M450,14.755917159763444h10v285.24408284023656h-10Z" fill="#4c78a8"/><path d="M280,47.08156165442608h10v252.91843834557392h-10Z" fill="#4c78a8"/><path d="M310,43.38886919532066h10v256.61113080467936h-10Z" fill="#4c78a8"/><path d="M260,38.40885142255015h10v261.59114857744987h-10Z" fill="#4c78a8"/><path d="M120,47.70090244950587h10v252.29909755049414h-10Z" fill="#4c78a8"/><path d="M460,17.139001349527494h10v282.8609986504725h-10Z" fill="#4c78a8"/><path d="M150,43.528327959465706h10v256.4716720405343h-10Z" fill="#4c78a8"/><path d="M410,31.468531468531534h10v268.5314685314685h-10Z" fill="#4c78a8"/><path d="M60,48.0971659919028h10v251.90283400809722h-10Z" fill="#4c78a8"/><path d="M90,54.43786982248528h10v245.56213017751472h-10Z" fill="#4c78a8"/><path d="M110,47.1074380165289h10v252.8925619834711h-10Z" fill="#4c78a8"/><path d="M70,34.7319347319347h10v265.2680652680653h-10Z" fill="#4c78a8"/><path d="M370,26.081019572143838h10v273.9189804278562h-10Z" fill="#4c78a8"/></g><g class="mark-group role-title"><g transform="translate(250,-31.84228515625)"><path class="background" aria-hidden="true" d="M0,0h0v0h0Z" pointer-events="none"/><g><g class="mark-text role-title-text" role="graphics-symbol" aria-roledescription="title" aria-label="Title text 'Words in title'" pointer-events="none"><text text-anchor="middle" transform="translate(0,17)" font-family="sans-serif" font-size="22px" font-weight="bold" fill="#000" opacity="1">Words in title</text></g></g><path class="foreground" aria-hidden="true" d="" pointer-events="none" display="none"/></g></g><g class="mark-group role-axis" role="graphics-symbol" aria-roledescription="axis" aria-label="X-axis titled 'year' for a discrete scale with 50 values: 1971, 1972, 1973, 1974, 1975, ending with 2020"><g transform="translate(0.5,300.5)"><path class="background" aria-hidden="true" d="M0,0h0v0h0Z" pointer-events="none"/><g><g class="mark-rule role-axis-tick" pointer-events="none"><line transform="translate(5,0)" x2="0" y2="5" stroke="#888" stroke-width="1" opacity="1"/><line transform="translate(15,0)" x2="0" y2="5" stroke="#888" stroke-width="1" opacity="1"/><line transform="translate(25,0)" x2="0" y2="5" stroke="#888" stroke-width="1" opacity="1"/><line transform="translate(35,0)" x2="0" y2="5" stroke="#888" stroke-width="1" opacity="1"/><line transform="translate(45,0)" x2="0" y2="5" stroke="#888" stroke-width="1" opacity="1"/><line transform="translate(55,0)" x2="0" y2="5" stroke="#888" stroke-width="1" opacity="1"/><line transform="translate(65,0)" x2="0" y2="5" stroke="#888" stroke-width="1" opacity="1"/><line transform="translate(75,0)" x2="0" y2="5" stroke="#888" stroke-width="1" opacity="1"/><line transform="translate(85,0)" x2="0" y2="5" stroke="#888" stroke-width="1" opacity="1"/><line transform="translate(95,0)" x2="0" y2="5" stroke="#888" stroke-width="1" opacity="1"/><line transform="translate(105,0)" x2="0" y2="5" stroke="#888" stroke-width="1" opacity="1"/><line transform="translate(115,0)" x2="0" y2="5" stroke="#888" stroke-width="1" opacity="1"/><line transform="translate(125,0)" x2="0" y2="5" stroke="#888" stroke-width="1" opacity="1"/><line transform="translate(135,0)" x2="0" y2="5" stroke="#888" stroke-width="1" opacity="1"/><line transform="translate(145,0)" x2="0" y2="5" stroke="#888" stroke-width="1" opacity="1"/><line transform="translate(155,0)" x2="0" y2="5" stroke="#888" stroke-width="1" opacity="1"/><line transform="translate(165,0)" x2="0" y2="5" stroke="#888" stroke-width="1" opacity="1"/><line transform="translate(175,0)" x2="0" y2="5" stroke="#888" stroke-width="1" opacity="1"/><line transform="translate(185,0)" x2="0" y2="5" stroke="#888" stroke-width="1" opacity="1"/><line transform="translate(195,0)" x2="0" y2="5" stroke="#888" stroke-width="1" opacity="1"/><line transform="translate(205,0)" x2="0" y2="5" stroke="#888" stroke-width="1" opacity="1"/><line transform="translate(215,0)" x2="0" y2="5" stroke="#888" stroke-width="1" opacity="1"/><line transform="translate(225,0)" x2="0" y2="5" stroke="#888" stroke-width="1" opacity="1"/><line transform="translate(235,0)" x2="0" y2="5" stroke="#888" stroke-width="1" opacity="1"/><line transform="translate(245,0)" x2="0" y2="5" stroke="#888" stroke-width="1" opacity="1"/><line transform="translate(255,0)" x2="0" y2="5" stroke="#888" stroke-width="1" opacity="1"/><line transform="translate(265,0)" x2="0" y2="5" stroke="#888" stroke-width="1" opacity="1"/><line transform="translate(275,0)" x2="0" y2="5" stroke="#888" stroke-width="1" opacity="1"/><line transform="translate(285,0)" x2="0" y2="5" stroke="#888" stroke-width="1" opacity="1"/><line transform="translate(295,0)" x2="0" y2="5" stroke="#888" stroke-width="1" opacity="1"/><line transform="translate(305,0)" x2="0" y2="5" stroke="#888" stroke-width="1" opacity="1"/><line transform="translate(315,0)" x2="0" y2="5" stroke="#888" stroke-width="1" opacity="1"/><line transform="translate(325,0)" x2="0" y2="5" stroke="#888" stroke-width="1" opacity="1"/><line transform="translate(335,0)" x2="0" y2="5" stroke="#888" stroke-width="1" opacity="1"/><line transform="translate(345,0)" x2="0" y2="5" stroke="#888" stroke-width="1" opacity="1"/><line transform="translate(355,0)" x2="0" y2="5" stroke="#888" stroke-width="1" opacity="1"/><line transform="translate(365,0)" x2="0" y2="5" stroke="#888" stroke-width="1" opacity="1"/><line transform="translate(375,0)" x2="0" y2="5" stroke="#888" stroke-width="1" opacity="1"/><line transform="translate(385,0)" x2="0" y2="5" stroke="#888" stroke-width="1" opacity="1"/><line transform="translate(395,0)" x2="0" y2="5" stroke="#888" stroke-width="1" opacity="1"/><line transform="translate(405,0)" x2="0" y2="5" stroke="#888" stroke-width="1" opacity="1"/><line transform="translate(415,0)" x2="0" y2="5" stroke="#888" stroke-width="1" opacity="1"/><line transform="translate(425,0)" x2="0" y2="5" stroke="#888" stroke-width="1" opacity="1"/><line transform="translate(435,0)" x2="0" y2="5" stroke="#888" stroke-width="1" opacity="1"/><line transform="translate(445,0)" x2="0" y2="5" stroke="#888" stroke-width="1" opacity="1"/><line transform="translate(455,0)" x2="0" y2="5" stroke="#888" stroke-width="1" opacity="1"/><line transform="translate(465,0)" x2="0" y2="5" stroke="#888" stroke-width="1" opacity="1"/><line transform="translate(475,0)" x2="0" y2="5" stroke="#888" stroke-width="1" opacity="1"/><line transform="translate(485,0)" x2="0" y2="5" stroke="#888" stroke-width="1" opacity="1"/><line transform="translate(495,0)" x2="0" y2="5" stroke="#888" stroke-width="1" opacity="1"/></g><g class="mark-text role-axis-label" pointer-events="none"><text text-anchor="end" transform="translate(4.5,7) rotate(270) translate(0,5)" font-family="sans-serif" font-size="18px" fill="#000" opacity="1">1971</text><text text-anchor="end" transform="translate(14.5,7) rotate(270) translate(0,5)" font-family="sans-serif" font-size="18px" fill="#000" opacity="0">1972</text><text text-anchor="end" transform="translate(24.5,7) rotate(270) translate(0,5)" font-family="sans-serif" font-size="18px" fill="#000" opacity="1">1973</text><text text-anchor="end" transform="translate(34.5,7) rotate(270) translate(0,5)" font-family="sans-serif" font-size="18px" fill="#000" opacity="0">1974</text><text text-anchor="end" transform="translate(44.5,7) rotate(270) translate(0,5)" font-family="sans-serif" font-size="18px" fill="#000" opacity="1">1975</text><text text-anchor="end" transform="translate(54.5,7) rotate(270) translate(0,5)" font-family="sans-serif" font-size="18px" fill="#000" opacity="0">1976</text><text text-anchor="end" transform="translate(64.5,7) rotate(270) translate(0,5)" font-family="sans-serif" font-size="18px" fill="#000" opacity="1">1977</text><text text-anchor="end" transform="translate(74.5,7) rotate(270) translate(0,5)" font-family="sans-serif" font-size="18px" fill="#000" opacity="0">1978</text><text text-anchor="end" transform="translate(84.5,7) rotate(270) translate(0,5)" font-family="sans-serif" font-size="18px" fill="#000" opacity="1">1979</text><text text-anchor="end" transform="translate(94.5,7) rotate(270) translate(0,5)" font-family="sans-serif" font-size="18px" fill="#000" opacity="0">1980</text><text text-anchor="end" transform="translate(104.5,7) rotate(270) translate(0,5)" font-family="sans-serif" font-size="18px" fill="#000" opacity="1">1981</text><text text-anchor="end" transform="translate(114.5,7) rotate(270) translate(0,5)" font-family="sans-serif" font-size="18px" fill="#000" opacity="0">1982</text><text text-anchor="end" transform="translate(124.5,7) rotate(270) translate(0,5)" font-family="sans-serif" font-size="18px" fill="#000" opacity="1">1983</text><text text-anchor="end" transform="translate(134.5,7) rotate(270) translate(0,5)" font-family="sans-serif" font-size="18px" fill="#000" opacity="0">1984</text><text text-anchor="end" transform="translate(144.5,7) rotate(270) translate(0,5)" font-family="sans-serif" font-size="18px" fill="#000" opacity="1">1985</text><text text-anchor="end" transform="translate(154.5,7) rotate(270) translate(0,5)" font-family="sans-serif" font-size="18px" fill="#000" opacity="0">1986</text><text text-anchor="end" transform="translate(164.5,7) rotate(270) translate(0,5)" font-family="sans-serif" font-size="18px" fill="#000" opacity="1">1987</text><text text-anchor="end" transform="translate(174.5,7) rotate(270) translate(0,5)" font-family="sans-serif" font-size="18px" fill="#000" opacity="0">1988</text><text text-anchor="end" transform="translate(184.5,7) rotate(270) translate(0,5)" font-family="sans-serif" font-size="18px" fill="#000" opacity="1">1989</text><text text-anchor="end" transform="translate(194.5,7) rotate(270) translate(0,5)" font-family="sans-serif" font-size="18px" fill="#000" opacity="0">1990</text><text text-anchor="end" transform="translate(204.5,7) rotate(270) translate(0,5)" font-family="sans-serif" font-size="18px" fill="#000" opacity="1">1991</text><text text-anchor="end" transform="translate(214.5,7) rotate(270) translate(0,5)" font-family="sans-serif" font-size="18px" fill="#000" opacity="0">1992</text><text text-anchor="end" transform="translate(224.5,7) rotate(270) translate(0,5)" font-family="sans-serif" font-size="18px" fill="#000" opacity="1">1993</text><text text-anchor="end" transform="translate(234.5,7) rotate(270) translate(0,5)" font-family="sans-serif" font-size="18px" fill="#000" opacity="0">1994</text><text text-anchor="end" transform="translate(244.5,7) rotate(270) translate(0,5)" font-family="sans-serif" font-size="18px" fill="#000" opacity="1">1995</text><text text-anchor="end" transform="translate(254.5,7) rotate(270) translate(0,5)" font-family="sans-serif" font-size="18px" fill="#000" opacity="0">1996</text><text text-anchor="end" transform="translate(264.5,7) rotate(270) translate(0,5)" font-family="sans-serif" font-size="18px" fill="#000" opacity="1">1997</text><text text-anchor="end" transform="translate(274.5,7) rotate(270) translate(0,5)" font-family="sans-serif" font-size="18px" fill="#000" opacity="0">1998</text><text text-anchor="end" transform="translate(284.5,7) rotate(270) translate(0,5)" font-family="sans-serif" font-size="18px" fill="#000" opacity="1">1999</text><text text-anchor="end" transform="translate(294.5,7) rotate(270) translate(0,5)" font-family="sans-serif" font-size="18px" fill="#000" opacity="0">2000</text><text text-anchor="end" transform="translate(304.5,7) rotate(270) translate(0,5)" font-family="sans-serif" font-size="18px" fill="#000" opacity="1">2001</text><text text-anchor="end" transform="translate(314.5,7) rotate(270) translate(0,5)" font-family="sans-serif" font-size="18px" fill="#000" opacity="0">2002</text><text text-anchor="end" transform="translate(324.5,7) rotate(270) translate(0,5)" font-family="sans-serif" font-size="18px" fill="#000" opacity="1">2003</text><text text-anchor="end" transform="translate(334.5,7) rotate(270) translate(0,5)" font-family="sans-serif" font-size="18px" fill="#000" opacity="0">2004</text><text text-anchor="end" transform="translate(344.5,7) rotate(270) translate(0,5)" font-family="sans-serif" font-size="18px" fill="#000" opacity="1">2005</text><text text-anchor="end" transform="translate(354.5,7) rotate(270) translate(0,5)" font-family="sans-serif" font-size="18px" fill="#000" opacity="0">2006</text><text text-anchor="end" transform="translate(364.5,7) rotate(270) translate(0,5)" font-family="sans-serif" font-size="18px" fill="#000" opacity="1">2007</text><text text-anchor="end" transform="translate(374.5,7) rotate(270) translate(0,5)" font-family="sans-serif" font-size="18px" fill="#000" opacity="0">2008</text><text text-anchor="end" transform="translate(384.5,7) rotate(270) translate(0,5)" font-family="sans-serif" font-size="18px" fill="#000" opacity="1">2009</text><text text-anchor="end" transform="translate(394.5,7) rotate(270) translate(0,5)" font-family="sans-serif" font-size="18px" fill="#000" opacity="0">2010</text><text text-anchor="end" transform="translate(404.5,7) rotate(270) translate(0,5)" font-family="sans-serif" font-size="18px" fill="#000" opacity="1">2011</text><text text-anchor="end" transform="translate(414.5,7) rotate(270) translate(0,5)" font-family="sans-serif" font-size="18px" fill="#000" opacity="0">2012</text><text text-anchor="end" transform="translate(424.5,7) rotate(270) translate(0,5)" font-family="sans-serif" font-size="18px" fill="#000" opacity="1">2013</text><text text-anchor="end" transform="translate(434.5,7) rotate(270) translate(0,5)" font-family="sans-serif" font-size="18px" fill="#000" opacity="0">2014</text><text text-anchor="end" transform="translate(444.5,7) rotate(270) translate(0,5)" font-family="sans-serif" font-size="18px" fill="#000" opacity="1">2015</text><text text-anchor="end" transform="translate(454.5,7) rotate(270) translate(0,5)" font-family="sans-serif" font-size="18px" fill="#000" opacity="0">2016</text><text text-anchor="end" transform="translate(464.5,7) rotate(270) translate(0,5)" font-family="sans-serif" font-size="18px" fill="#000" opacity="1">2017</text><text text-anchor="end" transform="translate(474.5,7) rotate(270) translate(0,5)" font-family="sans-serif" font-size="18px" fill="#000" opacity="0">2018</text><text text-anchor="end" transform="translate(484.5,7) rotate(270) translate(0,5)" font-family="sans-serif" font-size="18px" fill="#000" opacity="1">2019</text><text text-anchor="end" transform="translate(494.5,7) rotate(270) translate(0,5)" font-family="sans-serif" font-size="18px" fill="#000" opacity="0">2020</text></g><g class="mark-rule role-axis-domain" pointer-events="none"><line transform="translate(0,0)" x2="500" y2="0" stroke="#888" stroke-width="1" opacity="1"/></g><g class="mark-text role-axis-title" pointer-events="none"><text text-anchor="middle" transform="translate(250,68.04296875)" font-family="sans-serif" font-size="22px" font-weight="bold" fill="#000" opacity="1">year</text></g></g><path class="foreground" aria-hidden="true" d="" pointer-events="none" display="none"/></g></g></g><path class="foreground" aria-hidden="true" d="" display="none"/></g></g></g><path class="foreground" aria-hidden="true" d="" display="none"/></g></g></g></svg>